<svg xmlns="http://www.w3.org/2000/svg" viewBox="0 0 51.65 42.16"><defs><style>.cls-1{fill:#fec;}.cls-2{fill:#150e21;}</style></defs><g id="Calque_2" data-name="Calque 2"><g id="Calque_1-2" data-name="Calque 1"><path class="cls-1" d="M47.12,14.53H7.77A4.53,4.53,0,0,1,3.24,10h0A4.52,4.52,0,0,1,7.77,5.48H47.12A4.52,4.52,0,0,1,51.65,10h0A4.53,4.53,0,0,1,47.12,14.53Z"/><path class="cls-1" d="M47.12,28.38H7.77a4.53,4.53,0,0,1-4.53-4.53h0a4.52,4.52,0,0,1,4.53-4.52H47.12a4.52,4.52,0,0,1,4.53,4.52h0A4.53,4.53,0,0,1,47.12,28.38Z"/><path class="cls-1" d="M47.12,42.16H7.77a4.52,4.52,0,0,1-4.53-4.52h0a4.53,4.53,0,0,1,4.53-4.53H47.12a4.53,4.53,0,0,1,4.53,4.53h0A4.52,4.52,0,0,1,47.12,42.16Z"/><path class="cls-2" d="M43.88,9.06H4.53A4.53,4.53,0,0,1,0,4.53H0A4.53,4.53,0,0,1,4.53,0H43.88A4.52,4.52,0,0,1,48.4,4.53h0A4.52,4.52,0,0,1,43.88,9.06Z"/><path class="cls-2" d="M43.88,22.9H4.53A4.52,4.52,0,0,1,0,18.38H0a4.53,4.53,0,0,1,4.53-4.53H43.88a4.52,4.52,0,0,1,4.52,4.53h0A4.52,4.52,0,0,1,43.88,22.9Z"/><path class="cls-2" d="M43.88,36.69H4.53A4.53,4.53,0,0,1,0,32.16H0a4.53,4.53,0,0,1,4.53-4.53H43.88a4.52,4.52,0,0,1,4.52,4.53h0A4.52,4.52,0,0,1,43.88,36.69Z"/></g></g></svg>