<svg xmlns="http://www.w3.org/2000/svg" viewBox="0 0 1696.84 894.24"><defs><style>.cls-1{fill:#fec;}.cls-2{fill:#16110d;}</style></defs><g id="Calque_2" data-name="Calque 2"><g id="Calque_1-2" data-name="Calque 1"><g id="mask"><path class="cls-1" d="M9.54,894.24V32.29c0-13.13,11-23.81,24.55-23.81H1666.31c13.53,0,24.54,10.68,24.54,23.81v862h6V32.29c0-16.33-13.7-29.62-30.53-29.62H34.09C17.25,2.67,3.56,16,3.56,32.29v862Z"/><path class="cls-2" d="M3,894.24V28.17C3,14.24,14.67,2.9,29,2.9H1661.25c14.36,0,26,11.34,26,25.27V894.24h3V28.17c0-15.53-13-28.17-29-28.17H29C13,0,0,12.64,0,28.17V894.24Z"/></g></g></g></svg>