<svg xmlns="http://www.w3.org/2000/svg" xmlns:xlink="http://www.w3.org/1999/xlink" viewBox="0 0 1733.55 1075.56"><defs><style>.cls-1{fill:url(#Dégradé_sans_nom_5);}.cls-2{fill:url(#Dégradé_sans_nom_10);}.cls-3{opacity:0.18;}.cls-4{fill:#80c1ab;}.cls-5{fill:#f49523;}.cls-6{fill:#3a9377;}</style><linearGradient id="Dégradé_sans_nom_5" x1="-3360.04" y1="1746.42" x2="-2123.27" y2="1746.42" gradientTransform="matrix(0.93, 0.54, -0.66, 1.15, 4401.92, 2.84)" gradientUnits="userSpaceOnUse"><stop offset="0" stop-color="#ffce78"/><stop offset="0.24" stop-color="#ffcb77"/><stop offset="0.39" stop-color="#fdc374"/><stop offset="0.52" stop-color="#fab46f"/><stop offset="0.64" stop-color="#f69e68"/><stop offset="0.75" stop-color="#f1835f"/><stop offset="0.85" stop-color="#eb6153"/><stop offset="0.95" stop-color="#e43a46"/><stop offset="1" stop-color="#e0233e"/></linearGradient><linearGradient id="Dégradé_sans_nom_10" x1="-3190.58" y1="831.41" x2="-1767.12" y2="831.41" gradientTransform="matrix(0.93, 0.54, -0.57, 0.99, 3794.23, 1055.38)" gradientUnits="userSpaceOnUse"><stop offset="0" stop-color="#ffce78"/><stop offset="0.46" stop-color="#ffcd76"/><stop offset="0.63" stop-color="#fec86f"/><stop offset="0.75" stop-color="#fcc064"/><stop offset="0.85" stop-color="#fab553"/><stop offset="0.93" stop-color="#f7a63d"/><stop offset="1" stop-color="#f49523"/></linearGradient></defs><g id="Calque_2" data-name="Calque 2"><g id="Calque_1-2" data-name="Calque 1"><polygon class="cls-1" points="1157.58 1075.56 0 595.82 236.67 22.28 1388.39 472.03 1157.58 1075.56"/><polygon class="cls-2" points="1597.89 1075.56 260.4 523.09 459.03 0 1597.89 472.03 1597.89 1075.56"/><g class="cls-3"><path class="cls-4" d="M1072.22,640l396.27-216.63L1520,399.62l56.8-39.63s10.56-17.17,6.6-19.81S1730,430,1730,430s7.92,6.6,0,17.17S1393.2,662.48,1393.2,662.48l26.42-13.21,22.45,25.09h-79.25L1140.91,791.92s-44.91,11.89-55.48,11.89S1057.69,821,1057.69,821a96.55,96.55,0,0,1-34.34-7.92c-18.49-7.93-149.26-74-149.26-74l109.63,30.38L1003.54,747,956,749.66l-10.57-7.93L950.7,710Z"/><polygon class="cls-4" points="1205.63 522.46 1385.28 441.89 1428.87 415.47 1448.68 379.81 1382.63 340.12 1339.05 366.6 1406.41 404.9 1205.63 522.46"/></g><path class="cls-5" d="M1172.93,546.09l28.32-102.52,168.29-90.13h.61a83.13,83.13,0,0,1,28.17,5.3c19.23,7.35,30.85,21.39,33.6,40.61l.24,1.69ZM1205.5,447l-24.56,88.91L1426.7,398.36c-6.66-37.92-50.32-39.84-55.89-39.92Z"/><polygon class="cls-5" points="1495.4 398.04 1408.42 332.58 1371.61 357.99 1368.77 353.88 1408.54 326.42 1498.4 394.05 1495.4 398.04"/><path class="cls-5" d="M1342.18,581.46c-2.11-5.41,1.7-19.84,2.72-23.5V489h5v69.63l-.09.34c-1.93,6.79-4.13,17.68-3,20.66Z"/><path class="cls-5" d="M1004.52,347.74l-3.39-3.67c.59-.54,60.7-54.88,234.17-120.83l.85-.32.85.29c1,.33,97.1,33.81,173.18,104.46l-3.4,3.66c-71.5-66.39-160.94-99.64-170.56-103.09C1064.5,293.63,1005.1,347.21,1004.52,347.74Z"/><path class="cls-5" d="M967.71,691.26l-.84-.13c-60.78-10-112.72-41.89-145.59-66.91-35.59-27.09-57.15-52.19-57.37-52.44l-.47-.56-.1-.71c-.31-2.17-2.74-21.31,7.15-24.61,6.5-2.48,111.86-79.95,181.3-131.57l50.33-71.77,185.76,111.6-28.22,92.93-1.81,0c-.84,0-1.7,0-2.54,0-71.19,0-152.73-62.8-183.66-86.61-6.21-4.79-11.11-8.56-12.79-9.4-9.19-4.6-9.21-20.62-8.44-29.57C918.88,445,779.92,548,772.08,550.65c-4.5,1.5-4.58,12.61-3.88,18.43,3.34,3.8,23.92,26.68,56.2,51.23s83.08,55.79,142.44,65.74L1551.21,370.2c12.48-8.41,44.37-32,50.21-45.11-26-16-187.67-115.34-194.81-123.38-5.22-5.87-8-3.75-8.27-3.49l-.33.34-.39.14-113.87,49.07-2-4.59,113.53-48.93a8,8,0,0,1,5.1-1.6c3.3.09,6.64,2,9.95,5.74,5.17,5.82,119.7,77.05,195.43,123.51l1.6,1-.5,1.82c-4.75,17.1-51,48.39-53,49.72l-.2.12ZM956,417.06c-1.08,7.11-2.25,25.93,5.12,29.62,2.1,1.05,6.43,4.38,13.6,9.9,30.56,23.53,111.13,85.58,180.6,85.58h.63l26-85.72L1003.54,349.25Z"/><path class="cls-5" d="M1083.42,543.42c-53.77-11.84-125.66-71.81-128.69-74.36l-2.41-2,11.41-8.56,1.52,1.29c.8.68,80.31,68.09,128.36,78.77l-1.08,4.88c-2.78-.61-5.65-1.41-8.59-2.35Zm-123-76.19c10.4,8.44,52.23,41.43,92.57,60.11-39.55-21.31-80.79-55.24-89.41-62.47Z"/><path class="cls-5" d="M958.05,723.26l-2-.21c-61.17-6.39-177.34-108.4-182.25-112.74l-.85-.74v-29h5v26.76c10.7,9.31,119.17,102.65,176.65,110.53l10.28-30,4.73,1.62Z"/><path class="cls-5" d="M976,747q-6.69,0-14.25-.26c-48-1.61-100.17-31.94-127-49.87-37-24.73-65.94-52.77-65.94-63.84,0-18.76,4-22.51,5.7-23.26l2,4.59a1.76,1.76,0,0,0,.35-.2s-3,2.87-3,18.87c0,7,22.69,32.25,63.72,59.68,44.88,30,90.21,47.88,124.38,49,50.71,1.71,60-6,61.68-9.38a4.13,4.13,0,0,0-.09-3.63c-8.93,1.32-50.62,6.68-68.6-6.16l2.91-4.07c18.08,12.91,66,5.12,66.5,5l1.38-.23.92,1a9.54,9.54,0,0,1,1.51,10.11C1024.1,742.9,1007,747,976,747Z"/><path class="cls-5" d="M1026.78,727.43l-4.15-2.79c1.62-2.42,40.33-59.35,83.8-64.9,12.73-1.62,22.25,1,28.27,7.81,7.93,9,7.54,22.77,6.51,30.53l34.39-21.79,2.68,4.22-44.51,28.21,1.55-6.09c0-.21,5.17-21-4.38-31.78-4.85-5.48-12.89-7.55-23.88-6.15C1065.85,670,1027.16,726.85,1026.78,727.43Z"/><path class="cls-5" d="M952.7,420.17l4.37-50.74L968,381.48l-1.94,21.27Zm8.37-38.88-1.92,22.24,2.05-2.68,1.61-17.64Z"/><path class="cls-5" d="M972.34,393.74l-18.73-20.68,4.73-21.25,29.45,19.88Zm-13.28-22.12,12.78,14.12L980.78,373l-19.16-12.93Z"/><path class="cls-5" d="M1166,687.71l8.49-139.59,5,.31-7.92,130.24,255.71-149.31c1.7-8,12.79-53.63,47.23-75.43,18.08-11.45,39.47-14.22,63.61-8.25,35.14-35.82,72.61-76.59,73.93-82.78-.8-6.15-7.33-21.47-9.8-26.9l4.55-2.07c.38.84,9.29,20.5,10.24,28.55.24,2.09.7,6-38.14,47.74-18.84,20.25-38,39.79-38.22,40l-1,1-1.4-.36c-23.32-6.07-43.87-3.62-61.07,7.27-35.2,22.28-45.13,72.76-45.23,73.27l-.21,1.12Z"/><path class="cls-5" d="M1547.84,464l-1.3-3.2c-1.13-2.8-5.11-10.44-9.79-12.15a5,5,0,0,0-4.35.34l-2.32-4.43a10.11,10.11,0,0,1,8.4-.6c5.39,2,9.27,8.07,11.25,11.88,6-5.14,22-18.95,37.54-33.59,36.68-34.57,37-41.74,36.67-42.83-3-10.39-9-10.07-9.2-10.05l-.51-5c.42-.05,10.34-1,14.52,13.65.81,2.82,2.7,9.43-38.06,47.85-19.65,18.52-40,35.7-40.22,35.87Z"/><path class="cls-5" d="M1487,452.75l-3.67-3.4c1.11-1.19,27.31-29,49.15-16.27,9.7,5.65,13.5,9.68,12.68,13.49-.6,2.81-3.65,4.11-6.08,4.37l-.53-5a5.07,5.07,0,0,0,1.66-.52c-.26-.66-1.75-3.1-10.25-8.05C1511.59,426.7,1487.26,452.49,1487,452.75Z"/><path class="cls-5" d="M1078.38,744.82h-.08c-19.47,0-37.56-11.16-47.22-29.06l4.4-2.37c8.79,16.28,25.2,26.41,42.83,26.43h.07a47.64,47.64,0,0,0,34.85-15.29,53.93,53.93,0,0,0,14.58-37.19,54.83,54.83,0,0,0-4.44-21.87l4.59-2a59.81,59.81,0,0,1,4.85,23.85,58.86,58.86,0,0,1-16,40.62A52.62,52.62,0,0,1,1078.38,744.82Z"/><path class="cls-5" d="M1482,530.44h-.07c-18.54,0-35.75-11.18-44.92-29.11l4.45-2.28c8.31,16.25,23.82,26.36,40.47,26.39h.07c25.75,0,46.72-23.53,46.77-52.49a57.56,57.56,0,0,0-4.23-21.91l4.63-1.89a62.69,62.69,0,0,1,4.6,23.81C1533.73,504.67,1510.51,530.44,1482,530.44Z"/><path class="cls-6" d="M1147.43,531.82l28.32-102.52L1344,339.17h.61a83.26,83.26,0,0,1,28.17,5.29c19.23,7.35,30.85,21.4,33.6,40.61l.24,1.7ZM1180,432.69l-24.56,88.92L1401.2,384.09c-6.66-37.92-50.32-39.84-55.89-39.93Z"/><polygon class="cls-6" points="1469.9 383.77 1382.92 318.31 1346.11 343.72 1343.27 339.6 1383.04 312.14 1472.9 379.77 1469.9 383.77"/><path class="cls-6" d="M1316.68,567.19c-2.11-5.41,1.7-19.84,2.72-23.51V474.75h5v69.63l-.09.33c-1.93,6.79-4.13,17.69-3,20.66Z"/><path class="cls-6" d="M979,333.47l-3.39-3.68c.59-.54,60.7-54.87,234.17-120.82l.85-.32.85.29c1,.33,97.1,33.8,173.18,104.45l-3.4,3.67c-71.5-66.4-160.94-99.64-170.56-103.09C1039,279.36,979.6,332.94,979,333.47Z"/><path class="cls-6" d="M942.21,677l-.84-.14c-60.78-10-112.72-41.89-145.59-66.91-35.59-27.08-57.15-52.19-57.37-52.44l-.47-.55-.1-.72c-.31-2.17-2.74-21.3,7.15-24.6,6.5-2.48,111.86-79.95,181.3-131.57l50.33-71.77,185.76,111.59-28.22,92.94-1.81,0-2.54,0c-71.19,0-152.73-62.79-183.66-86.61-6.21-4.78-11.11-8.56-12.79-9.39-9.19-4.6-9.21-20.62-8.44-29.57-31.54,23.42-170.5,126.45-178.34,129.06-4.5,1.5-4.58,12.61-3.88,18.44,3.34,3.8,23.92,26.68,56.2,51.23S882,661.83,941.34,671.78l584.37-315.85c12.48-8.41,44.37-32,50.21-45.11-26-16-187.67-115.34-194.81-123.38-5.22-5.87-8-3.75-8.27-3.49l-.33.34-.39.14L1258.25,233.5l-2-4.59L1369.8,180a8,8,0,0,1,5.1-1.61c3.3.1,6.64,2,9.95,5.75,5.17,5.82,119.7,77,195.43,123.5l1.6,1-.5,1.81c-4.75,17.1-51,48.4-53,49.72l-.2.13Zm-11.73-274.2c-1.08,7.1-2.25,25.93,5.12,29.61,2.1,1.06,6.43,4.39,13.6,9.91,30.56,23.53,111.13,85.57,180.6,85.57h.63l26-85.72L978,335Z"/><path class="cls-6" d="M1057.92,529.15c-53.77-11.84-125.66-71.82-128.69-74.36l-2.41-2,11.41-8.56,1.52,1.3c.8.68,80.31,68.09,128.36,78.77l-1.08,4.88c-2.78-.62-5.65-1.41-8.59-2.36ZM934.88,453c10.4,8.43,52.23,41.43,92.57,60.11C987.9,491.76,946.66,457.83,938,450.6Z"/><path class="cls-6" d="M932.55,709l-2-.2C869.41,702.39,753.24,600.38,748.33,596l-.85-.75v-29h5V593c10.7,9.31,119.17,102.66,176.65,110.54l10.28-30,4.73,1.63Z"/><path class="cls-6" d="M950.47,732.75q-6.69,0-14.25-.26c-48-1.62-100.17-31.94-127-49.87-37-24.73-65.94-52.77-65.94-63.84,0-18.76,4-22.52,5.7-23.26l2,4.59a1.15,1.15,0,0,0,.35-.21s-3,2.88-3,18.88c0,7,22.69,32.24,63.72,59.68,44.88,30,90.21,47.88,124.38,49,50.71,1.71,60-6,61.68-9.38a4.13,4.13,0,0,0-.09-3.63c-8.93,1.33-50.62,6.68-68.6-6.15l2.91-4.07c18.08,12.91,66,5.11,66.5,5l1.38-.23.92,1.06a9.53,9.53,0,0,1,1.51,10.1C998.6,728.62,981.5,732.75,950.47,732.75Z"/><path class="cls-6" d="M1001.28,713.15l-4.15-2.78c1.62-2.42,40.33-59.35,83.8-64.9,12.73-1.63,22.25,1,28.27,7.81,7.93,9,7.54,22.77,6.51,30.53L1150.1,662l2.68,4.23-44.51,28.2,1.55-6.08c0-.21,5.17-21-4.38-31.78-4.85-5.49-12.89-7.55-23.88-6.15C1040.35,655.69,1001.66,712.58,1001.28,713.15Z"/><path class="cls-6" d="M927.2,405.9l4.37-50.75,10.92,12.06-1.94,21.26ZM935.57,367l-1.92,22.23,2.05-2.67,1.61-17.64Z"/><path class="cls-6" d="M946.84,379.46l-18.73-20.67,4.73-21.26,29.45,19.89Zm-13.28-22.11,12.78,14.11,8.94-12.74-19.16-12.94Z"/><path class="cls-6" d="M1140.45,673.43l8.49-139.58,5,.3L1146,664.4l255.71-149.31c1.7-8,12.79-53.63,47.23-75.44,18.08-11.44,39.47-14.21,63.61-8.24,35.14-35.82,72.61-76.59,73.93-82.78-.8-6.15-7.33-21.47-9.8-26.9l4.55-2.07c.38.83,9.29,20.5,10.24,28.54.24,2.1.7,6-38.14,47.75-18.84,20.24-38,39.79-38.22,40l-1,1-1.4-.37c-23.32-6.07-43.87-3.62-61.07,7.28-35.2,22.28-45.13,72.76-45.23,73.27l-.21,1.12Z"/><path class="cls-6" d="M1522.34,449.71l-1.3-3.19c-1.13-2.8-5.11-10.44-9.79-12.16a5.07,5.07,0,0,0-4.35.35l-2.32-4.43a10.15,10.15,0,0,1,8.4-.61c5.39,2,9.27,8.08,11.25,11.88,6-5.13,22-18.94,37.54-33.58,36.68-34.57,37-41.75,36.67-42.83-3-10.39-9-10.07-9.2-10.05l-.51-5c.42,0,10.34-1,14.52,13.65.81,2.83,2.7,9.44-38.06,47.86-19.65,18.52-40,35.7-40.22,35.87Z"/><path class="cls-6" d="M1461.52,438.48l-3.67-3.41c1.11-1.18,27.31-29,49.15-16.26,9.7,5.65,13.5,9.68,12.68,13.49-.6,2.81-3.65,4.11-6.08,4.37l-.53-5a5.07,5.07,0,0,0,1.66-.52c-.26-.66-1.75-3.11-10.25-8.05C1486.09,412.42,1461.76,438.22,1461.52,438.48Z"/><path class="cls-6" d="M1052.88,730.55h-.08c-19.47,0-37.56-11.17-47.22-29.06l4.4-2.38c8.79,16.28,25.2,26.41,42.83,26.44h.07a47.68,47.68,0,0,0,34.85-15.29,53.94,53.94,0,0,0,14.58-37.2,54.78,54.78,0,0,0-4.44-21.86l4.59-2a59.76,59.76,0,0,1,4.85,23.84,58.87,58.87,0,0,1-16,40.63A52.62,52.62,0,0,1,1052.88,730.55Z"/><path class="cls-6" d="M1456.51,516.16h-.07c-18.54,0-35.75-11.18-44.92-29.1l4.45-2.28c8.31,16.25,23.82,26.36,40.47,26.38h.07c25.75,0,46.72-23.53,46.77-52.48a57.48,57.48,0,0,0-4.23-21.91l4.63-1.89a62.64,62.64,0,0,1,4.6,23.8C1508.23,490.39,1485,516.16,1456.51,516.16Z"/></g></g></svg>