<svg xmlns="http://www.w3.org/2000/svg" viewBox="0 0 1640.56 976.03"><defs><style>.cls-1{fill:#992141;}.cls-2{font-size:109px;font-family:Quicksand-Regular, Quicksand;}.cls-2,.cls-3{fill:#ffce78;}.cls-4{fill:#80c1ab;}</style></defs><g id="Calque_2" data-name="Calque 2"><g id="Calque_1-2" data-name="Calque 1"><path class="cls-1" d="M3.82,821.58A3.46,3.46,0,0,1,1,820.38a4.69,4.69,0,0,1-1-3V815a4.4,4.4,0,0,1,1-3,3.62,3.62,0,0,1,2.84-1.09h.76A3.6,3.6,0,0,1,7.41,812a4.35,4.35,0,0,1,1,3v2.29a4.63,4.63,0,0,1-1,3,3.44,3.44,0,0,1-2.83,1.2Z"/><path class="cls-1" d="M23.54,821.58a3.46,3.46,0,0,1-2.83-1.2,4.69,4.69,0,0,1-1-3V815a4.4,4.4,0,0,1,1-3,3.61,3.61,0,0,1,2.83-1.09h.77A3.6,3.6,0,0,1,27.14,812a4.4,4.4,0,0,1,1,3v2.29a4.69,4.69,0,0,1-1,3,3.44,3.44,0,0,1-2.83,1.2Z"/><path class="cls-1" d="M43.27,821.58a3.44,3.44,0,0,1-2.83-1.2,4.69,4.69,0,0,1-1-3V815a4.4,4.4,0,0,1,1-3,3.6,3.6,0,0,1,2.83-1.09H44A3.6,3.6,0,0,1,46.87,812a4.4,4.4,0,0,1,1,3v2.29a4.69,4.69,0,0,1-1,3,3.44,3.44,0,0,1-2.83,1.2Z"/><path class="cls-1" d="M63,821.58a3.44,3.44,0,0,1-2.83-1.2,4.63,4.63,0,0,1-1-3V815a4.35,4.35,0,0,1,1-3A3.6,3.6,0,0,1,63,810.9h.77A3.6,3.6,0,0,1,66.6,812a4.4,4.4,0,0,1,1,3v2.29a4.69,4.69,0,0,1-1,3,3.44,3.44,0,0,1-2.83,1.2Z"/><path class="cls-1" d="M82.73,821.58a3.44,3.44,0,0,1-2.83-1.2,4.63,4.63,0,0,1-1-3V815a4.35,4.35,0,0,1,1-3,3.6,3.6,0,0,1,2.83-1.09h.76A3.62,3.62,0,0,1,86.33,812a4.4,4.4,0,0,1,1,3v2.29a4.69,4.69,0,0,1-1,3,3.46,3.46,0,0,1-2.84,1.2Z"/><path class="cls-1" d="M102.46,821.58a3.43,3.43,0,0,1-2.83-1.2,4.63,4.63,0,0,1-1-3V815a4.35,4.35,0,0,1,1-3,3.58,3.58,0,0,1,2.83-1.09h.76a3.62,3.62,0,0,1,2.84,1.09,4.4,4.4,0,0,1,1,3v2.29a4.69,4.69,0,0,1-1,3,3.46,3.46,0,0,1-2.84,1.2Z"/><path class="cls-1" d="M122.19,821.58a3.43,3.43,0,0,1-2.83-1.2,4.63,4.63,0,0,1-1-3V815a4.35,4.35,0,0,1,1-3,3.58,3.58,0,0,1,2.83-1.09H123a3.62,3.62,0,0,1,2.84,1.09,4.4,4.4,0,0,1,1,3v2.29a4.69,4.69,0,0,1-1,3,3.46,3.46,0,0,1-2.84,1.2Z"/><path class="cls-1" d="M141.92,821.58a3.46,3.46,0,0,1-2.84-1.2,4.69,4.69,0,0,1-1-3V815a4.4,4.4,0,0,1,1-3,3.62,3.62,0,0,1,2.84-1.09h.76a3.62,3.62,0,0,1,2.84,1.09,4.4,4.4,0,0,1,1,3v2.29a4.69,4.69,0,0,1-1,3,3.46,3.46,0,0,1-2.84,1.2Z"/><path class="cls-1" d="M161.65,821.58a3.46,3.46,0,0,1-2.84-1.2,4.69,4.69,0,0,1-1-3V815a4.4,4.4,0,0,1,1-3,3.62,3.62,0,0,1,2.84-1.09h.76a3.58,3.58,0,0,1,2.83,1.09,4.36,4.36,0,0,1,1,3v2.29a4.64,4.64,0,0,1-1,3,3.43,3.43,0,0,1-2.83,1.2Z"/><path class="cls-1" d="M181.38,821.58a3.46,3.46,0,0,1-2.84-1.2,4.69,4.69,0,0,1-1-3V815a4.4,4.4,0,0,1,1-3,3.62,3.62,0,0,1,2.84-1.09h.76A3.6,3.6,0,0,1,185,812a4.35,4.35,0,0,1,1,3v2.29a4.63,4.63,0,0,1-1,3,3.44,3.44,0,0,1-2.83,1.2Z"/><path class="cls-1" d="M201.11,821.58a3.46,3.46,0,0,1-2.84-1.2,4.69,4.69,0,0,1-1-3V815a4.4,4.4,0,0,1,1-3,3.62,3.62,0,0,1,2.84-1.09h.76A3.6,3.6,0,0,1,204.7,812a4.35,4.35,0,0,1,1,3v2.29a4.63,4.63,0,0,1-1,3,3.44,3.44,0,0,1-2.83,1.2Z"/><path class="cls-1" d="M3.82,849.58A3.46,3.46,0,0,1,1,848.38a4.69,4.69,0,0,1-1-3V843a4.4,4.4,0,0,1,1-3,3.62,3.62,0,0,1,2.84-1.09h.76A3.6,3.6,0,0,1,7.41,840a4.35,4.35,0,0,1,1,3v2.29a4.63,4.63,0,0,1-1,3,3.44,3.44,0,0,1-2.83,1.2Z"/><path class="cls-1" d="M23.54,849.58a3.46,3.46,0,0,1-2.83-1.2,4.69,4.69,0,0,1-1-3V843a4.4,4.4,0,0,1,1-3,3.61,3.61,0,0,1,2.83-1.09h.77A3.6,3.6,0,0,1,27.14,840a4.4,4.4,0,0,1,1,3v2.29a4.69,4.69,0,0,1-1,3,3.44,3.44,0,0,1-2.83,1.2Z"/><path class="cls-1" d="M43.27,849.58a3.44,3.44,0,0,1-2.83-1.2,4.69,4.69,0,0,1-1-3V843a4.4,4.4,0,0,1,1-3,3.6,3.6,0,0,1,2.83-1.09H44A3.6,3.6,0,0,1,46.87,840a4.4,4.4,0,0,1,1,3v2.29a4.69,4.69,0,0,1-1,3,3.44,3.44,0,0,1-2.83,1.2Z"/><path class="cls-1" d="M63,849.58a3.44,3.44,0,0,1-2.83-1.2,4.63,4.63,0,0,1-1-3V843a4.35,4.35,0,0,1,1-3A3.6,3.6,0,0,1,63,838.9h.77A3.6,3.6,0,0,1,66.6,840a4.4,4.4,0,0,1,1,3v2.29a4.69,4.69,0,0,1-1,3,3.44,3.44,0,0,1-2.83,1.2Z"/><path class="cls-1" d="M82.73,849.58a3.44,3.44,0,0,1-2.83-1.2,4.63,4.63,0,0,1-1-3V843a4.35,4.35,0,0,1,1-3,3.6,3.6,0,0,1,2.83-1.09h.76A3.62,3.62,0,0,1,86.33,840a4.4,4.4,0,0,1,1,3v2.29a4.69,4.69,0,0,1-1,3,3.46,3.46,0,0,1-2.84,1.2Z"/><path class="cls-1" d="M102.46,849.58a3.43,3.43,0,0,1-2.83-1.2,4.63,4.63,0,0,1-1-3V843a4.35,4.35,0,0,1,1-3,3.58,3.58,0,0,1,2.83-1.09h.76a3.62,3.62,0,0,1,2.84,1.09,4.4,4.4,0,0,1,1,3v2.29a4.69,4.69,0,0,1-1,3,3.46,3.46,0,0,1-2.84,1.2Z"/><path class="cls-1" d="M122.19,849.58a3.43,3.43,0,0,1-2.83-1.2,4.63,4.63,0,0,1-1-3V843a4.35,4.35,0,0,1,1-3,3.58,3.58,0,0,1,2.83-1.09H123a3.62,3.62,0,0,1,2.84,1.09,4.4,4.4,0,0,1,1,3v2.29a4.69,4.69,0,0,1-1,3,3.46,3.46,0,0,1-2.84,1.2Z"/><path class="cls-1" d="M141.92,849.58a3.46,3.46,0,0,1-2.84-1.2,4.69,4.69,0,0,1-1-3V843a4.4,4.4,0,0,1,1-3,3.62,3.62,0,0,1,2.84-1.09h.76a3.62,3.62,0,0,1,2.84,1.09,4.4,4.4,0,0,1,1,3v2.29a4.69,4.69,0,0,1-1,3,3.46,3.46,0,0,1-2.84,1.2Z"/><path class="cls-1" d="M161.65,849.58a3.46,3.46,0,0,1-2.84-1.2,4.69,4.69,0,0,1-1-3V843a4.4,4.4,0,0,1,1-3,3.62,3.62,0,0,1,2.84-1.09h.76a3.58,3.58,0,0,1,2.83,1.09,4.36,4.36,0,0,1,1,3v2.29a4.64,4.64,0,0,1-1,3,3.43,3.43,0,0,1-2.83,1.2Z"/><path class="cls-1" d="M181.38,849.58a3.46,3.46,0,0,1-2.84-1.2,4.69,4.69,0,0,1-1-3V843a4.4,4.4,0,0,1,1-3,3.62,3.62,0,0,1,2.84-1.09h.76A3.6,3.6,0,0,1,185,840a4.35,4.35,0,0,1,1,3v2.29a4.63,4.63,0,0,1-1,3,3.44,3.44,0,0,1-2.83,1.2Z"/><path class="cls-1" d="M201.11,849.58a3.46,3.46,0,0,1-2.84-1.2,4.69,4.69,0,0,1-1-3V843a4.4,4.4,0,0,1,1-3,3.62,3.62,0,0,1,2.84-1.09h.76A3.6,3.6,0,0,1,204.7,840a4.35,4.35,0,0,1,1,3v2.29a4.63,4.63,0,0,1-1,3,3.44,3.44,0,0,1-2.83,1.2Z"/><path class="cls-1" d="M3.82,877.58A3.46,3.46,0,0,1,1,876.38a4.69,4.69,0,0,1-1-3V871a4.4,4.4,0,0,1,1-3,3.62,3.62,0,0,1,2.84-1.09h.76A3.6,3.6,0,0,1,7.41,868a4.35,4.35,0,0,1,1,3v2.29a4.63,4.63,0,0,1-1,3,3.44,3.44,0,0,1-2.83,1.2Z"/><path class="cls-1" d="M23.54,877.58a3.46,3.46,0,0,1-2.83-1.2,4.69,4.69,0,0,1-1-3V871a4.4,4.4,0,0,1,1-3,3.61,3.61,0,0,1,2.83-1.09h.77A3.6,3.6,0,0,1,27.14,868a4.4,4.4,0,0,1,1,3v2.29a4.69,4.69,0,0,1-1,3,3.44,3.44,0,0,1-2.83,1.2Z"/><path class="cls-1" d="M43.27,877.58a3.44,3.44,0,0,1-2.83-1.2,4.69,4.69,0,0,1-1-3V871a4.4,4.4,0,0,1,1-3,3.6,3.6,0,0,1,2.83-1.09H44A3.6,3.6,0,0,1,46.87,868a4.4,4.4,0,0,1,1,3v2.29a4.69,4.69,0,0,1-1,3,3.44,3.44,0,0,1-2.83,1.2Z"/><path class="cls-1" d="M63,877.58a3.44,3.44,0,0,1-2.83-1.2,4.63,4.63,0,0,1-1-3V871a4.35,4.35,0,0,1,1-3A3.6,3.6,0,0,1,63,866.9h.77A3.6,3.6,0,0,1,66.6,868a4.4,4.4,0,0,1,1,3v2.29a4.69,4.69,0,0,1-1,3,3.44,3.44,0,0,1-2.83,1.2Z"/><path class="cls-1" d="M82.73,877.58a3.44,3.44,0,0,1-2.83-1.2,4.63,4.63,0,0,1-1-3V871a4.35,4.35,0,0,1,1-3,3.6,3.6,0,0,1,2.83-1.09h.76A3.62,3.62,0,0,1,86.33,868a4.4,4.4,0,0,1,1,3v2.29a4.69,4.69,0,0,1-1,3,3.46,3.46,0,0,1-2.84,1.2Z"/><path class="cls-1" d="M102.46,877.58a3.43,3.43,0,0,1-2.83-1.2,4.63,4.63,0,0,1-1-3V871a4.35,4.35,0,0,1,1-3,3.58,3.58,0,0,1,2.83-1.09h.76a3.62,3.62,0,0,1,2.84,1.09,4.4,4.4,0,0,1,1,3v2.29a4.69,4.69,0,0,1-1,3,3.46,3.46,0,0,1-2.84,1.2Z"/><path class="cls-1" d="M122.19,877.58a3.43,3.43,0,0,1-2.83-1.2,4.63,4.63,0,0,1-1-3V871a4.35,4.35,0,0,1,1-3,3.58,3.58,0,0,1,2.83-1.09H123a3.62,3.62,0,0,1,2.84,1.09,4.4,4.4,0,0,1,1,3v2.29a4.69,4.69,0,0,1-1,3,3.46,3.46,0,0,1-2.84,1.2Z"/><path class="cls-1" d="M141.92,877.58a3.46,3.46,0,0,1-2.84-1.2,4.69,4.69,0,0,1-1-3V871a4.4,4.4,0,0,1,1-3,3.62,3.62,0,0,1,2.84-1.09h.76a3.62,3.62,0,0,1,2.84,1.09,4.4,4.4,0,0,1,1,3v2.29a4.69,4.69,0,0,1-1,3,3.46,3.46,0,0,1-2.84,1.2Z"/><path class="cls-1" d="M161.65,877.58a3.46,3.46,0,0,1-2.84-1.2,4.69,4.69,0,0,1-1-3V871a4.4,4.4,0,0,1,1-3,3.62,3.62,0,0,1,2.84-1.09h.76a3.58,3.58,0,0,1,2.83,1.09,4.36,4.36,0,0,1,1,3v2.29a4.64,4.64,0,0,1-1,3,3.43,3.43,0,0,1-2.83,1.2Z"/><path class="cls-1" d="M181.38,877.58a3.46,3.46,0,0,1-2.84-1.2,4.69,4.69,0,0,1-1-3V871a4.4,4.4,0,0,1,1-3,3.62,3.62,0,0,1,2.84-1.09h.76A3.6,3.6,0,0,1,185,868a4.35,4.35,0,0,1,1,3v2.29a4.63,4.63,0,0,1-1,3,3.44,3.44,0,0,1-2.83,1.2Z"/><path class="cls-1" d="M201.11,877.58a3.46,3.46,0,0,1-2.84-1.2,4.69,4.69,0,0,1-1-3V871a4.4,4.4,0,0,1,1-3,3.62,3.62,0,0,1,2.84-1.09h.76A3.6,3.6,0,0,1,204.7,868a4.35,4.35,0,0,1,1,3v2.29a4.63,4.63,0,0,1-1,3,3.44,3.44,0,0,1-2.83,1.2Z"/><path class="cls-1" d="M3.82,905.58A3.46,3.46,0,0,1,1,904.38a4.69,4.69,0,0,1-1-3V899a4.4,4.4,0,0,1,1-3,3.62,3.62,0,0,1,2.84-1.09h.76A3.6,3.6,0,0,1,7.41,896a4.35,4.35,0,0,1,1,3v2.29a4.63,4.63,0,0,1-1,3,3.44,3.44,0,0,1-2.83,1.2Z"/><path class="cls-1" d="M23.54,905.58a3.46,3.46,0,0,1-2.83-1.2,4.69,4.69,0,0,1-1-3V899a4.4,4.4,0,0,1,1-3,3.61,3.61,0,0,1,2.83-1.09h.77A3.6,3.6,0,0,1,27.14,896a4.4,4.4,0,0,1,1,3v2.29a4.69,4.69,0,0,1-1,3,3.44,3.44,0,0,1-2.83,1.2Z"/><path class="cls-1" d="M43.27,905.58a3.44,3.44,0,0,1-2.83-1.2,4.69,4.69,0,0,1-1-3V899a4.4,4.4,0,0,1,1-3,3.6,3.6,0,0,1,2.83-1.09H44A3.6,3.6,0,0,1,46.87,896a4.4,4.4,0,0,1,1,3v2.29a4.69,4.69,0,0,1-1,3,3.44,3.44,0,0,1-2.83,1.2Z"/><path class="cls-1" d="M63,905.58a3.44,3.44,0,0,1-2.83-1.2,4.63,4.63,0,0,1-1-3V899a4.35,4.35,0,0,1,1-3A3.6,3.6,0,0,1,63,894.9h.77A3.6,3.6,0,0,1,66.6,896a4.4,4.4,0,0,1,1,3v2.29a4.69,4.69,0,0,1-1,3,3.44,3.44,0,0,1-2.83,1.2Z"/><path class="cls-1" d="M82.73,905.58a3.44,3.44,0,0,1-2.83-1.2,4.63,4.63,0,0,1-1-3V899a4.35,4.35,0,0,1,1-3,3.6,3.6,0,0,1,2.83-1.09h.76A3.62,3.62,0,0,1,86.33,896a4.4,4.4,0,0,1,1,3v2.29a4.69,4.69,0,0,1-1,3,3.46,3.46,0,0,1-2.84,1.2Z"/><path class="cls-1" d="M102.46,905.58a3.43,3.43,0,0,1-2.83-1.2,4.63,4.63,0,0,1-1-3V899a4.35,4.35,0,0,1,1-3,3.58,3.58,0,0,1,2.83-1.09h.76a3.62,3.62,0,0,1,2.84,1.09,4.4,4.4,0,0,1,1,3v2.29a4.69,4.69,0,0,1-1,3,3.46,3.46,0,0,1-2.84,1.2Z"/><path class="cls-1" d="M122.19,905.58a3.43,3.43,0,0,1-2.83-1.2,4.63,4.63,0,0,1-1-3V899a4.35,4.35,0,0,1,1-3,3.58,3.58,0,0,1,2.83-1.09H123a3.62,3.62,0,0,1,2.84,1.09,4.4,4.4,0,0,1,1,3v2.29a4.69,4.69,0,0,1-1,3,3.46,3.46,0,0,1-2.84,1.2Z"/><path class="cls-1" d="M141.92,905.58a3.46,3.46,0,0,1-2.84-1.2,4.69,4.69,0,0,1-1-3V899a4.4,4.4,0,0,1,1-3,3.62,3.62,0,0,1,2.84-1.09h.76a3.62,3.62,0,0,1,2.84,1.09,4.4,4.4,0,0,1,1,3v2.29a4.69,4.69,0,0,1-1,3,3.46,3.46,0,0,1-2.84,1.2Z"/><path class="cls-1" d="M161.65,905.58a3.46,3.46,0,0,1-2.84-1.2,4.69,4.69,0,0,1-1-3V899a4.4,4.4,0,0,1,1-3,3.62,3.62,0,0,1,2.84-1.09h.76a3.58,3.58,0,0,1,2.83,1.09,4.36,4.36,0,0,1,1,3v2.29a4.64,4.64,0,0,1-1,3,3.43,3.43,0,0,1-2.83,1.2Z"/><path class="cls-1" d="M181.38,905.58a3.46,3.46,0,0,1-2.84-1.2,4.69,4.69,0,0,1-1-3V899a4.4,4.4,0,0,1,1-3,3.62,3.62,0,0,1,2.84-1.09h.76A3.6,3.6,0,0,1,185,896a4.35,4.35,0,0,1,1,3v2.29a4.63,4.63,0,0,1-1,3,3.44,3.44,0,0,1-2.83,1.2Z"/><path class="cls-1" d="M201.11,905.58a3.46,3.46,0,0,1-2.84-1.2,4.69,4.69,0,0,1-1-3V899a4.4,4.4,0,0,1,1-3,3.62,3.62,0,0,1,2.84-1.09h.76A3.6,3.6,0,0,1,204.7,896a4.35,4.35,0,0,1,1,3v2.29a4.63,4.63,0,0,1-1,3,3.44,3.44,0,0,1-2.83,1.2Z"/><path class="cls-1" d="M3.82,933.58A3.46,3.46,0,0,1,1,932.38a4.69,4.69,0,0,1-1-3V927a4.4,4.4,0,0,1,1-3,3.62,3.62,0,0,1,2.84-1.09h.76A3.6,3.6,0,0,1,7.41,924a4.35,4.35,0,0,1,1,3v2.29a4.63,4.63,0,0,1-1,3,3.44,3.44,0,0,1-2.83,1.2Z"/><path class="cls-1" d="M23.54,933.58a3.46,3.46,0,0,1-2.83-1.2,4.69,4.69,0,0,1-1-3V927a4.4,4.4,0,0,1,1-3,3.61,3.61,0,0,1,2.83-1.09h.77A3.6,3.6,0,0,1,27.14,924a4.4,4.4,0,0,1,1,3v2.29a4.69,4.69,0,0,1-1,3,3.44,3.44,0,0,1-2.83,1.2Z"/><path class="cls-1" d="M43.27,933.58a3.44,3.44,0,0,1-2.83-1.2,4.69,4.69,0,0,1-1-3V927a4.4,4.4,0,0,1,1-3,3.6,3.6,0,0,1,2.83-1.09H44A3.6,3.6,0,0,1,46.87,924a4.4,4.4,0,0,1,1,3v2.29a4.69,4.69,0,0,1-1,3,3.44,3.44,0,0,1-2.83,1.2Z"/><path class="cls-1" d="M63,933.58a3.44,3.44,0,0,1-2.83-1.2,4.63,4.63,0,0,1-1-3V927a4.35,4.35,0,0,1,1-3A3.6,3.6,0,0,1,63,922.9h.77A3.6,3.6,0,0,1,66.6,924a4.4,4.4,0,0,1,1,3v2.29a4.69,4.69,0,0,1-1,3,3.44,3.44,0,0,1-2.83,1.2Z"/><path class="cls-1" d="M82.73,933.58a3.44,3.44,0,0,1-2.83-1.2,4.63,4.63,0,0,1-1-3V927a4.35,4.35,0,0,1,1-3,3.6,3.6,0,0,1,2.83-1.09h.76A3.62,3.62,0,0,1,86.33,924a4.4,4.4,0,0,1,1,3v2.29a4.69,4.69,0,0,1-1,3,3.46,3.46,0,0,1-2.84,1.2Z"/><path class="cls-1" d="M102.46,933.58a3.43,3.43,0,0,1-2.83-1.2,4.63,4.63,0,0,1-1-3V927a4.35,4.35,0,0,1,1-3,3.58,3.58,0,0,1,2.83-1.09h.76a3.62,3.62,0,0,1,2.84,1.09,4.4,4.4,0,0,1,1,3v2.29a4.69,4.69,0,0,1-1,3,3.46,3.46,0,0,1-2.84,1.2Z"/><path class="cls-1" d="M122.19,933.58a3.43,3.43,0,0,1-2.83-1.2,4.63,4.63,0,0,1-1-3V927a4.35,4.35,0,0,1,1-3,3.58,3.58,0,0,1,2.83-1.09H123a3.62,3.62,0,0,1,2.84,1.09,4.4,4.4,0,0,1,1,3v2.29a4.69,4.69,0,0,1-1,3,3.46,3.46,0,0,1-2.84,1.2Z"/><path class="cls-1" d="M141.92,933.58a3.46,3.46,0,0,1-2.84-1.2,4.69,4.69,0,0,1-1-3V927a4.4,4.4,0,0,1,1-3,3.62,3.62,0,0,1,2.84-1.09h.76a3.62,3.62,0,0,1,2.84,1.09,4.4,4.4,0,0,1,1,3v2.29a4.69,4.69,0,0,1-1,3,3.46,3.46,0,0,1-2.84,1.2Z"/><path class="cls-1" d="M161.65,933.58a3.46,3.46,0,0,1-2.84-1.2,4.69,4.69,0,0,1-1-3V927a4.4,4.4,0,0,1,1-3,3.62,3.62,0,0,1,2.84-1.09h.76a3.58,3.58,0,0,1,2.83,1.09,4.36,4.36,0,0,1,1,3v2.29a4.64,4.64,0,0,1-1,3,3.43,3.43,0,0,1-2.83,1.2Z"/><path class="cls-1" d="M181.38,933.58a3.46,3.46,0,0,1-2.84-1.2,4.69,4.69,0,0,1-1-3V927a4.4,4.4,0,0,1,1-3,3.62,3.62,0,0,1,2.84-1.09h.76A3.6,3.6,0,0,1,185,924a4.35,4.35,0,0,1,1,3v2.29a4.63,4.63,0,0,1-1,3,3.44,3.44,0,0,1-2.83,1.2Z"/><path class="cls-1" d="M201.11,933.58a3.46,3.46,0,0,1-2.84-1.2,4.69,4.69,0,0,1-1-3V927a4.4,4.4,0,0,1,1-3,3.62,3.62,0,0,1,2.84-1.09h.76A3.6,3.6,0,0,1,204.7,924a4.35,4.35,0,0,1,1,3v2.29a4.63,4.63,0,0,1-1,3,3.44,3.44,0,0,1-2.83,1.2Z"/><path class="cls-1" d="M3.82,961.58A3.46,3.46,0,0,1,1,960.38a4.69,4.69,0,0,1-1-3V955a4.4,4.4,0,0,1,1-3,3.62,3.62,0,0,1,2.84-1.09h.76A3.6,3.6,0,0,1,7.41,952a4.35,4.35,0,0,1,1,3v2.29a4.63,4.63,0,0,1-1,3,3.44,3.44,0,0,1-2.83,1.2Z"/><path class="cls-1" d="M23.54,961.58a3.46,3.46,0,0,1-2.83-1.2,4.69,4.69,0,0,1-1-3V955a4.4,4.4,0,0,1,1-3,3.61,3.61,0,0,1,2.83-1.09h.77A3.6,3.6,0,0,1,27.14,952a4.4,4.4,0,0,1,1,3v2.29a4.69,4.69,0,0,1-1,3,3.44,3.44,0,0,1-2.83,1.2Z"/><path class="cls-1" d="M43.27,961.58a3.44,3.44,0,0,1-2.83-1.2,4.69,4.69,0,0,1-1-3V955a4.4,4.4,0,0,1,1-3,3.6,3.6,0,0,1,2.83-1.09H44A3.6,3.6,0,0,1,46.87,952a4.4,4.4,0,0,1,1,3v2.29a4.69,4.69,0,0,1-1,3,3.44,3.44,0,0,1-2.83,1.2Z"/><path class="cls-1" d="M63,961.58a3.44,3.44,0,0,1-2.83-1.2,4.63,4.63,0,0,1-1-3V955a4.35,4.35,0,0,1,1-3A3.6,3.6,0,0,1,63,950.9h.77A3.6,3.6,0,0,1,66.6,952a4.4,4.4,0,0,1,1,3v2.29a4.69,4.69,0,0,1-1,3,3.44,3.44,0,0,1-2.83,1.2Z"/><path class="cls-1" d="M82.73,961.58a3.44,3.44,0,0,1-2.83-1.2,4.63,4.63,0,0,1-1-3V955a4.35,4.35,0,0,1,1-3,3.6,3.6,0,0,1,2.83-1.09h.76A3.62,3.62,0,0,1,86.33,952a4.4,4.4,0,0,1,1,3v2.29a4.69,4.69,0,0,1-1,3,3.46,3.46,0,0,1-2.84,1.2Z"/><path class="cls-1" d="M102.46,961.58a3.43,3.43,0,0,1-2.83-1.2,4.63,4.63,0,0,1-1-3V955a4.35,4.35,0,0,1,1-3,3.58,3.58,0,0,1,2.83-1.09h.76a3.62,3.62,0,0,1,2.84,1.09,4.4,4.4,0,0,1,1,3v2.29a4.69,4.69,0,0,1-1,3,3.46,3.46,0,0,1-2.84,1.2Z"/><path class="cls-1" d="M122.19,961.58a3.43,3.43,0,0,1-2.83-1.2,4.63,4.63,0,0,1-1-3V955a4.35,4.35,0,0,1,1-3,3.58,3.58,0,0,1,2.83-1.09H123a3.62,3.62,0,0,1,2.84,1.09,4.4,4.4,0,0,1,1,3v2.29a4.69,4.69,0,0,1-1,3,3.46,3.46,0,0,1-2.84,1.2Z"/><path class="cls-1" d="M141.92,961.58a3.46,3.46,0,0,1-2.84-1.2,4.69,4.69,0,0,1-1-3V955a4.4,4.4,0,0,1,1-3,3.62,3.62,0,0,1,2.84-1.09h.76a3.62,3.62,0,0,1,2.84,1.09,4.4,4.4,0,0,1,1,3v2.29a4.69,4.69,0,0,1-1,3,3.46,3.46,0,0,1-2.84,1.2Z"/><path class="cls-1" d="M161.65,961.58a3.46,3.46,0,0,1-2.84-1.2,4.69,4.69,0,0,1-1-3V955a4.4,4.4,0,0,1,1-3,3.62,3.62,0,0,1,2.84-1.09h.76a3.58,3.58,0,0,1,2.83,1.09,4.36,4.36,0,0,1,1,3v2.29a4.64,4.64,0,0,1-1,3,3.43,3.43,0,0,1-2.83,1.2Z"/><path class="cls-1" d="M181.38,961.58a3.46,3.46,0,0,1-2.84-1.2,4.69,4.69,0,0,1-1-3V955a4.4,4.4,0,0,1,1-3,3.62,3.62,0,0,1,2.84-1.09h.76A3.6,3.6,0,0,1,185,952a4.35,4.35,0,0,1,1,3v2.29a4.63,4.63,0,0,1-1,3,3.44,3.44,0,0,1-2.83,1.2Z"/><path class="cls-1" d="M201.11,961.58a3.46,3.46,0,0,1-2.84-1.2,4.69,4.69,0,0,1-1-3V955a4.4,4.4,0,0,1,1-3,3.62,3.62,0,0,1,2.84-1.09h.76A3.6,3.6,0,0,1,204.7,952a4.35,4.35,0,0,1,1,3v2.29a4.63,4.63,0,0,1-1,3,3.44,3.44,0,0,1-2.83,1.2Z"/><text class="cls-2" transform="translate(1304.68 743.85) rotate(90)">...........<tspan x="0" y="28">...........</tspan><tspan x="0" y="56">...........</tspan><tspan x="0" y="84">...........</tspan><tspan x="0" y="112">...........</tspan><tspan x="0" y="140">...........</tspan></text><path class="cls-1" d="M1438.7,224.16a3.46,3.46,0,0,1-2.84-1.2,4.69,4.69,0,0,1-1-3.05v-2.29a4.4,4.4,0,0,1,1-3.05,3.62,3.62,0,0,1,2.84-1.09h.76a3.6,3.6,0,0,1,2.83,1.09,4.35,4.35,0,0,1,1,3.05v2.29a4.63,4.63,0,0,1-1,3.05,3.44,3.44,0,0,1-2.83,1.2Z"/><path class="cls-1" d="M1458.42,224.16a3.46,3.46,0,0,1-2.83-1.2,4.69,4.69,0,0,1-1-3.05v-2.29a4.4,4.4,0,0,1,1-3.05,3.61,3.61,0,0,1,2.83-1.09h.77a3.6,3.6,0,0,1,2.83,1.09,4.35,4.35,0,0,1,1,3.05v2.29a4.63,4.63,0,0,1-1,3.05,3.44,3.44,0,0,1-2.83,1.2Z"/><path class="cls-1" d="M1478.15,224.16a3.44,3.44,0,0,1-2.83-1.2,4.69,4.69,0,0,1-1-3.05v-2.29a4.4,4.4,0,0,1,1-3.05,3.6,3.6,0,0,1,2.83-1.09h.77a3.6,3.6,0,0,1,2.83,1.09,4.4,4.4,0,0,1,1,3.05v2.29a4.69,4.69,0,0,1-1,3.05,3.44,3.44,0,0,1-2.83,1.2Z"/><path class="cls-1" d="M1497.88,224.16a3.44,3.44,0,0,1-2.83-1.2,4.63,4.63,0,0,1-1-3.05v-2.29a4.35,4.35,0,0,1,1-3.05,3.6,3.6,0,0,1,2.83-1.09h.77a3.6,3.6,0,0,1,2.83,1.09,4.4,4.4,0,0,1,1,3.05v2.29a4.69,4.69,0,0,1-1,3.05,3.44,3.44,0,0,1-2.83,1.2Z"/><path class="cls-1" d="M1517.61,224.16a3.44,3.44,0,0,1-2.83-1.2,4.63,4.63,0,0,1-1-3.05v-2.29a4.35,4.35,0,0,1,1-3.05,3.6,3.6,0,0,1,2.83-1.09h.77a3.61,3.61,0,0,1,2.83,1.09,4.4,4.4,0,0,1,1,3.05v2.29a4.69,4.69,0,0,1-1,3.05,3.46,3.46,0,0,1-2.83,1.2Z"/><path class="cls-1" d="M1537.34,224.16a3.43,3.43,0,0,1-2.83-1.2,4.63,4.63,0,0,1-1-3.05v-2.29a4.35,4.35,0,0,1,1-3.05,3.58,3.58,0,0,1,2.83-1.09h.76a3.62,3.62,0,0,1,2.84,1.09,4.4,4.4,0,0,1,1,3.05v2.29a4.69,4.69,0,0,1-1,3.05,3.46,3.46,0,0,1-2.84,1.2Z"/><path class="cls-1" d="M1557.07,224.16a3.43,3.43,0,0,1-2.83-1.2,4.64,4.64,0,0,1-1-3.05v-2.29a4.36,4.36,0,0,1,1-3.05,3.58,3.58,0,0,1,2.83-1.09h.76a3.62,3.62,0,0,1,2.84,1.09,4.4,4.4,0,0,1,1,3.05v2.29a4.69,4.69,0,0,1-1,3.05,3.46,3.46,0,0,1-2.84,1.2Z"/><path class="cls-1" d="M1576.8,224.16A3.46,3.46,0,0,1,1574,223a4.69,4.69,0,0,1-1-3.05v-2.29a4.4,4.4,0,0,1,1-3.05,3.62,3.62,0,0,1,2.84-1.09h.76a3.62,3.62,0,0,1,2.84,1.09,4.4,4.4,0,0,1,1,3.05v2.29a4.69,4.69,0,0,1-1,3.05,3.46,3.46,0,0,1-2.84,1.2Z"/><path class="cls-1" d="M1596.53,224.16a3.46,3.46,0,0,1-2.84-1.2,4.69,4.69,0,0,1-1-3.05v-2.29a4.4,4.4,0,0,1,1-3.05,3.62,3.62,0,0,1,2.84-1.09h.76a3.58,3.58,0,0,1,2.83,1.09,4.36,4.36,0,0,1,1,3.05v2.29a4.64,4.64,0,0,1-1,3.05,3.43,3.43,0,0,1-2.83,1.2Z"/><path class="cls-1" d="M1616.26,224.16a3.46,3.46,0,0,1-2.84-1.2,4.69,4.69,0,0,1-1-3.05v-2.29a4.4,4.4,0,0,1,1-3.05,3.62,3.62,0,0,1,2.84-1.09h.76a3.6,3.6,0,0,1,2.83,1.09,4.35,4.35,0,0,1,1,3.05v2.29a4.63,4.63,0,0,1-1,3.05,3.44,3.44,0,0,1-2.83,1.2Z"/><path class="cls-1" d="M1636,224.16a3.46,3.46,0,0,1-2.84-1.2,4.69,4.69,0,0,1-1-3.05v-2.29a4.4,4.4,0,0,1,1-3.05,3.62,3.62,0,0,1,2.84-1.09h.76a3.6,3.6,0,0,1,2.83,1.09,4.35,4.35,0,0,1,1,3.05v2.29a4.63,4.63,0,0,1-1,3.05,3.44,3.44,0,0,1-2.83,1.2Z"/><path class="cls-1" d="M1438.7,252.16a3.46,3.46,0,0,1-2.84-1.2,4.69,4.69,0,0,1-1-3.05v-2.29a4.4,4.4,0,0,1,1-3.05,3.62,3.62,0,0,1,2.84-1.09h.76a3.6,3.6,0,0,1,2.83,1.09,4.35,4.35,0,0,1,1,3.05v2.29a4.63,4.63,0,0,1-1,3.05,3.44,3.44,0,0,1-2.83,1.2Z"/><path class="cls-1" d="M1458.42,252.16a3.46,3.46,0,0,1-2.83-1.2,4.69,4.69,0,0,1-1-3.05v-2.29a4.4,4.4,0,0,1,1-3.05,3.61,3.61,0,0,1,2.83-1.09h.77a3.6,3.6,0,0,1,2.83,1.09,4.35,4.35,0,0,1,1,3.05v2.29a4.63,4.63,0,0,1-1,3.05,3.44,3.44,0,0,1-2.83,1.2Z"/><path class="cls-1" d="M1478.15,252.16a3.44,3.44,0,0,1-2.83-1.2,4.69,4.69,0,0,1-1-3.05v-2.29a4.4,4.4,0,0,1,1-3.05,3.6,3.6,0,0,1,2.83-1.09h.77a3.6,3.6,0,0,1,2.83,1.09,4.4,4.4,0,0,1,1,3.05v2.29a4.69,4.69,0,0,1-1,3.05,3.44,3.44,0,0,1-2.83,1.2Z"/><path class="cls-1" d="M1497.88,252.16a3.44,3.44,0,0,1-2.83-1.2,4.63,4.63,0,0,1-1-3.05v-2.29a4.35,4.35,0,0,1,1-3.05,3.6,3.6,0,0,1,2.83-1.09h.77a3.6,3.6,0,0,1,2.83,1.09,4.4,4.4,0,0,1,1,3.05v2.29a4.69,4.69,0,0,1-1,3.05,3.44,3.44,0,0,1-2.83,1.2Z"/><path class="cls-1" d="M1517.61,252.16a3.44,3.44,0,0,1-2.83-1.2,4.63,4.63,0,0,1-1-3.05v-2.29a4.35,4.35,0,0,1,1-3.05,3.6,3.6,0,0,1,2.83-1.09h.77a3.61,3.61,0,0,1,2.83,1.09,4.4,4.4,0,0,1,1,3.05v2.29a4.69,4.69,0,0,1-1,3.05,3.46,3.46,0,0,1-2.83,1.2Z"/><path class="cls-1" d="M1537.34,252.16a3.43,3.43,0,0,1-2.83-1.2,4.63,4.63,0,0,1-1-3.05v-2.29a4.35,4.35,0,0,1,1-3.05,3.58,3.58,0,0,1,2.83-1.09h.76a3.62,3.62,0,0,1,2.84,1.09,4.4,4.4,0,0,1,1,3.05v2.29a4.69,4.69,0,0,1-1,3.05,3.46,3.46,0,0,1-2.84,1.2Z"/><path class="cls-1" d="M1557.07,252.16a3.43,3.43,0,0,1-2.83-1.2,4.64,4.64,0,0,1-1-3.05v-2.29a4.36,4.36,0,0,1,1-3.05,3.58,3.58,0,0,1,2.83-1.09h.76a3.62,3.62,0,0,1,2.84,1.09,4.4,4.4,0,0,1,1,3.05v2.29a4.69,4.69,0,0,1-1,3.05,3.46,3.46,0,0,1-2.84,1.2Z"/><path class="cls-1" d="M1576.8,252.16A3.46,3.46,0,0,1,1574,251a4.69,4.69,0,0,1-1-3.05v-2.29a4.4,4.4,0,0,1,1-3.05,3.62,3.62,0,0,1,2.84-1.09h.76a3.62,3.62,0,0,1,2.84,1.09,4.4,4.4,0,0,1,1,3.05v2.29a4.69,4.69,0,0,1-1,3.05,3.46,3.46,0,0,1-2.84,1.2Z"/><path class="cls-1" d="M1596.53,252.16a3.46,3.46,0,0,1-2.84-1.2,4.69,4.69,0,0,1-1-3.05v-2.29a4.4,4.4,0,0,1,1-3.05,3.62,3.62,0,0,1,2.84-1.09h.76a3.58,3.58,0,0,1,2.83,1.09,4.36,4.36,0,0,1,1,3.05v2.29a4.64,4.64,0,0,1-1,3.05,3.43,3.43,0,0,1-2.83,1.2Z"/><path class="cls-1" d="M1616.26,252.16a3.46,3.46,0,0,1-2.84-1.2,4.69,4.69,0,0,1-1-3.05v-2.29a4.4,4.4,0,0,1,1-3.05,3.62,3.62,0,0,1,2.84-1.09h.76a3.6,3.6,0,0,1,2.83,1.09,4.35,4.35,0,0,1,1,3.05v2.29a4.63,4.63,0,0,1-1,3.05,3.44,3.44,0,0,1-2.83,1.2Z"/><path class="cls-1" d="M1636,252.16a3.46,3.46,0,0,1-2.84-1.2,4.69,4.69,0,0,1-1-3.05v-2.29a4.4,4.4,0,0,1,1-3.05,3.62,3.62,0,0,1,2.84-1.09h.76a3.6,3.6,0,0,1,2.83,1.09,4.35,4.35,0,0,1,1,3.05v2.29a4.63,4.63,0,0,1-1,3.05,3.44,3.44,0,0,1-2.83,1.2Z"/><path class="cls-1" d="M1438.7,280.16a3.46,3.46,0,0,1-2.84-1.2,4.69,4.69,0,0,1-1-3v-2.29a4.4,4.4,0,0,1,1-3.05,3.62,3.62,0,0,1,2.84-1.09h.76a3.6,3.6,0,0,1,2.83,1.09,4.35,4.35,0,0,1,1,3.05v2.29a4.63,4.63,0,0,1-1,3,3.44,3.44,0,0,1-2.83,1.2Z"/><path class="cls-1" d="M1458.42,280.16a3.46,3.46,0,0,1-2.83-1.2,4.69,4.69,0,0,1-1-3v-2.29a4.4,4.4,0,0,1,1-3.05,3.61,3.61,0,0,1,2.83-1.09h.77a3.6,3.6,0,0,1,2.83,1.09,4.35,4.35,0,0,1,1,3.05v2.29a4.63,4.63,0,0,1-1,3,3.44,3.44,0,0,1-2.83,1.2Z"/><path class="cls-1" d="M1478.15,280.16a3.44,3.44,0,0,1-2.83-1.2,4.69,4.69,0,0,1-1-3v-2.29a4.4,4.4,0,0,1,1-3.05,3.6,3.6,0,0,1,2.83-1.09h.77a3.6,3.6,0,0,1,2.83,1.09,4.4,4.4,0,0,1,1,3.05v2.29a4.69,4.69,0,0,1-1,3,3.44,3.44,0,0,1-2.83,1.2Z"/><path class="cls-1" d="M1497.88,280.16a3.44,3.44,0,0,1-2.83-1.2,4.63,4.63,0,0,1-1-3v-2.29a4.35,4.35,0,0,1,1-3.05,3.6,3.6,0,0,1,2.83-1.09h.77a3.6,3.6,0,0,1,2.83,1.09,4.4,4.4,0,0,1,1,3.05v2.29a4.69,4.69,0,0,1-1,3,3.44,3.44,0,0,1-2.83,1.2Z"/><path class="cls-1" d="M1517.61,280.16a3.44,3.44,0,0,1-2.83-1.2,4.63,4.63,0,0,1-1-3v-2.29a4.35,4.35,0,0,1,1-3.05,3.6,3.6,0,0,1,2.83-1.09h.77a3.61,3.61,0,0,1,2.83,1.09,4.4,4.4,0,0,1,1,3.05v2.29a4.69,4.69,0,0,1-1,3,3.46,3.46,0,0,1-2.83,1.2Z"/><path class="cls-1" d="M1537.34,280.16a3.43,3.43,0,0,1-2.83-1.2,4.63,4.63,0,0,1-1-3v-2.29a4.35,4.35,0,0,1,1-3.05,3.58,3.58,0,0,1,2.83-1.09h.76a3.62,3.62,0,0,1,2.84,1.09,4.4,4.4,0,0,1,1,3.05v2.29a4.69,4.69,0,0,1-1,3,3.46,3.46,0,0,1-2.84,1.2Z"/><path class="cls-1" d="M1557.07,280.16a3.43,3.43,0,0,1-2.83-1.2,4.64,4.64,0,0,1-1-3v-2.29a4.36,4.36,0,0,1,1-3.05,3.58,3.58,0,0,1,2.83-1.09h.76a3.62,3.62,0,0,1,2.84,1.09,4.4,4.4,0,0,1,1,3.05v2.29a4.69,4.69,0,0,1-1,3,3.46,3.46,0,0,1-2.84,1.2Z"/><path class="cls-1" d="M1576.8,280.16A3.46,3.46,0,0,1,1574,279a4.69,4.69,0,0,1-1-3v-2.29a4.4,4.4,0,0,1,1-3.05,3.62,3.62,0,0,1,2.84-1.09h.76a3.62,3.62,0,0,1,2.84,1.09,4.4,4.4,0,0,1,1,3.05v2.29a4.69,4.69,0,0,1-1,3,3.46,3.46,0,0,1-2.84,1.2Z"/><path class="cls-1" d="M1596.53,280.16a3.46,3.46,0,0,1-2.84-1.2,4.69,4.69,0,0,1-1-3v-2.29a4.4,4.4,0,0,1,1-3.05,3.62,3.62,0,0,1,2.84-1.09h.76a3.58,3.58,0,0,1,2.83,1.09,4.36,4.36,0,0,1,1,3.05v2.29a4.64,4.64,0,0,1-1,3,3.43,3.43,0,0,1-2.83,1.2Z"/><path class="cls-1" d="M1616.26,280.16a3.46,3.46,0,0,1-2.84-1.2,4.69,4.69,0,0,1-1-3v-2.29a4.4,4.4,0,0,1,1-3.05,3.62,3.62,0,0,1,2.84-1.09h.76a3.6,3.6,0,0,1,2.83,1.09,4.35,4.35,0,0,1,1,3.05v2.29a4.63,4.63,0,0,1-1,3,3.44,3.44,0,0,1-2.83,1.2Z"/><path class="cls-1" d="M1636,280.16a3.46,3.46,0,0,1-2.84-1.2,4.69,4.69,0,0,1-1-3v-2.29a4.4,4.4,0,0,1,1-3.05,3.62,3.62,0,0,1,2.84-1.09h.76a3.6,3.6,0,0,1,2.83,1.09,4.35,4.35,0,0,1,1,3.05v2.29a4.63,4.63,0,0,1-1,3,3.44,3.44,0,0,1-2.83,1.2Z"/><path class="cls-1" d="M1438.7,308.16a3.46,3.46,0,0,1-2.84-1.2,4.69,4.69,0,0,1-1-3v-2.29a4.4,4.4,0,0,1,1-3.05,3.62,3.62,0,0,1,2.84-1.09h.76a3.6,3.6,0,0,1,2.83,1.09,4.35,4.35,0,0,1,1,3.05v2.29a4.63,4.63,0,0,1-1,3,3.44,3.44,0,0,1-2.83,1.2Z"/><path class="cls-1" d="M1458.42,308.16a3.46,3.46,0,0,1-2.83-1.2,4.69,4.69,0,0,1-1-3v-2.29a4.4,4.4,0,0,1,1-3.05,3.61,3.61,0,0,1,2.83-1.09h.77a3.6,3.6,0,0,1,2.83,1.09,4.35,4.35,0,0,1,1,3.05v2.29a4.63,4.63,0,0,1-1,3,3.44,3.44,0,0,1-2.83,1.2Z"/><path class="cls-1" d="M1478.15,308.16a3.44,3.44,0,0,1-2.83-1.2,4.69,4.69,0,0,1-1-3v-2.29a4.4,4.4,0,0,1,1-3.05,3.6,3.6,0,0,1,2.83-1.09h.77a3.6,3.6,0,0,1,2.83,1.09,4.4,4.4,0,0,1,1,3.05v2.29a4.69,4.69,0,0,1-1,3,3.44,3.44,0,0,1-2.83,1.2Z"/><path class="cls-1" d="M1497.88,308.16a3.44,3.44,0,0,1-2.83-1.2,4.63,4.63,0,0,1-1-3v-2.29a4.35,4.35,0,0,1,1-3.05,3.6,3.6,0,0,1,2.83-1.09h.77a3.6,3.6,0,0,1,2.83,1.09,4.4,4.4,0,0,1,1,3.05v2.29a4.69,4.69,0,0,1-1,3,3.44,3.44,0,0,1-2.83,1.2Z"/><path class="cls-1" d="M1517.61,308.16a3.44,3.44,0,0,1-2.83-1.2,4.63,4.63,0,0,1-1-3v-2.29a4.35,4.35,0,0,1,1-3.05,3.6,3.6,0,0,1,2.83-1.09h.77a3.61,3.61,0,0,1,2.83,1.09,4.4,4.4,0,0,1,1,3.05v2.29a4.69,4.69,0,0,1-1,3,3.46,3.46,0,0,1-2.83,1.2Z"/><path class="cls-1" d="M1537.34,308.16a3.43,3.43,0,0,1-2.83-1.2,4.63,4.63,0,0,1-1-3v-2.29a4.35,4.35,0,0,1,1-3.05,3.58,3.58,0,0,1,2.83-1.09h.76a3.62,3.62,0,0,1,2.84,1.09,4.4,4.4,0,0,1,1,3.05v2.29a4.69,4.69,0,0,1-1,3,3.46,3.46,0,0,1-2.84,1.2Z"/><path class="cls-1" d="M1557.07,308.16a3.43,3.43,0,0,1-2.83-1.2,4.64,4.64,0,0,1-1-3v-2.29a4.36,4.36,0,0,1,1-3.05,3.58,3.58,0,0,1,2.83-1.09h.76a3.62,3.62,0,0,1,2.84,1.09,4.4,4.4,0,0,1,1,3.05v2.29a4.69,4.69,0,0,1-1,3,3.46,3.46,0,0,1-2.84,1.2Z"/><path class="cls-1" d="M1576.8,308.16A3.46,3.46,0,0,1,1574,307a4.69,4.69,0,0,1-1-3v-2.29a4.4,4.4,0,0,1,1-3.05,3.62,3.62,0,0,1,2.84-1.09h.76a3.62,3.62,0,0,1,2.84,1.09,4.4,4.4,0,0,1,1,3.05v2.29a4.69,4.69,0,0,1-1,3,3.46,3.46,0,0,1-2.84,1.2Z"/><path class="cls-1" d="M1596.53,308.16a3.46,3.46,0,0,1-2.84-1.2,4.69,4.69,0,0,1-1-3v-2.29a4.4,4.4,0,0,1,1-3.05,3.62,3.62,0,0,1,2.84-1.09h.76a3.58,3.58,0,0,1,2.83,1.09,4.36,4.36,0,0,1,1,3.05v2.29a4.64,4.64,0,0,1-1,3,3.43,3.43,0,0,1-2.83,1.2Z"/><path class="cls-1" d="M1616.26,308.16a3.46,3.46,0,0,1-2.84-1.2,4.69,4.69,0,0,1-1-3v-2.29a4.4,4.4,0,0,1,1-3.05,3.62,3.62,0,0,1,2.84-1.09h.76a3.6,3.6,0,0,1,2.83,1.09,4.35,4.35,0,0,1,1,3.05v2.29a4.63,4.63,0,0,1-1,3,3.44,3.44,0,0,1-2.83,1.2Z"/><path class="cls-1" d="M1636,308.16a3.46,3.46,0,0,1-2.84-1.2,4.69,4.69,0,0,1-1-3v-2.29a4.4,4.4,0,0,1,1-3.05,3.62,3.62,0,0,1,2.84-1.09h.76a3.6,3.6,0,0,1,2.83,1.09,4.35,4.35,0,0,1,1,3.05v2.29a4.63,4.63,0,0,1-1,3,3.44,3.44,0,0,1-2.83,1.2Z"/><path class="cls-1" d="M1438.7,336.16a3.46,3.46,0,0,1-2.84-1.2,4.69,4.69,0,0,1-1-3v-2.29a4.4,4.4,0,0,1,1-3.05,3.62,3.62,0,0,1,2.84-1.09h.76a3.6,3.6,0,0,1,2.83,1.09,4.35,4.35,0,0,1,1,3.05v2.29a4.63,4.63,0,0,1-1,3,3.44,3.44,0,0,1-2.83,1.2Z"/><path class="cls-1" d="M1458.42,336.16a3.46,3.46,0,0,1-2.83-1.2,4.69,4.69,0,0,1-1-3v-2.29a4.4,4.4,0,0,1,1-3.05,3.61,3.61,0,0,1,2.83-1.09h.77a3.6,3.6,0,0,1,2.83,1.09,4.35,4.35,0,0,1,1,3.05v2.29a4.63,4.63,0,0,1-1,3,3.44,3.44,0,0,1-2.83,1.2Z"/><path class="cls-1" d="M1478.15,336.16a3.44,3.44,0,0,1-2.83-1.2,4.69,4.69,0,0,1-1-3v-2.29a4.4,4.4,0,0,1,1-3.05,3.6,3.6,0,0,1,2.83-1.09h.77a3.6,3.6,0,0,1,2.83,1.09,4.4,4.4,0,0,1,1,3.05v2.29a4.69,4.69,0,0,1-1,3,3.44,3.44,0,0,1-2.83,1.2Z"/><path class="cls-1" d="M1497.88,336.16a3.44,3.44,0,0,1-2.83-1.2,4.63,4.63,0,0,1-1-3v-2.29a4.35,4.35,0,0,1,1-3.05,3.6,3.6,0,0,1,2.83-1.09h.77a3.6,3.6,0,0,1,2.83,1.09,4.4,4.4,0,0,1,1,3.05v2.29a4.69,4.69,0,0,1-1,3,3.44,3.44,0,0,1-2.83,1.2Z"/><path class="cls-1" d="M1517.61,336.16a3.44,3.44,0,0,1-2.83-1.2,4.63,4.63,0,0,1-1-3v-2.29a4.35,4.35,0,0,1,1-3.05,3.6,3.6,0,0,1,2.83-1.09h.77a3.61,3.61,0,0,1,2.83,1.09,4.4,4.4,0,0,1,1,3.05v2.29a4.69,4.69,0,0,1-1,3,3.46,3.46,0,0,1-2.83,1.2Z"/><path class="cls-1" d="M1537.34,336.16a3.43,3.43,0,0,1-2.83-1.2,4.63,4.63,0,0,1-1-3v-2.29a4.35,4.35,0,0,1,1-3.05,3.58,3.58,0,0,1,2.83-1.09h.76a3.62,3.62,0,0,1,2.84,1.09,4.4,4.4,0,0,1,1,3.05v2.29a4.69,4.69,0,0,1-1,3,3.46,3.46,0,0,1-2.84,1.2Z"/><path class="cls-1" d="M1557.07,336.16a3.43,3.43,0,0,1-2.83-1.2,4.64,4.64,0,0,1-1-3v-2.29a4.36,4.36,0,0,1,1-3.05,3.58,3.58,0,0,1,2.83-1.09h.76a3.62,3.62,0,0,1,2.84,1.09,4.4,4.4,0,0,1,1,3.05v2.29a4.69,4.69,0,0,1-1,3,3.46,3.46,0,0,1-2.84,1.2Z"/><path class="cls-1" d="M1576.8,336.16A3.46,3.46,0,0,1,1574,335a4.69,4.69,0,0,1-1-3v-2.29a4.4,4.4,0,0,1,1-3.05,3.62,3.62,0,0,1,2.84-1.09h.76a3.62,3.62,0,0,1,2.84,1.09,4.4,4.4,0,0,1,1,3.05v2.29a4.69,4.69,0,0,1-1,3,3.46,3.46,0,0,1-2.84,1.2Z"/><path class="cls-1" d="M1596.53,336.16a3.46,3.46,0,0,1-2.84-1.2,4.69,4.69,0,0,1-1-3v-2.29a4.4,4.4,0,0,1,1-3.05,3.62,3.62,0,0,1,2.84-1.09h.76a3.58,3.58,0,0,1,2.83,1.09,4.36,4.36,0,0,1,1,3.05v2.29a4.64,4.64,0,0,1-1,3,3.43,3.43,0,0,1-2.83,1.2Z"/><path class="cls-1" d="M1616.26,336.16a3.46,3.46,0,0,1-2.84-1.2,4.69,4.69,0,0,1-1-3v-2.29a4.4,4.4,0,0,1,1-3.05,3.62,3.62,0,0,1,2.84-1.09h.76a3.6,3.6,0,0,1,2.83,1.09,4.35,4.35,0,0,1,1,3.05v2.29a4.63,4.63,0,0,1-1,3,3.44,3.44,0,0,1-2.83,1.2Z"/><path class="cls-1" d="M1636,336.16a3.46,3.46,0,0,1-2.84-1.2,4.69,4.69,0,0,1-1-3v-2.29a4.4,4.4,0,0,1,1-3.05,3.62,3.62,0,0,1,2.84-1.09h.76a3.6,3.6,0,0,1,2.83,1.09,4.35,4.35,0,0,1,1,3.05v2.29a4.63,4.63,0,0,1-1,3,3.44,3.44,0,0,1-2.83,1.2Z"/><path class="cls-1" d="M1438.7,364.16a3.46,3.46,0,0,1-2.84-1.2,4.69,4.69,0,0,1-1-3v-2.29a4.4,4.4,0,0,1,1-3.05,3.62,3.62,0,0,1,2.84-1.09h.76a3.6,3.6,0,0,1,2.83,1.09,4.35,4.35,0,0,1,1,3.05v2.29a4.63,4.63,0,0,1-1,3,3.44,3.44,0,0,1-2.83,1.2Z"/><path class="cls-1" d="M1458.42,364.16a3.46,3.46,0,0,1-2.83-1.2,4.69,4.69,0,0,1-1-3v-2.29a4.4,4.4,0,0,1,1-3.05,3.61,3.61,0,0,1,2.83-1.09h.77a3.6,3.6,0,0,1,2.83,1.09,4.35,4.35,0,0,1,1,3.05v2.29a4.63,4.63,0,0,1-1,3,3.44,3.44,0,0,1-2.83,1.2Z"/><path class="cls-1" d="M1478.15,364.16a3.44,3.44,0,0,1-2.83-1.2,4.69,4.69,0,0,1-1-3v-2.29a4.4,4.4,0,0,1,1-3.05,3.6,3.6,0,0,1,2.83-1.09h.77a3.6,3.6,0,0,1,2.83,1.09,4.4,4.4,0,0,1,1,3.05v2.29a4.69,4.69,0,0,1-1,3,3.44,3.44,0,0,1-2.83,1.2Z"/><path class="cls-1" d="M1497.88,364.16a3.44,3.44,0,0,1-2.83-1.2,4.63,4.63,0,0,1-1-3v-2.29a4.35,4.35,0,0,1,1-3.05,3.6,3.6,0,0,1,2.83-1.09h.77a3.6,3.6,0,0,1,2.83,1.09,4.4,4.4,0,0,1,1,3.05v2.29a4.69,4.69,0,0,1-1,3,3.44,3.44,0,0,1-2.83,1.2Z"/><path class="cls-1" d="M1517.61,364.16a3.44,3.44,0,0,1-2.83-1.2,4.63,4.63,0,0,1-1-3v-2.29a4.35,4.35,0,0,1,1-3.05,3.6,3.6,0,0,1,2.83-1.09h.77a3.61,3.61,0,0,1,2.83,1.09,4.4,4.4,0,0,1,1,3.05v2.29a4.69,4.69,0,0,1-1,3,3.46,3.46,0,0,1-2.83,1.2Z"/><path class="cls-1" d="M1537.34,364.16a3.43,3.43,0,0,1-2.83-1.2,4.63,4.63,0,0,1-1-3v-2.29a4.35,4.35,0,0,1,1-3.05,3.58,3.58,0,0,1,2.83-1.09h.76a3.62,3.62,0,0,1,2.84,1.09,4.4,4.4,0,0,1,1,3.05v2.29a4.69,4.69,0,0,1-1,3,3.46,3.46,0,0,1-2.84,1.2Z"/><path class="cls-1" d="M1557.07,364.16a3.43,3.43,0,0,1-2.83-1.2,4.64,4.64,0,0,1-1-3v-2.29a4.36,4.36,0,0,1,1-3.05,3.58,3.58,0,0,1,2.83-1.09h.76a3.62,3.62,0,0,1,2.84,1.09,4.4,4.4,0,0,1,1,3.05v2.29a4.69,4.69,0,0,1-1,3,3.46,3.46,0,0,1-2.84,1.2Z"/><path class="cls-1" d="M1576.8,364.16A3.46,3.46,0,0,1,1574,363a4.69,4.69,0,0,1-1-3v-2.29a4.4,4.4,0,0,1,1-3.05,3.62,3.62,0,0,1,2.84-1.09h.76a3.62,3.62,0,0,1,2.84,1.09,4.4,4.4,0,0,1,1,3.05v2.29a4.69,4.69,0,0,1-1,3,3.46,3.46,0,0,1-2.84,1.2Z"/><path class="cls-1" d="M1596.53,364.16a3.46,3.46,0,0,1-2.84-1.2,4.69,4.69,0,0,1-1-3v-2.29a4.4,4.4,0,0,1,1-3.05,3.62,3.62,0,0,1,2.84-1.09h.76a3.58,3.58,0,0,1,2.83,1.09,4.36,4.36,0,0,1,1,3.05v2.29a4.64,4.64,0,0,1-1,3,3.43,3.43,0,0,1-2.83,1.2Z"/><path class="cls-1" d="M1616.26,364.16a3.46,3.46,0,0,1-2.84-1.2,4.69,4.69,0,0,1-1-3v-2.29a4.4,4.4,0,0,1,1-3.05,3.62,3.62,0,0,1,2.84-1.09h.76a3.6,3.6,0,0,1,2.83,1.09,4.35,4.35,0,0,1,1,3.05v2.29a4.63,4.63,0,0,1-1,3,3.44,3.44,0,0,1-2.83,1.2Z"/><path class="cls-1" d="M1636,364.16a3.46,3.46,0,0,1-2.84-1.2,4.69,4.69,0,0,1-1-3v-2.29a4.4,4.4,0,0,1,1-3.05,3.62,3.62,0,0,1,2.84-1.09h.76a3.6,3.6,0,0,1,2.83,1.09,4.35,4.35,0,0,1,1,3.05v2.29a4.63,4.63,0,0,1-1,3,3.44,3.44,0,0,1-2.83,1.2Z"/><path class="cls-1" d="M1149.89,920.54a52.34,52.34,0,1,1,52.34-52.34A52.4,52.4,0,0,1,1149.89,920.54Zm0-94.68a42.34,42.34,0,1,0,42.34,42.34A42.39,42.39,0,0,0,1149.89,825.86Z"/><path class="cls-3" d="M1396.28,167.09a38.6,38.6,0,1,1,38.6-38.6A38.64,38.64,0,0,1,1396.28,167.09Zm0-69.82a31.22,31.22,0,1,0,31.23,31.22A31.26,31.26,0,0,0,1396.28,97.27Z"/><path class="cls-4" d="M686.3,1.5a3.4,3.4,0,0,1,2.61,1.06L727.5,40a1.89,1.89,0,0,1,.76,1.47,2.12,2.12,0,0,1-1,1.71,3.71,3.71,0,0,1-2.29.74,4,4,0,0,1-2.72-1.06l-38.7-37.4A1.84,1.84,0,0,1,682.92,4a2.06,2.06,0,0,1,1-1.76A4.13,4.13,0,0,1,686.3,1.5Zm0,42.38a4.36,4.36,0,0,1-2.13-.57,1.8,1.8,0,0,1-1-1.64,2,2,0,0,1,.77-1.55L702.32,22.4l3.6,3.92-17,16.58A3.53,3.53,0,0,1,686.3,43.88ZM725,1.5a3.67,3.67,0,0,1,2.24.61A1.85,1.85,0,0,1,728,3.62a2.14,2.14,0,0,1-.16.82,1.71,1.71,0,0,1-.6.73L708.86,23.3l-3.38-3.92L722.27,2.56A4,4,0,0,1,725,1.5Z"/><path class="cls-4" d="M725,45.38a5.5,5.5,0,0,1-3.72-1.44L705.56,28.76,690,44a5,5,0,0,1-3.66,1.41,5.88,5.88,0,0,1-2.85-.76,3.28,3.28,0,0,1-1.82-2.95A3.51,3.51,0,0,1,682.92,39l16.65-16-17-16.47A3.32,3.32,0,0,1,681.42,4a3.49,3.49,0,0,1,1.7-3A5.61,5.61,0,0,1,686.3,0,4.9,4.9,0,0,1,690,1.54l15.84,15.35L721.2,1.5A5.53,5.53,0,0,1,725,0a5.17,5.17,0,0,1,3.14.91,3.29,3.29,0,0,1,1.41,2.71A3.72,3.72,0,0,1,729.27,5a3.14,3.14,0,0,1-1,1.31L711.73,22.58l16.81,16.3a3.29,3.29,0,0,1,1.22,2.55,3.55,3.55,0,0,1-1.58,2.91A5.19,5.19,0,0,1,725,45.38ZM707.71,26.67l15.6,15.07a2.46,2.46,0,0,0,1.68.64,2.2,2.2,0,0,0,1.39-.44c.38-.28.38-.46.38-.51s-.15-.26-.24-.33L709.59,24.69l-.82.8-5.34-6.18.3-.3L687.87,3.64A1.93,1.93,0,0,0,686.3,3a2.58,2.58,0,0,0-1.51.44c-.37.25-.37.41-.37.51a.37.37,0,0,0,.14.34l17.17,16.6.66-.63L708,26.38Zm-6-1.62L684.94,41.2c-.31.27-.31.39-.31.47s0,.18.26.32a2.89,2.89,0,0,0,1.41.39,2,2,0,0,0,1.55-.54l15.56-15.17ZM708,19l1.57,1.52L726.38,4a.33.33,0,0,0,.11-.1.74.74,0,0,0,0-.25c0-.06,0-.14-.21-.31A2.36,2.36,0,0,0,725,3a2.49,2.49,0,0,0-1.73.69Z"/><path class="cls-4" d="M1377,631.57a3.41,3.41,0,0,1,2.62,1.07L1418.19,670a1.92,1.92,0,0,1,.76,1.47,2.1,2.1,0,0,1-1,1.72,3.68,3.68,0,0,1-2.28.73,4,4,0,0,1-2.73-1.06l-38.69-37.4a1.85,1.85,0,0,1-.66-1.47,2,2,0,0,1,1-1.75A4.13,4.13,0,0,1,1377,631.57Zm0,42.38a4.3,4.3,0,0,1-2.12-.57,1.77,1.77,0,0,1-1-1.63,2,2,0,0,1,.76-1.55L1393,652.48l3.6,3.92-17,16.57A3.53,3.53,0,0,1,1377,674Zm38.7-42.38a3.64,3.64,0,0,1,2.23.62,1.84,1.84,0,0,1,.82,1.51,2.14,2.14,0,0,1-.17.81,1.73,1.73,0,0,1-.6.74l-18.42,18.13-3.38-3.92L1413,632.64A4,4,0,0,1,1415.69,631.57Z"/><path class="cls-4" d="M1415.69,675.45A5.46,5.46,0,0,1,1412,674l-15.7-15.18-15.61,15.22a5,5,0,0,1-3.66,1.4,5.77,5.77,0,0,1-2.85-.76,3.25,3.25,0,0,1-1.81-2.94,3.45,3.45,0,0,1,1.29-2.69l16.64-16-17-16.47a3.32,3.32,0,0,1-1.11-2.55,3.51,3.51,0,0,1,1.7-3,5.61,5.61,0,0,1,3.18-.95,4.93,4.93,0,0,1,3.72,1.55L1396.54,647l15.36-15.38a5.54,5.54,0,0,1,3.79-1.51,5.08,5.08,0,0,1,3.13.92,3.31,3.31,0,0,1,1.42,2.71,3.67,3.67,0,0,1-.27,1.37,3.16,3.16,0,0,1-1,1.31l-16.54,16.28,16.82,16.3a3.3,3.3,0,0,1,1.21,2.54,3.56,3.56,0,0,1-1.58,2.92A5.22,5.22,0,0,1,1415.69,675.45Zm-17.28-18.71L1414,671.81a2.47,2.47,0,0,0,1.69.64,2.27,2.27,0,0,0,1.39-.43c.37-.29.37-.46.37-.52s-.15-.25-.24-.33l-16.93-16.41-.82.81-5.33-6.19.29-.29-15.86-15.38a1.93,1.93,0,0,0-1.57-.64,2.61,2.61,0,0,0-1.51.45c-.37.24-.37.41-.37.5a.38.38,0,0,0,.14.34l17.18,16.6.65-.63,5.62,6.13Zm-6-1.61-16.79,16.15c-.3.26-.3.39-.3.47s0,.17.26.32a2.84,2.84,0,0,0,1.4.38,2,2,0,0,0,1.56-.54l15.55-15.16Zm6.28-6.08,1.57,1.52,16.8-16.52a.7.7,0,0,0,.12-.11.69.69,0,0,0,0-.24c0-.06,0-.15-.22-.31a2.22,2.22,0,0,0-1.33-.32,2.5,2.5,0,0,0-1.74.69Z"/><path class="cls-1" d="M959.85,114.1,927.21,57.56h65.28Zm0-9.26,24.62-42.65H935.23Z"/><path class="cls-1" d="M959.85,116.1,925.48,56.56h68.74ZM928.94,58.56l30.91,53.54,30.91-53.54Zm30.91,48.28L933.5,61.19h52.71ZM937,63.19l22.89,39.65,22.89-39.65Z"/><path class="cls-1" d="M959.85,115.1l-33.51-58h67Zm-31.77-57,31.77,55,31.77-55Zm31.77,47.78L934.36,61.69h51ZM936.09,62.69l23.76,41.15,23.76-41.15Z"/><path class="cls-1" d="M959.85,117.1l-35.24-61h70.48Zm-30-58,30,52,30-52Zm30,48.78L932.63,60.69h54.44Zm-22-44.15,22,38.15,22-38.15Z"/><path class="cls-3" d="M474.12,974.53H408.84L441.48,918Zm-57.26-4.63H466.1l-24.62-42.64Z"/><path class="cls-3" d="M475.85,975.53H407.11L441.48,916Zm-3.46-2L441.48,920l-30.91,53.53Zm-4.56-2.63H415.12l26.36-45.64Zm-3.46-2-22.89-39.64L418.59,968.9Z"/><path class="cls-3" d="M475,975H408l33.51-58Zm-1.74-1-31.77-55-31.77,55ZM467,970.4H416l25.49-44.14Zm-1.73-1-23.76-41.14L417.72,969.4Z"/><path class="cls-3" d="M476.72,976H406.24l35.24-61Zm-5.2-3-30-52-30,52Zm-2.82-1.63H414.26l27.22-47.14Zm-5.2-3-22-38.14-22,38.14Z"/></g></g></svg>