<svg xmlns="http://www.w3.org/2000/svg" viewBox="0 0 749.56 686.83"><defs><style>.cls-1{fill:#ffbe2e;}.cls-2{fill:#fec;}.cls-3{fill:#191410;}</style></defs><g id="Calque_2" data-name="Calque 2"><g id="Calque_1-2" data-name="Calque 1"><path class="cls-1" d="M2.48,652.67a23.11,23.11,0,0,1,3.05-5.43l152-215.83,41.7,29.31S46,678.76,45.43,679.5c-5.88,7.82-19.66,7.35-30.77-1.06C5.05,671.16-.3,660.52,2.48,652.67Z"/><path class="cls-2" d="M22.61,644.63c.83-2.08,70.08-99.7,71.62-101.91l78.43-112.26,31.9,22.42S51.37,670.92,50.82,671.66a13.21,13.21,0,0,1-5.46,4.19,33.91,33.91,0,0,1-10.57-5.44C25.18,663.13,19.83,652.49,22.61,644.63Z"/><path class="cls-3" d="M.83,652.08l0-.07a25.34,25.34,0,0,1,3.24-5.79L156,430.4l1-1.45,44.57,31.34-1,1.44C192,474.17,47.39,679.82,46.83,680.56c-3.2,4.26-8.49,6.48-14.89,6.26a27.31,27.31,0,0,1-4.54-.55,34.68,34.68,0,0,1-13.8-6.42C3.1,671.9-2.15,660.48.83,652.08ZM15.72,677a33.35,33.35,0,0,0,5.82,3.55l151.15-217,4.91,4,11.93,4.33s3.26-5.1,7.2-10.76l-38.83-27.3L7,648.24a21.8,21.8,0,0,0-2.85,5C1.72,660.14,6.59,670.12,15.72,677Z"/><path class="cls-1" d="M154.52,426.15a13.44,13.44,0,0,1,.93-1.07l0,0,12-13.17,48.15,39.95-10.69,12.31-1.08,1.2c-7.81,8.58-24.18,7.65-37.5-2.44C152.45,452.39,147.16,435.93,154.52,426.15Z"/><path class="cls-3" d="M182.28,472.19c9.08,1.86,17.67,0,22.85-5.66l1.09-1.2,11.89-13.7-50.82-42.18-14,15.37,0,0c-.06.08-.12.15-.17.23h0c-3.91,5.2-4.74,12.2-2.32,19.71,2.34,7.28,7.49,14.21,14.49,19.51A42.59,42.59,0,0,0,182.28,472.19ZM213.1,452l-10.56,12.12c-7.23,7.94-22.67,6.78-35.14-2.66-6.44-4.87-11.15-11.19-13.27-17.79-2-6.38-1.42-12.24,1.78-16.5.19-.24.4-.46.6-.69l1.1-1.21v0l10-11Z"/><ellipse class="cls-1" cx="191.01" cy="432.36" rx="22.17" ry="31.54" transform="translate(-268.67 322.29) rotate(-52.7)"/><path class="cls-2" d="M204,462.46c-8.63,4.32-21.68,2.24-32.67-6.08S154.75,436,156.57,426.47l10.69-12.09-.44-.2c8.59-3.39,20.81-1.07,31.17,6.77,12.14,9.19,17.71,22.92,14,32.77Z"/><path class="cls-3" d="M193.7,459.43a35.05,35.05,0,0,0,5.61.68c7.85.26,14.33-2.45,18.25-7.66s4.74-12.2,2.32-19.7c-2.34-7.29-7.49-14.22-14.49-19.52s-15.06-8.37-22.68-8.63c-7.85-.26-14.34,2.45-18.25,7.66s-4.74,12.2-2.33,19.71c2.34,7.28,7.49,14.21,14.49,19.51h0A43.13,43.13,0,0,0,193.7,459.43Zm-6.08-50.69a39.24,39.24,0,0,1,15.65,7.31c6.44,4.87,11.15,11.18,13.27,17.78,2.05,6.38,1.42,12.24-1.78,16.5s-8.65,6.48-15.33,6.25c-6.91-.24-14.26-3.05-20.69-7.92h0c-6.43-4.87-11.14-11.18-13.26-17.78-2.06-6.38-1.42-12.24,1.78-16.5s8.65-6.48,15.32-6.25A29.25,29.25,0,0,1,187.62,408.74Z"/><path class="cls-1" d="M171.63,416.94a23.31,23.31,0,0,1,3.05-5.43l83.38-119.35,41.7,29.32S215.14,443,214.58,443.77c-5.88,7.83-19.66,7.36-30.77-1C174.2,435.44,168.85,424.8,171.63,416.94Z"/><path class="cls-2" d="M191.76,408.91a23.36,23.36,0,0,1,3.05-5.44l78.43-112.26,31.9,22.43S220.52,435.19,220,435.94a13.29,13.29,0,0,1-5.46,4.19,33.84,33.84,0,0,1-10.57-5.45C194.33,427.4,189,416.76,191.76,408.91Z"/><path class="cls-3" d="M170,416.35l0-.06a25.34,25.34,0,0,1,3.24-5.79l83.38-119.35,1-1.44L302.2,321l-1,1.45c-8.67,12.44-84.66,121.6-85.22,122.34-3.2,4.26-8.49,6.48-14.89,6.26a27.28,27.28,0,0,1-4.54-.54,34.71,34.71,0,0,1-13.8-6.43C172.25,436.17,167,424.75,170,416.35Zm14.89,25a34,34,0,0,0,5.82,3.55l54.72-80.94,4.91,4,11.93,4.34c16.2-23.28,31.12-44.71,35.07-50.37l-38.83-27.3-82.37,117.9a21.75,21.75,0,0,0-2.85,5C170.87,424.42,175.74,434.4,184.87,441.31Z"/><path class="cls-3" d="M314.1,425.11l40,13.83-12.94-22.38,17.12,23.82,3.31,1.15L378,459,387,477.48l5.1-6,7.53-2.39,5.5-18.66,14,12.49-15.67,38.86a5.63,5.63,0,0,1-3.57,3.52l0,.09-27,8.53-5.14-13.65,3.15-5.35-9.79.35Z"/><path class="cls-3" d="M371.79,516.07l29.56-9.34,0-.18a7.6,7.6,0,0,0,3.66-4.14l16.15-40-17-15.16-6,20.43L391,469.92l-3.68,4.36-8.06-16.54L362.57,440l-3.21-1.11-16.79-23.36-2.94,1.92,10.57,18.28-40.48-14L360.15,497l7.56-.28-1.94,3.31ZM398.33,504l-24.43,7.72-4.25-11.31L374,493l-12,.43-43.5-64.95,42.12,14.56,16,16.91,10,20.73,6.52-7.72,7.94-2.51,5-16.9,11,9.83-15.21,37.7a3.92,3.92,0,0,1-2.46,2.5Z"/><path class="cls-1" d="M392.05,471.45,376.37,510.3c-2.64,6.55-10.43,4.44-15.41-4.18l-46.86-81L356,483.42c5.37,7.47,12.44,8.11,14.44,1.3L378,459Z"/><path class="cls-3" d="M369.62,515.73a7.75,7.75,0,0,0,2.19.15c2.79-.2,5-2,6.19-4.92l16.15-40-17-15.16-8.36,28.44c-.41,1.38-1.28,3.09-3.1,3.4-2.41.41-5.65-1.64-8.24-5.24l-41.9-58.31L312.58,426l46.86,81C362.22,511.82,366,515,369.62,515.73ZM390,471.94l-15.22,37.7c-.68,1.71-1.75,2.63-3.18,2.73-2.37.16-6.09-2-9.08-7.14l-29-50.17,21.12,29.39c3.47,4.83,7.84,7.33,11.67,6.66,2.82-.49,4.91-2.58,5.88-5.89l6.8-23.11Z"/><path class="cls-3" d="M287.9,350.72,316,320.57l41.39,55.54a79.45,79.45,0,0,0,6.36,7.57l30.82,32.25c4.44,4.65,9.19,7.93,13.81,9.56l12.35-20.65,20.84-122.4,22,8.26,1.27-30L487.69,281l-2,37.78c-2.52,47.85-14.75,88.79-35.35,118.4L438,454.91a17.25,17.25,0,0,1-8.31,6.49l-41.52,13.28V459.22l2.57-4.3-25.48,1.31-11-11.15a4.73,4.73,0,0,1-2.16.71c-6.74.58-18.32-11.64-21.85-16-12.76-15.68-63.08-38.27-63.59-38.5l-1.78-.79Z"/><path class="cls-3" d="M368.23,330.9c.7-1.64,1.4-3.3,2.13-5.14l28-58,24.1,2.07-30.82,74.92c-3.18,7.66-5,16.72-5.32,26.95l-1.52,45.11c-.25,7.53.71,20.61,10,23.6l5.74,1.85-19.78,5.19-5.52-5.55c-6.39-7.25-13.91-19.79-14.08-31.38l1.33-55.81C362.36,344.76,365.35,337.71,368.23,330.9Z"/><path class="cls-1" d="M405.59,270.89l-29.91,72.7c-3.26,7.82-5.11,17.17-5.46,27.56l-1.52,45.11c-.39,11.68,7.69,25.57,16.53,28.42l-6.07,11.38-9.28-12.92h0c-7-7.92-10.29-22.69-10.43-32.83l-2.06-51.45c-.17-11.89,1.54-22.64,5-31.54l22.68-58.2Z"/><path class="cls-3" d="M379.38,459.38l8.4-15.73-2-.65c-8.1-2.61-15.69-15.83-15.32-26.68L372,371.21c.35-10.22,2.14-19.28,5.33-26.95l30.82-74.92-24.21-2.08-23.15,59.43c-3.57,9.17-5.3,20-5.13,32.2l2.06,51.49c.15,10.55,3.61,25.71,10.87,33.93Zm3.39-13.8-3.83,7.16-7.64-10.63c-6.77-7.69-10-21.86-10.1-31.83l-2.06-51.49C359,347.1,360.62,336.71,364,328l22.2-57,16.82,1.45-29,70.47c-3.36,8.06-5.24,17.54-5.59,28.18L367,416.2C366.56,427.78,374,441.3,382.77,445.58Z"/><path class="cls-3" d="M398,230.77l32.61,30.88-4.23,17.19c-.71,2.88-2.2,4.7-4.11,5.53l0,0-27,8.53L371.21,239.2Z"/><path class="cls-1" d="M394.33,295.09l30.5-9.64-.23-.43a9.9,9.9,0,0,0,3.47-5.76l4.48-18.19-34.1-32.29-29.65,9.34Zm27-12.21-25,7.9-22.64-50.49,23.91-7.53,31.12,29.47-4,16.19c-.54,2.19-1.61,3.69-3.1,4.34Z"/><path class="cls-1" d="M338.34,114.34l14-33.49a11.51,11.51,0,0,1,6.28-6.65l5.12-2-1.26-3.38,55.75-18.13a29.26,29.26,0,0,1,7.53-1.39l65.75-3.44c7.15-.25,15.51,5.7,21.81,15.52l25.5,39.78c4.65,7.26,6,16.49,3.09,21.53l-20.68,36.09c-2.81,4.91-4,11.77-3.32,19.59l3.79,45.38c.48,5.7-1.55,9.82-5.14,10.47l-8.86,2.89a12.37,12.37,0,0,0-3.14,4l-13.15,25.6a8.17,8.17,0,0,1-4.47,4.14v.07l-57.41,18.2a4.76,4.76,0,0,1-6.19-4.44L422,227.72l-7.47-19.93L345.8,140.44C338.87,133.65,335.38,121.43,338.34,114.34Z"/><path class="cls-3" d="M426.79,291a6.39,6.39,0,0,0,3.27-.18l58.76-18.63,0-.25a10.22,10.22,0,0,0,4.17-4.4l13.14-25.61a10.8,10.8,0,0,1,2.45-3.21l8.53-2.77c4.32-.76,6.91-5.61,6.35-12.3l-3.79-45.38c-.62-7.41.48-14,3.09-18.56l20.68-36.1c3.24-5.64,1.92-15.47-3.13-23.35L514.78,60.42c-6.62-10.34-15.57-16.59-23.34-16.32l-65.78,3.44a31,31,0,0,0-8,1.48l-57.5,18.7,1.3,3.47L358,72.55a13.27,13.27,0,0,0-7.25,7.62l-14,33.49c-3.27,7.83.33,20.67,7.85,28.05L413,208.78l7.22,19.29,1.34,56.63a6.55,6.55,0,0,0,5.21,6.25Zm58.27-21.31L429,287.41a3,3,0,0,1-2.65-.42,3,3,0,0,1-1.26-2.38l-1.46-57.51L416,206.8l-.28-.27L347,139.18c-6.37-6.24-9.74-17.76-7.07-24.16l14-33.49a9.85,9.85,0,0,1,5.29-5.69L366,73.21l-1.22-3.28,54-17.56a27.07,27.07,0,0,1,7.08-1.31l65.75-3.44c6.51-.23,14.28,5.41,20.24,14.71l25.51,39.79c4.24,6.62,5.57,15.27,3,19.69l-20.68,36.1c-3,5.25-4.24,12.38-3.55,20.61l3.79,45.38c.39,4.67-1.09,8.12-3.7,8.59l-9.66,3.25a14.22,14.22,0,0,0-3.59,4.53l-13.15,25.61a6.43,6.43,0,0,1-3.51,3.28Z"/><path class="cls-1" d="M448.78,201.49l9-13.78,60.71-21.3a41.75,41.75,0,0,0-.63,12l3.79,45.38c.48,5.7-1.55,9.82-5.14,10.47l-8.86,2.89-49.76,16.13Z"/><path class="cls-1" d="M270.51,349.3l1.69,1.93,7.67-12.5,37.59,50.64a82.24,82.24,0,0,0,6.5,7.74l30.83,32.25c12.63,13.22,26.75,15,34.12,4.32l2.81-4.08c20.76-30.1,32.79-71.7,34.86-120.57L428,276.68,447.37,294l-1.95,36.93c-2.51,47.61-14.58,88.09-35,117.49l-12.33,17.72c-6.75,9.7-19.19,9.1-31.09-1.5l-30-26.75-3,5.28c-3.26,5.76-10.45,4.76-16.35-2.5-13.18-16.18-37.29-39.72-59.78-29.51-13.6,6.18-23.42,10.59-30.26,13.63a4.17,4.17,0,0,1-5.09-6.23Z"/><path class="cls-3" d="M381.17,474.32a19.52,19.52,0,0,0,6.25.31,16.9,16.9,0,0,0,12.07-7.51l12.34-17.72c20.6-29.62,32.82-70.56,35.34-118.41l2-37.77L426.35,272.9,424.83,309c-2.06,48.47-14,89.84-34.56,119.64l-2.81,4.08a13.47,13.47,0,0,1-10.17,6.14c-6.51.53-14.24-3.37-21.23-10.68l-30.83-32.25a79.45,79.45,0,0,1-6.36-7.57l-39.14-52.73L272,348.27l-1.59-1.83L221,417.52a6,6,0,0,0,.29,7.21,5.76,5.76,0,0,0,6.95,1.64c6.86-3.05,16.68-7.45,30.29-13.63,21.64-9.83,45.43,14,57.69,29,3.81,4.69,8.35,7.17,12.45,6.83a8.57,8.57,0,0,0,6.79-4.58l1.91-3.39,28.41,25.31C370.85,470.43,376.14,473.29,381.17,474.32Zm64.4-179.59-1.9,36.08c-2.49,47.19-14.5,87.5-34.72,116.57L396.62,465.1a13.33,13.33,0,0,1-9.61,6c-5.73.68-12.43-2.1-18.87-7.84l-31.66-28.2-4.06,7.18a5,5,0,0,1-4,2.81c-2.9.25-6.41-1.83-9.45-5.56-12.88-15.84-38.07-40.8-61.85-30-13.6,6.18-23.41,10.58-30.25,13.62a2.33,2.33,0,0,1-2.83-.66,2.38,2.38,0,0,1-.11-3l46.76-67.38,1.78,2L280,341.86l36,48.57a83.92,83.92,0,0,0,6.64,7.9l30.83,32.25c7.84,8.2,16.38,12.37,24,11.75a16.85,16.85,0,0,0,12.79-7.65l2.81-4.08c20.93-30.34,33.09-72.36,35.17-121.5l1.22-28.64Z"/><path class="cls-1" d="M400,268.55l10.56,10c6.09,5.77,12.43,4.71,14.17-2.37L428.91,259l-32.6-30.88-4.23,17.19C390.34,252.38,393.86,262.78,400,268.55Z"/><path class="cls-3" d="M416.35,283.84a8.37,8.37,0,0,0,4.08-.13c2.93-.87,5-3.39,6-7.11l4.47-18.19-35.54-33.65-4.95,20.12c-1.9,7.75,1.77,18.7,8.37,24.95l10.56,10A14.92,14.92,0,0,0,416.35,283.84ZM427,259.57l-4,16.19c-.43,1.73-1.39,3.93-3.54,4.57s-5-.47-7.73-3.06l-10.56-10c-5.57-5.28-8.94-15.14-7.37-21.55l3.51-14.25Z"/><path class="cls-1" d="M445.62,429.62l1.76-28.89,14.85-5.06L469,411c4,9.21,3.18,18.4-2,20.95l-30.86,15.28-14.84,5.07Z"/><path class="cls-3" d="M259.48,279.73l40-48.41A65.42,65.42,0,0,0,310.89,210l.14-.43,14.08-13,56.2,55.08-8.9,31c-3.12,10.85-7.82,19.94-14,27l-28.58,32.75-41.47,11.36-14.68-36a43.09,43.09,0,0,1-6.55-8.28C260.53,303.67,250.68,290.38,259.48,279.73Z"/><path class="cls-1" d="M354.38,227.69l-17.45,60.75c-3,10.58-7.65,19.48-13.62,26.33L277.75,367c-11,12.59-31.56,4-45.43-19.06h0c-13.1-21.74-15.43-48.47-5.29-60.73l40-48.41a67.29,67.29,0,0,0,11.69-21.92l15.79-47.81Z"/><path class="cls-3" d="M260.59,374.06a23.32,23.32,0,0,0,2.71.4,18.09,18.09,0,0,0,15.77-6.32l45.56-52.21c6.16-7.06,10.86-16.15,14-27l17.75-61.77-62.6-61.35-16.67,50.5a65.63,65.63,0,0,1-11.37,21.35l-40,48.41c-10.6,12.82-8.35,40.39,5.13,62.77C239.16,362.69,250.12,371.91,260.59,374.06Zm91.82-145.85L335.24,288c-3,10.35-7.43,19-13.25,25.65l-45.56,52.21A14.71,14.71,0,0,1,263.61,371c-10-.85-21.42-10-29.79-23.94-12.76-21.18-15.14-47-5.43-58.7l40-48.41a68.94,68.94,0,0,0,12-22.49l14.91-45.13Z"/><path class="cls-1" d="M374.85,279.64l10.56,10c6.09,5.77,12.44,4.71,14.18-2.37l3.32-12-33.14-32.48L367,256.39C365.24,263.47,368.77,273.87,374.85,279.64Z"/><path class="cls-3" d="M391.25,294.93a8.36,8.36,0,0,0,4.08-.13c2.93-.87,5.05-3.39,6-7.11l3.58-13-36.18-35.45L365.26,256c-1.89,7.67,1.79,18.63,8.39,24.88l10.56,10A14.94,14.94,0,0,0,391.25,294.93Zm9.69-19.15-3,11c-.44,1.77-1.4,4-3.56,4.61s-5-.47-7.72-3.06l-10.56-10c-5.67-5.37-9-15-7.37-21.55l2.15-10.53Z"/><path class="cls-1" d="M368.64,67.52a16.07,16.07,0,0,0-5.39,1.09h0L419,50.48a28.86,28.86,0,0,1,7.52-1.4l63.1-3.3a.35.35,0,0,1,.12.69L431.92,65.33Z"/><path class="cls-2" d="M367.26,74.25a16.18,16.18,0,0,0-5.4,1.09h0l55.76-18.13a29.55,29.55,0,0,1,7.52-1.4l63.09-3.3a.35.35,0,0,1,.13.69L430.54,72.06Z"/><path class="cls-1" d="M242.11,265.74l4.59-20.67-12.11-23.18,47.91-16.33h0l-3.71,11.22a67.28,67.28,0,0,1-11.68,21.92l0,.08,24.31,46.69A26.27,26.27,0,0,1,287.77,315l-6.06,6.87a14.53,14.53,0,0,1-5.9,4.05h0c-.12,0-.25.08-.37.12l-20.23,6.24a1.08,1.08,0,0,1-1.39-.85l-5.56-31.2L236,276.35l6.58-8Z"/><path class="cls-2" d="M420.37,67.44,468.3,51.65l12-.63c7.15-.25,15.51,5.7,21.8,15.51l25.51,39.79c4.65,7.26,6,16.49,3.09,21.52l-4.54,7.93-56.54,18.31L453.72,94.19Z"/><path class="cls-1" d="M487.2,57.93c.11-.08,54.49-46.78,54.49-46.78a32.54,32.54,0,0,1,23.24-7.83l138,5.06.8,50.91L587.58,52.62a32.7,32.7,0,0,0-26.42,10.56s-39.92,42.8-42,44.13c-9.85,6.44-25,.6-33.83-13S477.35,65.12,487.2,57.93Z"/><path class="cls-2" d="M545.62,18a32.6,32.6,0,0,1,23.24-7.83l124.73,4.57-5.33,15.07L571,25.35c-10.34-.54-17.35,2.46-23.55,8.94,0,0-39.78,39.64-41.82,41-1.71,1.12-3.37,2.28-5,3.31-8.85,5.54-18-7.43-9.58-13.66l.13-.1C491.24,64.73,545.62,18,545.62,18Z"/><path class="cls-3" d="M486.11,56.54c1.71-1.45,53.91-46.27,54.44-46.73A34.45,34.45,0,0,1,565,1.56L704.65,6.68l.86,54.48-118-6.78a31,31,0,0,0-25,10c-9.39,10.08-40.23,43.06-42.29,44.41a19.17,19.17,0,0,1-14.61,2.44,27.15,27.15,0,0,1-4.27-1.26,37.29,37.29,0,0,1-17.38-14.73C474.61,80.91,475.57,64.29,486.11,56.54ZM701.19,10.08l-136.34-5a30.59,30.59,0,0,0-22,7.41c-53.1,45.6-54.49,46.78-54.6,46.86-4.58,3.35-7,8.75-7.19,14.92,4.67,16.24,21.7,18.12,31.23,11.9,2-1.34,39.61-41.16,39.61-41.16a32.63,32.63,0,0,1,26.41-10.56l96.12,2.41a37.24,37.24,0,0,0,7.78,19.43l19.74,1.13Z"/><path class="cls-1" d="M695.56,1.8a17.91,17.91,0,0,1,4.86.34l24.35,1.67,0,62.66-25.58-1.54c-12.69.39-23.77-12.81-24.93-29.93C673,17.57,682.59,2.71,695.56,1.8Z"/><path class="cls-2" d="M699.6,9.8a17.84,17.84,0,0,1,4.85.34L728.7,11.8l0,52.7L703.08,63c-12.05.37-22.64-11.52-24.66-27.38C680,21.54,688.52,10.57,699.6,9.8Z"/><path class="cls-3" d="M695.45.05a18.48,18.48,0,0,1,5.09.33l26,1.78,0,66.18-27.28-1.65a20.32,20.32,0,0,1-4.62-.39c-11.69-2.41-21-15.12-22.11-31.18C671.21,16.75,681.53,1,695.45.05ZM723,5.45l-23-1.59h0a16.06,16.06,0,0,0-4.36-.3c-9.37.66-16.8,9.41-19.07,21.05C680.67,36,689.45,43.8,699.22,43.5L723,44.93Z"/><path class="cls-1" d="M700.74,37c1.17,17.43,12.64,30.83,25.61,29.93s22.54-15.77,21.36-33.2S735.06,2.88,722.09,3.78,699.56,19.55,700.74,37Z"/><path class="cls-3" d="M721.21,68.31a19.22,19.22,0,0,0,5.26.36c13.92-1,24.23-16.71,23-35.08-.59-8.81-3.72-16.93-8.81-22.87C735.45,4.63,728.81,1.55,722,2s-13,4.46-17.34,11.21c-4.24,6.59-6.24,15.06-5.65,23.87C700.07,53.11,709.57,65.93,721.21,68.31Zm5.38-62.48A20.75,20.75,0,0,1,738,13c4.59,5.37,7.42,12.76,8,20.81,1.11,16.44-7.74,30.49-19.72,31.32S703.6,53.29,702.49,36.86a35.8,35.8,0,0,1,5.09-21.72c3.73-5.79,8.92-9.2,14.63-9.6A16.49,16.49,0,0,1,726.59,5.83Z"/><path class="cls-1" d="M709.7,36.36c.73,10.78,7.82,19.06,15.84,18.5s13.93-9.75,13.21-20.53-7.82-19.06-15.85-18.5S709,25.58,709.7,36.36Z"/><path class="cls-1" d="M682.81,59l1.94-1.89a37.56,37.56,0,0,1-9-20.43l-2.69.27A39.58,39.58,0,0,0,682.81,59Z"/><path class="cls-2" d="M713.32,45.45l23.21,0c-2.38,4.43-6.18,7.41-10.63,7.72C720.91,53.49,716.29,50.41,713.32,45.45Z"/><path class="cls-3" d="M711.55,21.31c2.8-4.36,6.79-6.93,11.24-7.24,9-.63,16.92,8.41,17.71,20.14a25.05,25.05,0,0,1-3.6,15.18c-2.8,4.35-6.79,6.92-11.24,7.23a12.66,12.66,0,0,1-3.43-.23c-7.49-1.54-13.59-9.7-14.28-19.91A25,25,0,0,1,711.55,21.31ZM725.42,53.1c3.32-.23,6.34-2.22,8.53-5.62a20.71,20.71,0,0,0,3-10.39l-25.51-.69C712.19,46.11,718.43,53.6,725.42,53.1Z"/><path class="cls-3" d="M363.79,70.28l1.65-.54a15.17,15.17,0,0,1,3.26-.46L432.46,67l57.82-18.86a2.12,2.12,0,0,0-.75-4.13l-63.09,3.3a30.89,30.89,0,0,0-8,1.48l-54,17.56a19,19,0,0,0-1.85.6Zm67.83-6.7L378.79,65.4l40.75-13.25a27.84,27.84,0,0,1,7.07-1.31l52.46-2.74Z"/><path class="cls-2" d="M508.14,237.2l-49.76,16.13L450,210.58l60.5-21.23a42,42,0,0,0-.63,12l3,34.36Z"/><path class="cls-1" d="M451.27,264.82l4.9-10.78,28.61-9.35.85,1.19,23,38.52c9.13,15.32,14,33.45,13.06,48.65a2.36,2.36,0,0,1-1.24,2.19l-.06.05-.16,0L491,343.42Z"/><path class="cls-2" d="M445.37,278.36l4.9-10.79,28.62-9.35.84,1.2,23,38.51c9.14,15.32,11,22.75,10.08,37.94a2.33,2.33,0,0,1-1.23,2.19l-.23.1L489.09,344Z"/><path class="cls-3" d="M456.55,255.53l60.54-19.63c4.32-.76,6.91-5.61,6.35-12.3l-3.79-45.38a39.94,39.94,0,0,1,.6-11.45l.62-3.05-64.19,22.53-9.75,14.86Zm59.76-86.48a45.83,45.83,0,0,0-.16,9.47l3.79,45.38c.39,4.67-1.09,8.12-3.7,8.59l-56.93,18.45-8.68-49.07L459,189.18Z"/><path class="cls-1" d="M481.55,142.37l-20.68,36.1c-2.81,4.9-4,11.77-3.32,19.58l3.79,45.38c.48,5.7-1.55,9.83-5.14,10.48l-4.37.78a10.7,10.7,0,0,0-7.63,6.08l-13.15,25.6c-3.26,6.34-10.46,6.2-17.14-.34L285.45,160.13c-6.93-6.79-10.42-19-7.46-26.1l14-33.49a11.57,11.57,0,0,1,6.27-6.66l64.22-25.06a16.37,16.37,0,0,1,5.39-1.09l63.29-2.18c7.15-.25,15.51,5.7,21.8,15.51l25.51,39.79C483.11,128.11,484.44,137.34,481.55,142.37Z"/><path class="cls-3" d="M421.68,292.56a10.6,10.6,0,0,0,3.84.11,9.64,9.64,0,0,0,7.09-5.5l13.15-25.6a9,9,0,0,1,6.38-5.15l4.36-.78c4.56-.82,7.15-5.67,6.59-12.36l-3.8-45.38c-.61-7.4.48-14,3.1-18.55l20.68-36.1c3.24-5.65,1.92-15.47-3.13-23.35L454.43,80.11c-6.63-10.34-15.58-16.59-23.34-16.32L367.8,66a18.29,18.29,0,0,0-6,1.21L297.62,92.24a13.23,13.23,0,0,0-7.26,7.62l-14,33.49c-3.27,7.82.32,20.67,7.85,28l128.47,125.9A18.54,18.54,0,0,0,421.68,292.56ZM480,141.5l-20.69,36.09c-3,5.26-4.23,12.38-3.54,20.61l3.79,45.38c.39,4.67-1.1,8.12-3.7,8.59l-4.36.78a12.38,12.38,0,0,0-8.89,7l-13.15,25.6a6.18,6.18,0,0,1-4.53,3.63c-2.88.47-6.47-1.14-9.82-4.43L286.68,158.87c-6.38-6.25-9.75-17.76-7.07-24.16l14-33.49a9.79,9.79,0,0,1,5.29-5.69L363.1,70.47a14.27,14.27,0,0,1,4.82-1l63.28-2.19c6.54-.22,14.31,5.41,20.27,14.71L477,121.81c4.25,6.61,5.58,15.26,3,19.69Z"/><path class="cls-1" d="M314.12,159.36l59.55,58.55c4.86,4.77,10,4.13,11.55-1.44l5.67-20.76c1.52-5.57-1.19-14-6-18.74l-59.56-58.54c-4.86-4.78-10-4.14-11.55,1.43l-5.67,20.76C306.55,146.19,309.26,154.58,314.12,159.36Z"/><path class="cls-1" d="M434.18,110.52a.44.44,0,0,1,.28-.56l12.51-4.1s3.44.23,5.2,1.8l4.42,3.93c4.32,3.86,6.76,12.39,5.41,19-.63,3.08-2,5.16-3.7,6.15l-.14.09a4.65,4.65,0,0,1-1.68.57l-11.31,3.79a.6.6,0,0,1-.77-.38Z"/><path class="cls-1" d="M323.79,139.48,328.57,122l56.22,55.26c4.86,4.78,7.57,13.17,6,18.74l-4.79,17.52-56.21-55.27C325,153.45,322.27,145.05,323.79,139.48Z"/><path class="cls-2" d="M326.1,152.21l4.78-17.52L387.1,190c4.86,4.78,7.56,13.17,6,18.74l-4.78,17.52L332.14,171C327.28,166.17,324.57,157.78,326.1,152.21Z"/><polygon class="cls-3" points="505.79 238.48 494.31 260.44 484.78 244.69 505.79 238.48"/><path class="cls-3" d="M457.77,188a26.65,26.65,0,0,1,3-9.26l20.68-36.1A13.52,13.52,0,0,0,483,136c1.18-.36,1.9-.55,1.9-.55l59.06-18.63a13.35,13.35,0,0,1-1.47,6.27l-20.69,36.1a25.83,25.83,0,0,0-2.74,7.64l-60.66,21.29Z"/><path class="cls-2" d="M451.51,112.44l4.42,3.94c3.79,3.37,6.13,10.33,5.75,16.42a7.57,7.57,0,0,1-3.07,4l-.13.1a4.56,4.56,0,0,1-1.69.56l-11.31,3.8a.62.62,0,0,1-.77-.38l-9-26.71,10.62-3.49S449.75,110.87,451.51,112.44Z"/><path class="cls-3" d="M432.64,109.4a2.16,2.16,0,0,1,1.28-1.11l11.7-3.84,1.47-.35a9.52,9.52,0,0,1,6.24,2.24l4.42,3.93c4.76,4.24,7.44,13.5,6,20.64-.7,3.41-2.31,6-4.42,7.24l-.3.19a6.24,6.24,0,0,1-2.13.74l-11.15,3.75a2.37,2.37,0,0,1-3-1.49l-10.22-30.25h0A2.16,2.16,0,0,1,432.64,109.4Zm13.06,29.72,2.6-.87.27-14.24,11.26-3a16.69,16.69,0,0,0-4.41-8.07L451,109a6.45,6.45,0,0,0-2.85-1.17,12.39,12.39,0,0,0-1.27-.07l-10.61,3.48Z"/><path class="cls-3" d="M312.05,119.4c.82-3,2.63-5,5.09-5.7,2.91-.8,6.33.47,9.39,3.47l59.55,58.54c5.34,5.26,8.2,14.24,6.5,20.46l0,.09,0,.18L387,216.85v0l0,.1c-.82,3-2.63,5-5.09,5.71a7.23,7.23,0,0,1-3.31.07,12.61,12.61,0,0,1-6.08-3.54l-59.55-58.55c-5.35-5.25-8.21-14.24-6.51-20.46Zm77.12,75.94c1.25-4.93-1.28-12.6-5.61-16.85l-54.08-53.17-4,14.63c-1.34,4.93,1.21,12.72,5.59,17l54.07,53.16ZM315.35,158.1l59.55,58.55c2.11,2.07,4.36,3,6,2.59s2.28-2,2.62-3.24l.54-2-55.46-54.53a24.6,24.6,0,0,1-6.33-11.56l-11,4.12A19.94,19.94,0,0,0,315.35,158.1Z"/><path class="cls-3" d="M454.89,252.61l30.59-10,24.62,40.88c9.29,15.59,14.26,34.16,13.3,49.67a4.1,4.1,0,0,1-2.19,3.65l-31.12,8.7L449.7,265.62l-.38-.75Zm37,88.73,1.21-.33L492,326.65l27.19-7.44a93.57,93.57,0,0,0-12.13-33.91l-22.89-38.4-.1-.14-26.65,8.72-4.22,9.3Z"/><path class="cls-2" d="M459.27,406.34,466,421.67a29.64,29.64,0,0,1,2.37,8.91,7,7,0,0,1-3,3L434.49,448.9l-1.69.57,9.86-9.18.5-8.25.82-.76,1.23-20.15Z"/><path class="cls-3" d="M423.66,453.34l13-4.44,31.06-15.37c6.09-3,7.3-13,2.81-23.24l-7.37-16.81-17.49,6-1.79,29.37-22.42,20.88A2.17,2.17,0,0,0,423.66,453.34Zm37.61-55.49,6.08,13.86c3.59,8.2,3.08,16.57-1.14,18.66l-30.86,15.28L428.48,448l18.85-17.56L449.06,402Z"/><path class="cls-1" d="M430.77,434.68a168.44,168.44,0,0,0,16.61-33.95l6.73,15.33c4,9.22,3.17,18.4-2,20.95L421.28,452.3a2.19,2.19,0,0,1-1.85-.08Z"/><path class="cls-3" d="M419.72,454.15a3.56,3.56,0,0,0,2.33-.27l30.86-15.29c6.09-3,7.29-13,2.81-23.24l-7.38-16.81-2.61,1.59a167.08,167.08,0,0,1-16.43,33.59L416.82,453l1.92.82A4.82,4.82,0,0,0,419.72,454.15Zm27.79-48.76,5,11.39c3.59,8.19,3.08,16.56-1.14,18.65l-27.93,13.83,8.81-13.62A168.13,168.13,0,0,0,447.51,405.39Z"/><polygon class="cls-1" points="395.98 472.6 419.56 464.17 421.56 460.65 397.99 469.07 395.98 472.6"/><polygon class="cls-1" points="295.29 350.67 297.23 348.59 327.73 340.24 329.6 342.74 329.51 342.84 294.41 352.46 294.35 352.3 295.29 350.67"/><path class="cls-1" d="M384.35,408.76l-.16,13a29.58,29.58,0,0,0,1.47,11.05l-1.93,1.9c-1.53-3.32-2.26-7.7-2.08-13l.24-15.5Z"/><path class="cls-2" d="M236.72,281l2.05-2.48-.47-2.65.5-2.26,3-3.57-.47-2.65,4.59-20.67-8.81-16.85,41.61-14.18h0l-6.45,12.17c-.93,2.8-1.67,5.34-2.43,7.73a55.26,55.26,0,0,1-3.52,4.76l0,.08,1,2a28.28,28.28,0,0,1-4,6.44l0,.08,24.31,46.69A26.19,26.19,0,0,1,290.11,312a26.17,26.17,0,0,1-3.17,4.6l-6.06,6.86a14.5,14.5,0,0,1-5.89,4.05h0l-.37.11-20.23,6.24a1.09,1.09,0,0,1-1.39-.85l-5.55-31.2Z"/><path class="cls-3" d="M240.32,265.71l4.53-20.39L232.5,221.69l1.1-1.33,51.67-17.6-4.81,14.57A70,70,0,0,1,269.15,239l23.79,45.68a28.2,28.2,0,0,1-3.86,31.51L283,323a16.12,16.12,0,0,1-6.62,4.55L255.71,334a2.77,2.77,0,0,1-1.4.06,2.67,2.67,0,0,1-.92-.36,2.84,2.84,0,0,1-1.31-1.93l-5.51-30.94-12.66-24.67,6.8-8.23Zm-2.23,10.86,11.72,22.84,5.59,30.95,7-2.15,12.47-19.94,17-5.17a24.48,24.48,0,0,0-2.06-16.81L265.51,239.6l-.36-.85.37-.79.24-.39a65.42,65.42,0,0,0,11.37-21.35l2.59-7.85L237.1,222.89l11.46,21.93-4.66,21,.56,3.1Z"/><path class="cls-1" d="M234.55,222,271,291.75a26.31,26.31,0,0,1-3.62,29.53l-6.06,6.86a14.55,14.55,0,0,1-23.88-3l-28.28-54.61A18.77,18.77,0,0,1,211.39,250Z"/><path class="cls-3" d="M247.13,334.51q.63.14,1.26.21a16.32,16.32,0,0,0,14.27-5.41l6.06-6.86a28.23,28.23,0,0,0,3.85-31.52l-37.19-71.17-1.78.6L210,248.85a20.48,20.48,0,0,0-2.42,22.51L235.91,326A16.29,16.29,0,0,0,247.13,334.51ZM234.22,225.13l35.24,67.44a24.66,24.66,0,0,1-3.37,27.54L260,327a12.8,12.8,0,0,1-21-2.63l-28.29-54.62a17,17,0,0,1,2-18.63Z"/><polygon class="cls-3" points="172.67 445.64 162.71 459.84 172.93 468.51 197.03 471.67 211.42 457.59 206.47 458.45 191 457.07 181.39 451.39 172.67 445.64"/><path class="cls-1" d="M188.11,474.37l.12-2.71c-.07,0-11.93-.9-17.56-5.69L168.92,468C175.75,473.7,188,474.36,188.11,474.37Z"/><path class="cls-1" d="M434.48,135.76l4.42,3.93c4.33,3.86,9,1.63,10.32-4.94h0c1.35-6.57-1.09-15.11-5.41-19l-4.42-3.94c-4.33-3.85-9-1.63-10.32,5h0C427.72,123.37,430.16,131.9,434.48,135.76Z"/><path class="cls-3" d="M441.86,143.22a6.28,6.28,0,0,0,3.33-.2c2.82-.94,4.91-3.83,5.75-7.92,1.47-7.14-1.21-16.39-6-20.63l-4.41-3.94c-2.38-2.11-5-2.82-7.46-2-2.81,1-4.91,3.83-5.75,7.92-1.47,7.14,1.21,16.4,6,20.64l4.41,3.93A9,9,0,0,0,441.86,143.22Zm-6.12-31.43a5.65,5.65,0,0,1,2.48,1.38l4.42,3.94c3.85,3.43,6.08,11.35,4.86,17.29-.57,2.78-1.84,4.75-3.41,5.28s-3-.43-4-1.31l-4.42-3.93c-3.85-3.44-6.08-11.35-4.86-17.29.57-2.78,1.85-4.76,3.42-5.28A2.86,2.86,0,0,1,435.74,111.79Z"/><path class="cls-1" d="M444.17,260.9a10.71,10.71,0,0,1,7.64-6.07l4.36-.79c.1,0,.18-.06.28-.09l23,38.52c9.14,15.32,14,33.45,13.06,48.65-.16,2.53-2.13,3.15-4,1.26l-56.84-57Z"/><path class="cls-3" d="M489.87,345.17a3.41,3.41,0,0,0,1.95-.14,4.06,4.06,0,0,0,2.4-3.8c1-15.51-4-34.08-13.3-49.67l-23.63-39.62-1.57.4-4.22.75a12.4,12.4,0,0,0-8.89,7l-13.15,25.6,57.75,57.93A5.36,5.36,0,0,0,489.87,345.17Zm-34.29-89.23,22.32,37.43c9,15,13.74,32.82,12.82,47.64a1.35,1.35,0,0,1-.2.75,5.87,5.87,0,0,1-.82-.63L433.76,285l12-23.31a9,9,0,0,1,6.38-5.15Z"/></g></g></svg>