<svg xmlns="http://www.w3.org/2000/svg" viewBox="0 0 1049.83 230.75"><defs><style>.cls-1{fill:#3a9377;}</style></defs><g id="Calque_2" data-name="Calque 2"><g id="Calque_1-2" data-name="Calque 1"><path class="cls-1" d="M843.05,222.82h-61.3L765,222.72l-64-.37-92.78-.49-57.14-.28-21.17-.1a60.12,60.12,0,0,0,38.92-29.23c9-15.55,12.27-32.91,9.69-51.58-2.84-20.54-13.51-36.87-31.7-48.55A25.13,25.13,0,0,0,530.61,88q.92-.25,1.8-.45c2.24-.47,4.53-.88,6.74-1.28s4.67-.84,7-1.33c1-.22,2.82-1,3.14-2.15s-.79-2.73-1.63-3.45a51.47,51.47,0,0,0-6.35-4.7c-15.7-9.74-33.74-12.55-55.16-8.59-2,.36-3.95.91-5.87,1.44L478,68.1l-1.87-3.25c-1.67-2.87-3.31-5.71-4.92-8.57-1.17-2.1-2.7-4.88-4.09-7.79a3.17,3.17,0,0,1-.1-1.39c0-.07,0-.14,0-.21h.11a5.68,5.68,0,0,1,1.42.18c1.09.34,2.17.71,3.24,1.09,1.75.61,3.56,1.25,5.39,1.7,5.26,1.32,8.39-.27,10.17-5.14a34.47,34.47,0,0,0-.26-25.55c-2.91-7.1-8.37-9.46-15.38-6.66S459.4,20.35,455.56,24.4a2.22,2.22,0,0,0-.38,1.55,4.35,4.35,0,0,1,0,.52l-.09.82.81-.16a4.52,4.52,0,0,1,.53-.06,3,3,0,0,0,1.47-.41c1-.7,2-1.44,2.94-2.18A55.3,55.3,0,0,1,465.68,21a33,33,0,0,1,7.49-3.39c2.4-.74,3.71,0,4.64,2.63l.11.3a35.79,35.79,0,0,1,1.53,5.12l0,.24a89.07,89.07,0,0,1,1.57,10.4c.14,2-.62,4.55-3.22,5.21a66,66,0,0,1-8.5,1.37l-2.73.32a1.51,1.51,0,0,1-.56-.19A13.51,13.51,0,0,0,467.2,42l2.05-2.31c2.2-2.45,4.47-5,6.5-7.66a4.81,4.81,0,0,0,.25-4.59c-.7-1.11-3.05-1.44-4.3-1.13-3.33.83-6.65,1.87-9.87,2.87l-3.14,1c-3.78,1.15-4.43.88-6.36-2.64l-.57-1.06a31.83,31.83,0,0,0-3.09-5c-1.35-1.67-2.41-2.43-3.53-2.53a1.66,1.66,0,0,0,.34-.25,2.17,2.17,0,0,0,.11-2.45l-.21-.22c-.84-.89-1.79-1.9-2.93-2.06a8.49,8.49,0,0,1-4.17-2.13,38.1,38.1,0,0,0-4.57-3.3A5.74,5.74,0,0,0,432,7.91c-.59-.12-1.21-.26-1.4-.53-1.81-2.48-4.5-3.14-6.87-3.71l-.64-.16C417.24,2.05,411.45.94,406.56.05c-1.06-.2-3.07.21-3.71,1.25a24.83,24.83,0,0,0-2.7,6.5,3.66,3.66,0,0,0,1.91,3.36c3.57,1.31,7.25,2.54,10.8,3.73,2.34.79,4.69,1.58,7,2.39a9.15,9.15,0,0,1,1.88,1c.4.26.81.52,1.22.74a3.44,3.44,0,0,0,1.38.3c1,.09,2.07.15,3.18.22l.49,0c-1.61,3.31-1.53,3.71-.33,7.54l0,.12a2.71,2.71,0,0,1-.25.67,5.32,5.32,0,0,0-.29.66c0,.15-.11.3-.18.46a1.9,1.9,0,0,0-.21,1.64,3,3,0,0,0,2,1.3,2.8,2.8,0,0,0,2.34-.51,3,3,0,0,0,1-1.92c3.27-.15,4.78,1,6.18,4.3,1.15,2.75,2.08,5.66,3,8.48.53,1.66,1.08,3.38,1.67,5.06,1.4,4,1,7.9-1.38,12.33A221.79,221.79,0,0,1,420.08,92.4c-.87,1.13-1.82,1.43-2.82.89l-.45-.24a51.46,51.46,0,0,1-7.46-4.59c-3-2.34-2.9-3.49-1.36-7a3.17,3.17,0,0,1,3-2.21,43.18,43.18,0,0,0,4.86-.79l1.67-.32c7.1-1.33,11.56-5.81,13.27-13.32,2.06-9.1,1-18.69-3.17-29.33-2-5.18-6-8.4-11.67-9.6a38.41,38.41,0,0,0-14.54.23c-9.7,1.7-19.5,5.54-30.86,12.09l-.66.41c-1.21.79-1.89,1.15-2.89.1-.49-.51-1.4-.43-2.07-.38l-.56,0c-1.38.12-2.81.24-4.2.5-6.58,1.27-11.44-.06-15.31-4.19A16.41,16.41,0,0,0,343,33.1l-.57-.44c-3.22-2.58-7.05-5.45-11.65-6.83-7-2.12-14.2.43-17.38,6.18a2.53,2.53,0,0,1-3.09,1.53c-.44-2.79-1-3.47-4.24-3.95a51.92,51.92,0,0,0-8.89-.8c-14.09.33-29.17.73-44,1.38a38.35,38.35,0,0,0-10.52,2.21,3.43,3.43,0,0,0-2.45,2.68,3.61,3.61,0,0,0,1.69,3.4,21.13,21.13,0,0,0,7,3.23,26.58,26.58,0,0,0,6.61.48h1.11q6.62,0,13.25-.1c7.65-.07,15.57-.15,23.35-.08,4.89,0,10.59.4,15.89,2.69,1,.42,1.1.53.88,1.17-1.36,3.87.79,8,5.12,9.85a35.76,35.76,0,0,0,7.2,2.12c1.29.26,1.88.72,2.17,1.72.21.73.44,1.45.66,2.18a51.1,51.1,0,0,1,1.47,5.46c.54,2.89-.55,4.56-3.44,5.26a29.13,29.13,0,0,1-3.26.52,27.91,27.91,0,0,0-3.22.5,2.74,2.74,0,0,1-3.23-1.31c-.36-.52-.72-1-1.07-1.58-.83-1.22-1.68-2.48-2.6-3.67-.79-1-1.55-2.08-2.31-3.14a47.14,47.14,0,0,0-6.37-7.64c-8-7.19-18.36-11-31.61-11.51A34.77,34.77,0,0,0,259.61,46c-3.59.93-5.29,4-6.26,6.42-2.87-1-4-3.4-5.12-6l-.15-.34c-2.47-5.45-6.84-8.77-13-9.88-1-.17-1.9-.31-2.9-.46l-.89-.14c0-.35.1-.69.17-1,1.17-5.49-.38-8-5.75-9.24a52.94,52.94,0,0,0-18-.88l-2.06.24c-16.27,1.88-33.09,3.82-49.57,6.2-15.9,2.29-28.53,5.17-39.75,9.05a42,42,0,0,0-7.63,3.76,5.32,5.32,0,0,0-2.25,3.35,8.4,8.4,0,0,0,1.68,6.62,7.8,7.8,0,0,0,5.74,2.86A52.06,52.06,0,0,0,125.67,56c9.36-1.69,18.85-3.53,28-5.32q8.51-1.65,17-3.28c14.83-2.8,30.64-5.78,46.49-8.6a44.15,44.15,0,0,1,6.61-.47l2.22,0-.33.16a16.85,16.85,0,0,1-2.29,1l-3.13,1a90.51,90.51,0,0,1-9.63,2.74c-11.1,2.3-22.41,4.57-33.34,6.75Q165.15,52.35,153,54.81l-1.34.27c-7.45,1.51-15.14,3.07-22.17,6.76-6.08,3.19-9,7.79-9,14.06,0,2.87,1.27,4.21,3.94,4.21h0a31.76,31.76,0,0,0,3.58-.26c-1.35.92-2.73,1.81-4.1,2.69a80.12,80.12,0,0,0-9.52,6.81c-8.84,7.76-14.61,18.38-17.63,32.47-.93,4.32-1.74,9.41-.75,14.53a10.38,10.38,0,0,0,2.41,5c.62.65,1.72.52,2.89.39l.59-.06c-2.11,11.81-2,24.16.25,37.71l.08.46c1,6,2.06,12.27,5.12,17.84a11.2,11.2,0,0,0,3.64,4.18,7.67,7.67,0,0,1,2.75,3.43.47.47,0,0,0,.05.1l-.87.09c-1.11.11-2.16.22-3.19.24l-16.27.43c-15.29.41-31.1.84-46.65,1.1-9.56.16-19.28.17-28.68.17-5.46,0-10.91,0-16.37,0A3.35,3.35,0,0,0,.29,208c-.17.1-.11.17-.29.25v.58l.05.56c.09.17.12.15.29.3a3.62,3.62,0,0,0,1.26.57,2.51,2.51,0,0,0,1.08.07H3c3.89,0,7.79,0,11.69,0,8.44,0,17.18,0,25.76-.14,14.8-.32,29.85-.72,44.41-1.12q15-.41,30-.78a2.8,2.8,0,0,1,1.7.87c12.45,14.51,26.51,21.64,42.76,21.64a61.31,61.31,0,0,0,10-.85c19.66-3.27,32.8-12.84,40.15-29.25a1.83,1.83,0,0,1,1.76-1.32,52.7,52.7,0,0,0,16-4.48,11.75,11.75,0,0,0,7-8.24c.29-1.11.53-2.24.78-3.42,0,.13.05.26.08.39.46,2.34.89,4.55,1.26,6.75.78,4.72,3.32,7.92,7.54,9.53l3.27,1.26a154.53,154.53,0,0,0,15,5.21c19.6,5.32,40.81,8.55,64.85,9.9,12.4.69,22.52-.57,31.84-4,22.67-8.27,42-22.4,57.44-42a78.62,78.62,0,0,0,13.2-24.05,48,48,0,0,0,2.4-22c3.62,1.8,5.3,1.17,8.11-2.58a24.17,24.17,0,0,0,1.62-2.45l1.25-2.1c1.44-2.45,2.94-5,4.34-7.52,4.17-7.59,10.67-12.63,17.14-16.91l1.24,1.81c1.38,2,2.72,4,4.1,6l.22.32a4.1,4.1,0,0,0,1.88,1.81c1.65.51,2.22,1.77,2.88,3.23q.15.36.33.72l-.17.07-1.24.54-7.91,3.32-20.14,8.47a22.2,22.2,0,0,0-3.18,1.66,1.58,1.58,0,0,0,1.08,2.9,11.57,11.57,0,0,0,2.93-.78q4.75-2,9.5-4.12t9.35-4.06c1-.43,2.05-.79,3.07-1.15l.53-.18a8.83,8.83,0,0,1-.82,1c-1.38,1.43-2.76,2.78-4.08,4-8,7.47-12,16.37-11.94,26.45a64.58,64.58,0,0,0,19.09,46.16c8.89,9.09,19.68,13.72,32.06,13.76h.16A53.9,53.9,0,0,0,523,200.6c15.83-6.13,27-16.64,33.27-31.24,2.91-6.81,3.59-12.79,2.08-18.26a88.44,88.44,0,0,0-13.54-28.46c-5.86-8.12-11.87-13.15-18.91-15.84-5.31-2-10.94-2.71-16.38-3.38l-1.46-.17a12,12,0,0,1-3-1l-.64-.27.47-.55a10.94,10.94,0,0,1,2.28-2.24,59.69,59.69,0,0,1,21-7.94,22.73,22.73,0,0,1,17.08,3.29A64.72,64.72,0,0,1,573,129.4c4,11.72,4.61,24.24,1.86,38.29C571,187,562,201.13,547.21,211a56.63,56.63,0,0,1-20.12,8.15l.29-.15c1-.51,2-1,3-1.52,2.33-1.19,4.75-2.41,7.06-3.74a15.73,15.73,0,0,0,4.19-3.56,3.81,3.81,0,0,0,.37-3.68c-.57-1-2.4-1.38-3.4-1.23a40.76,40.76,0,0,0-6.12,1.6l-.12,0q-5.08,1.63-10.18,3.3l-9.76,3.16c-7.16,2.29-13.22,2.58-19.07.92-8.37-2.38-15.79-7.13-23.36-14.95-12.85-13.27-22-29.91-28.89-52.35-1.4-4.57-2.48-9.52-.92-14.82.43-1.47-.47-3.43-1.3-4.82a2.63,2.63,0,0,0-2.42-1.49,2.77,2.77,0,0,0-2.2,2,21,21,0,0,0-1.18,5.13,111.24,111.24,0,0,0,1.11,30.5c1.92,11,7,21.4,16,32.62,4.34,5.42,9.26,11.56,16.07,15.48,15.77,9.05,33.67,13,53.17,11.62l.43,0a6.36,6.36,0,0,1,1.3,0c1.29.14,2.57.33,3.85.52a59,59,0,0,0,7.76.78c16.71.14,33.7.21,50.12.27l26.63.11,122.19.66,51.45.29h.39a7,7,0,0,0,.79,0l54.3.09v0h211.24v-3.05Zm-369.52-177c1.13-.19,2.3-.39,3.44-.7,4.77-1.33,7.12-4.33,7-8.9a58.16,58.16,0,0,0-1.34-9.4c-.14-.74-.29-1.47-.43-2.21A27.33,27.33,0,0,0,481,20.63c-.14-.42-.29-.83-.42-1.25-1-2.95-2.66-4.51-5.25-4.79a6.9,6.9,0,0,1,3.85,0c1.84.58,3.38,2.11,4.57,4.55,3.81,7.82,4,16.31.55,25.25-1,2.71-2.21,3.35-5.17,2.87a42.26,42.26,0,0,1-5-1.23l-.74-.22ZM311.06,42.05c-.76-.2-1.51-.43-2.26-.65a30.51,30.51,0,0,0-6.66-1.47c-7.59-.53-15.85-.85-25.27-1l-5.28,0c-4,0-8,.05-11.85.1q-4.19.06-8.38.09a11.16,11.16,0,0,1-6.92-2.24c-.95-.71-1.24-1.23-1.19-1.48s.44-.54,1.43-.79a49.47,49.47,0,0,1,10.17-1.67c13-.56,26.64-1,40.45-1.29a58.76,58.76,0,0,1,8.77.67l1.78.21a2.54,2.54,0,0,1,.95.7l.06,0,0,0a4.71,4.71,0,0,1-1.2.78c-.64.23-1.34.41-2,.58a19.29,19.29,0,0,0-2.71.85,3,3,0,0,0-1.31,1.58,1.41,1.41,0,0,0-.07,1.09c.36.81,1.71,1.91,2.62,1.69a13.61,13.61,0,0,0,5.24-2.15,5.11,5.11,0,0,1,3.94-1.16ZM546,82l-10.82,1.84c.36-2.85-.41-4-3.2-5.1-5.92-2.39-12.26-2.82-17.74-3-1.1,0-2.19-.06-3.29-.06a84,84,0,0,0-25.29,3.89c-1.24.39-1.59.25-2.11-.86-.92-2-2-4-3-5.85l-1-1.88C495.14,62.28,536.47,69.24,546,82ZM442,18.36a2.06,2.06,0,0,0,1.42.7l.33,0a8.58,8.58,0,0,0-2.67,1.83A5.8,5.8,0,0,1,436,22a5.3,5.3,0,0,1-3.45-2.19l.57-.34c.78-.47,1.59-1,2.41-1.36C438.14,16.83,440.12,16.1,442,18.36Zm-15.32-7.49-.12.18-.11.15a17.31,17.31,0,0,0-1,1.46c-.67,1-1.37,2.08-2.19,2.37s-2-.18-3.23-.63c-.51-.19-1-.38-1.49-.52-3.9-1.14-7.71-2.31-10.59-3.2-.53-.17-1.06-.39-1.61-.62l-.11-.05c.12-.16.25-.31.37-.46a11.8,11.8,0,0,0,1.58-2.27,3.3,3.3,0,0,0-.09-3.07c-.46-.51-1.36-.63-2.94-.37a3,3,0,0,0-.82.28A2.14,2.14,0,0,1,405.05,3a2.72,2.72,0,0,1,2-.06c7.28,1.59,13.22,3,18.68,4.52,1.22.33,1.91.71,2.05,1.12S427.59,9.76,426.72,10.87Zm1.65,6-.73-.29.71-1.36c.75-1.45,1.47-2.82,2.21-4.16a.94.94,0,0,1,.53-.52,1.43,1.43,0,0,1,1,.37c1.24.88,2.47,1.78,3.75,2.72l.91.67c-.47.26-.93.53-1.38.8a24.51,24.51,0,0,1-4.68,2.32A4.31,4.31,0,0,1,428.37,16.84Zm13.38,17.28c-1.42-3.59-4.07-8.28-10.52-7.58a2.77,2.77,0,0,1-1.05-1.15c-.65-1.26-.88-2.28,0-3.33,1.73,2,4.19,3,7.48,3h.05a7,7,0,0,0,5.93-2.57,1.48,1.48,0,0,1,.89-.65c.26,0,.57.17.92.53a19.23,19.23,0,0,1,2.39,2.89c.53.83,1,1.74,1.44,2.62.29.56.58,1.13.88,1.68,2.23,4,4.34,4.88,8.66,3.59,2-.61,4-1.25,6-1.9s4.09-1.32,6.15-1.93a9.25,9.25,0,0,1,2.24-.26l.71,0-.28.7a6.53,6.53,0,0,1-1.08,2.09c-3.28,3.57-6.72,7-9.69,10a2.38,2.38,0,0,1-1,.33,5.23,5.23,0,0,0-.57.12,4.25,4.25,0,0,1-.65.09,2.32,2.32,0,0,0-1.58.56c-1.79,2-1.78,2.83-1.62,3.31a1.71,1.71,0,0,0,.93,1.1,2.89,2.89,0,0,0,2.33-.43l.33-.15,2.29-1,.15-.07c.19.66.35,1.27.51,1.86a19.64,19.64,0,0,0,1.49,4.33c2.06,3.9,4.28,7.79,6.43,11.55l2.61,4.6c.22.38.42.76.62,1.13l-14,6.92c-.25-.38-.49-.77-.73-1.16-.79-1.24-1.59-2.53-2.51-3.75-3.51-4.67-6.28-8.21-9-11.49a9,9,0,0,0-2.3-1.79l-.77-.48c1.75-3.53.85-7.42-.15-10.83l-.48-1.63C444.21,41.29,443.14,37.62,441.75,34.12Zm16.86,43.66s-.05.13-.46.26l-7.89-12.72c.39.48.78,1,1.12,1.46,1.55,2.2,3.06,4.48,4.53,6.68q1.15,1.77,2.34,3.51C458.67,77.59,458.62,77.76,458.61,77.78ZM402.52,29a63.74,63.74,0,0,1,12.53-.19c4.57.47,8,3.12,9.8,7.68,3.59,8.92,4.76,17.23,3.59,25.41s-4.95,12.17-13,13.79c-1.14.23-2.28.41-3.61.63l-.91.14.91-1.47c1.06-1.73,2-3.26,2.9-4.82.78-1.35,1.52-2.72,2.25-4.09l1.2-2.23c5.28-9.64,1.45-19.31-3.9-25.15A24.18,24.18,0,0,0,396,30.29,45.29,45.29,0,0,1,402.52,29ZM365.7,49.17c1.59-4.47,5.37-6.51,9.36-8.67l.15-.08c5.31-2.87,10.56-5.56,16.49-6.82a20.14,20.14,0,0,1,4.09-.42,22.1,22.1,0,0,1,13.26,4.59A21.05,21.05,0,0,1,417.64,53a16,16,0,0,1-1.36,7.65c-2.17,4.47-4.77,8.84-7.29,13.06l-1.46,2.46a2.57,2.57,0,0,1-1.7.78c-3.9.25-7.76.42-10.86.56l-2.42.1c-14.52-.24-26.57-.7-38.41-3.95A29.8,29.8,0,0,1,347.86,71c-2-1.11-2.56-2.55-1.62-4.41a52.55,52.55,0,0,1,4.59-7.08l.73-1a2.67,2.67,0,0,1,1.6-.42c4.64-.2,8.24-2.44,11.35-7.06a5.86,5.86,0,0,1,.37-.5A4.83,4.83,0,0,0,365.7,49.17ZM329.47,66.69a58.73,58.73,0,0,0-1.41-6c-.18-.64-.35-1.27-.52-1.91H347.2a11.58,11.58,0,0,0-.64,1c-.29.52-.59,1-.9,1.54a25.12,25.12,0,0,0-2.21,4.32c-1.14,3.19-.29,5.66,2.67,7.76h0a86.18,86.18,0,0,0-19.35.61,6.15,6.15,0,0,0,1.61-1.52A7.63,7.63,0,0,0,329.47,66.69Zm26.25-12.42,6.82-5.63C360.74,51.24,359,53.67,355.72,54.27ZM314.51,36.84a.78.78,0,0,1,.53-.14,3.52,3.52,0,0,1,.72.09l-1.62,1.81C314.12,37.86,314.19,37.09,314.51,36.84ZM314,51.33a5.47,5.47,0,0,1-1.3-3l.24.34a17.74,17.74,0,0,0,3.13,3.67,16.12,16.12,0,0,0,3.54,2A9.76,9.76,0,0,1,314,51.33Zm7.07-1.72a19.51,19.51,0,0,0-5.2-4.46l-.59-.4c-.59-.4-.92-.78-1-1.11a1.73,1.73,0,0,1,.52-1.18c.46-.57.95-1.13,1.43-1.69.63-.73,1.28-1.48,1.88-2.26.86-1.12,1.5-2,1.17-2.78a3.83,3.83,0,0,0-2-1.57l-.46-.23a3.28,3.28,0,0,0-1.12-.29l.37-.5A13,13,0,0,1,318,31a11.53,11.53,0,0,1,13.35-1.78,40.25,40.25,0,0,1,10.56,7c5.54,5.36,12.09,7.13,20,5.4a15.71,15.71,0,0,1,3-.24h.55l-.9.69c-.8.62-1.63,1.22-2.45,1.83a45.65,45.65,0,0,0-5.34,4.32c-5.29,5.23-12,7.4-21.09,6.79-1.36-.09-2.76-.3-4.11-.5l-1.14-.17C326.31,53.71,323.34,52.73,321.11,49.61Zm-64.82,3.48a7.39,7.39,0,0,1,5.15-4.69,26.33,26.33,0,0,1,7.36-1,44.79,44.79,0,0,1,8.84,1c6.62,1.32,15.05,3.64,21.44,9.82a59.21,59.21,0,0,1,6.51,8c.85,1.18,1.7,2.36,2.58,3.51.66.85,1.27,1.72,1.88,2.6.49.69,1,1.38,1.48,2.06a4.74,4.74,0,0,0,4.89,2l.13,0a18.36,18.36,0,0,1-6.23,1,36.38,36.38,0,0,0-7.5.45,10.57,10.57,0,0,1-5.67-.66c-12.62-4.66-25.07-11.57-40.36-22.4A1.21,1.21,0,0,1,256.29,53.09Zm60.18,29a12.4,12.4,0,0,1-5.21-.46l-.58-.13a5.66,5.66,0,0,1,3.75-.69A3.62,3.62,0,0,1,316.47,82.08ZM302,82c-8.65,4.39-15.16,9.1-20.39,14.75A3.92,3.92,0,0,1,281,92a18.86,18.86,0,0,1,4.8-5.36c4.38-3.16,9.67-4.41,13.27-5.08a3.73,3.73,0,0,1,.47,0,8.13,8.13,0,0,1,1.95.35ZM253.64,57l.44.65a38,38,0,0,1,3.24,5.4,42,42,0,0,1,2.9,8.11c1.12,4.86,2,9.88,2.79,14.73l.1.58c1,6.07,0,12.24-1,17.54a1.65,1.65,0,0,1-1,.64,4.35,4.35,0,0,1-1.46-.18c4.87-10.54,1.93-20.88-.91-30.89l-.25-.88c-.93-3.29-2.07-6.58-3.17-9.77-.75-2.16-1.52-4.37-2.24-6.62A5.85,5.85,0,0,1,253.64,57Zm-5.34-3.51c4.07,9.36,8.48,20.56,10.41,32.65.7,4.36,1.15,9-.3,13.57a14.94,14.94,0,0,1-2,3.83c-.68,1-1.18,1.82-.86,2.56s1.1.91,2.5,1.12l.11,0-.23.14c-.77.46-1.54.92-2.33,1.35-5.49,3-10.93,5.77-17.07,7-4,.78-6.55-.23-8.46-3.41a30.58,30.58,0,0,0-4.71-5.52c-.49-.5-1-1-1.47-1.5-1.89-2-3.8-3.91-5.71-5.85-2.36-2.4-4.81-4.88-7.15-7.37a68.23,68.23,0,0,0-22.62-15.91,9.05,9.05,0,0,1-1.64-.85A48.29,48.29,0,0,0,166.12,67a18.36,18.36,0,0,1-2.07-.55l-.39-.11a20,20,0,0,1,6.68-5.29c7.18-3.68,15.12-5.78,22-7.46a220.25,220.25,0,0,1,37.78-6.15c5.51-.38,10.8,1.11,17.15,4.82A2.78,2.78,0,0,1,248.3,53.53ZM190.73,40.44c-4.35.93-8.84,1.88-13.28,2.69-9.95,1.8-20,3.77-29.78,5.68-7.51,1.47-15.28,3-22.92,4.42a39.33,39.33,0,0,1-9.47.56c-1.56-.09-3.7-.79-4.59-1.92-1.22-1.57-1.73-3.18-1.39-4.41a3.8,3.8,0,0,1,2.59-2.35l1.48-.56a126.57,126.57,0,0,1,15.94-5.27,507.69,507.69,0,0,1,81.78-12.1,5.24,5.24,0,0,1,.56,0h1.59l0-.3c1.09.12,2.19.22,3.28.33,2.87.29,5.84.58,8.7,1.1,1.79.32,2.85.86,3.35,1.69.59,1,.49,2.56-.32,5.09a1.19,1.19,0,0,1-.63.38C215.06,35.27,202.68,37.91,190.73,40.44ZM100.78,138.7a.73.73,0,0,1-.55.36c-.16,0-.33-.24-.44-.55a15.6,15.6,0,0,1-1-4c-.55-7.75,1-15.54,5.09-25.28,4.81-11.52,13.29-20.36,25.94-27,4.92-2.59,10-5.1,14.92-7.52,2.26-1.12,4.53-2.23,6.8-3.37l.41-.2-.09-.46c-.16-.73-.26-1.22-.7-1.46a.91.91,0,0,0-.48-.13,4.73,4.73,0,0,0-1.42.41l-4.73,1.81c-3.48,1.35-7.07,2.74-10.64,4a47.38,47.38,0,0,1-8.48,2c-.86.13-1.39.1-1.6-.09s-.32-1.14-.3-2c.09-4.64,2.24-7.88,7-10.5,6.51-3.61,13.8-5.1,20.85-6.54l1.07-.22q12-2.44,24-4.86c12.15-2.46,24.7-5,37-7.57a75.46,75.46,0,0,0,9.08-2.73c1-.37,2.09-.73,3.13-1.07a6.55,6.55,0,0,0,3-1.65c1.43-1.7,3.08-1.43,5.22-1.09,5.77.92,9.59,3.81,11.62,8.82-5.8-2.94-12.33-3.89-19.9-2.9-1.11.14-2.23.26-3.34.37-1.34.15-2.68.29-4,.47-15.42,2.19-27.93,5-39.38,8.75-5.69,1.88-11.16,3.91-15.61,8.12l-.38.35c-.29.26-.58.53-.84.81-1.24,1.35-1.7,2.5-1.41,3.51s1.28,1.71,3,2.17,3.19.8,4.8,1.18,3.45.81,5.17,1.27c.39.11.79.24,1.18.39-1.46-.19-3-.38-4.44-.49-6.41-.47-13.24-.58-19.77,1.82-10.16,3.74-16,10.79-17.43,21A3.07,3.07,0,0,1,131,97.4c-13.12,5.52-19.17,17.81-24,27.69a33.94,33.94,0,0,0-1.86,5c-.41,1.3-.84,2.64-1.37,3.9A24,24,0,0,1,100.78,138.7ZM189.59,170c-.89-14-4.59-25.25-11.33-34.39-9-12.22-20.57-18.65-34.38-19.11a29.63,29.63,0,0,0-6.64.79c-.79.16-1.6.32-2.42.46.06-2.57.13-5.14.19-7.72l.24-9.5c0-.63.15-.68,1.08-.73l.21,0c8.76-.6,17.35,1.48,26.25,6.35,8.54,4.68,15,11.87,19.68,22,7.71,16.6,11.45,32.2,11.45,47.7a27.71,27.71,0,0,1-1.4,7.63,2.54,2.54,0,0,1-1.24,1.66,2.36,2.36,0,0,1-1.63.14c0-1.55,0-3.08,0-4.59C189.76,177,189.81,173.52,189.59,170Zm-4.74,13.33c-.89-.48-1.77-1-2.65-1.49a43.23,43.23,0,0,0-6.15-3.11,27.23,27.23,0,0,0-6.9-1.29l-1.22-.12a2.75,2.75,0,0,0-2.54,1.62,3.27,3.27,0,0,0,1,2.89,79.21,79.21,0,0,0,7.23,4.8c2.82,1.64,5.88,3.27,9.65,5.15.94.47,1,.73.56,1.77-4.14,9.13-11.67,13.88-22.38,14.13-19.26.49-33.86-12.2-36.28-31.44-1.06-8.46,1.86-15.79,9.18-23,.34,1.44.66,2.86,1,4.27,1,4.35,1.93,8.45,3,12.58a29.62,29.62,0,0,0,3,6.91c2,3.45,5.21,4.71,9.15,3.54a14.76,14.76,0,0,0,4.29-1.9c7.94-5.51,12.78-12.82,14.38-21.75a13.89,13.89,0,0,0-2.66-11.54c-2.58-3.12-6.59-4.86-11.29-4.9-5.57,0-10.88,1.78-17.17,6l-.82.56-.4.27a2.74,2.74,0,0,1-.17-.7q-.35-4.34-.67-8.69c-.39-5-.77-10.06-1.19-15.09-.08-1,.19-1.44,1.19-1.9,3.79-1.75,8-2.06,13.33-1,12.4,2.55,22.07,9.52,28.73,20.73,7.32,12.34,10.06,26.57,8.36,43.5l-.14-.07C185.81,183.81,185.33,183.58,184.85,183.33Zm.5,5.86c-5.75-2.71-11.21-5.28-16.06-9a10.36,10.36,0,0,1,6,1.27,95.38,95.38,0,0,1,10,5.52C185.49,187.2,185.44,188.32,185.35,189.19ZM123.21,165.4a32.92,32.92,0,0,0-1,5.91c0-.94-.07-1.87-.11-2.8-.37-8.48-.44-18.51,1.78-28.69,1.33-6.12,3.33-10.66,6.28-14.28.48-.6,1-1.17,1.51-1.74l.23-.26,0,.59c0,.87.08,1.75.16,2.62.17,2,.35,4.08.52,6.11.44,5,.89,10.26,1.26,15.38a3.08,3.08,0,0,1-.79,2.11C129.41,153.91,125,158.84,123.21,165.4Zm14.65-15.11c5.49-4.32,10.83-6.71,15.42-6.89,5.06,0,8.9,1.42,11.18,4.23,2,2.43,2.58,5.72,1.76,9.52a30.07,30.07,0,0,1-13,19,12.63,12.63,0,0,1-3.94,1.66c-2.47.64-4.28-.13-5.38-2.29a40.36,40.36,0,0,1-3.37-8.42c-1.11-4.32-1.93-8.81-2.71-13.15l-.35-1.91A2.35,2.35,0,0,1,137.86,150.29Zm-27,47.46a4.77,4.77,0,0,1-.85-1.39c-.37-1.18-.76-2.36-1.15-3.53a98.54,98.54,0,0,1-3.23-11.31c-3-15.14-3.1-28.81-.23-41.79a31.75,31.75,0,0,1,2.77-7.28l.24-.47c3.44-6.89,7-14,10.81-20.84,2.51-4.49,6.77-7.34,11.29-10.09a3.6,3.6,0,0,1,.82-.32c.27-.08.54-.16.87-.24,0,.46,0,.87,0,1.28l-.09,3.9c-.09,4.18-.19,8.49-.37,12.73a3.73,3.73,0,0,1-1,2.3c-6.06,5.38-8.33,12.54-9.63,18.18-2.4,10.44-2.31,20.9-1.86,30.64a89.29,89.29,0,0,1-1.09,20.75c-.18,1-.43,1.91-.7,2.91-.07.25-.13.5-.2.74-2.07-.77-3.7-1.08-4.83-.32S111,195.75,110.87,197.75Zm3.43,1.54c-.78-1.44-.8-2.36-.11-3.12a6.74,6.74,0,0,1,1.3.35l.69.23v.14Zm1.24,2.86,2.8-3,.48.9c.63,1.19,1.23,2.32,1.76,3.45a1,1,0,0,1,.13.75c-.08.17-.39.32-.84.42C117.36,205.25,117,205.22,115.54,202.15Zm90.69-1.3c-.62,1.23-1.25,2.51-2,3.72-6.73,11.46-17,18.55-31.43,21.7-11.43,2.49-20.78,2.12-29.41-1.17a58.49,58.49,0,0,1-23.78-16.93,2.6,2.6,0,0,1-.27-.38l.86-.19c1.3-.27,2.71-.68,3.28-1.74.46-.85.36-2-.33-3.67a20.12,20.12,0,0,0-2.72-4.75,2.72,2.72,0,0,1-.42-2.83,63.65,63.65,0,0,0,2.24-17.52,37.85,37.85,0,0,0,5.28,15.23c8.47,14.43,25,21.16,42,17.14,7.15-1.68,12.55-6,16.06-12.91.37-.72.73-1.44,1.08-2.14l.2-.4c.91.4,1.79.81,2.67,1.21a51.37,51.37,0,0,0,7.1,2.89A50.21,50.21,0,0,0,204,199.5c.87.12,1.77.24,2.67.38Zm5-15.89c-.43,2.34-1.1,4.69-1.75,7-.35,1.24-.7,2.48-1,3.72-.2.79-.55,1-1.49,1a33.12,33.12,0,0,1-18.51-5.51,1.36,1.36,0,0,1-.3-.9,8.29,8.29,0,0,1,.41-1.67c0-.12.08-.23.11-.34,5.05-.39,6.72-2,7.68-7.08,1.19-6.32.64-12.5-.56-19.84a123.51,123.51,0,0,0-11.36-35.91C175.66,108,161,98.34,140.83,96.81l.23,0a49.7,49.7,0,0,1,5.87-.88c26.81-2,57.19,14.06,63.41,48.39C213.18,159.94,213.45,172.86,211.21,185Zm20.26.56a7.92,7.92,0,0,1-5.62,6.69c-3.74,1.2-7.72,2.43-12.9,4a6.76,6.76,0,0,1-1.38.18c.27-1.18.55-2.34.82-3.5.75-3.12,1.45-6.07,2-9.12,1.71-9.95,1.64-20.81-.2-34.17-1.49-10.85-4.15-19.21-8.37-26.29-9.49-15.93-24.09-25.84-43.39-29.46a60.59,60.59,0,0,0-11.21-1.1A47.89,47.89,0,0,0,136,95.12c.6-8.11,6.7-15.71,15.11-18.7,4.9-1.74,10.37-2.34,17.21-1.88a74.32,74.32,0,0,1,7.69.89,32.55,32.55,0,0,1,15.67,6.92c5.39,4.44,11.35,9.12,18.77,14.75,3.76,2.86,6.09,6.7,8.15,10.39,4.53,8.11,7.68,17.57,9.63,28.9l.48,2.8c1.91,11.08,3.89,22.54,3.93,34A76.56,76.56,0,0,1,231.47,185.52Zm1.16-54c-.23,3.12-.42,6.25-.62,9.37-1.85-11.36-4.4-23.09-10.26-33.74.39.44.79.87,1.19,1.3a53.94,53.94,0,0,1,5.12,6.09c2.17,3.16,4.86,4.54,8.47,4.32,6.05-.36,11.18-2.73,17.24-5.79.72-.36,1.43-.73,2.14-1.1,1.49-.79,3-1.59,4.67-2.31-.31.8-.64,1.61-1,2.38-2.5,5-6.66,8.52-12.71,10.61-2.78,1-5.73,1.85-9,2.69A6.37,6.37,0,0,0,232.63,131.52Zm2.05,16.06.2-3.9c.21-3.9.42-8,.67-12,.11-1.92,1.09-3,3.17-3.55,3.55-.91,6.66-1.84,9.49-2.85,8.72-3.09,14.22-9.33,16.34-18.54C267,96.18,267,87.36,264.57,79a44.65,44.65,0,0,1-1.26-7.38,23.42,23.42,0,0,0-4.23-11.32L258.9,60a189.27,189.27,0,0,0,35.35,19.59c-.67.21-1.35.43-2,.67a32.68,32.68,0,0,0-11,6c-3.35,3-5,8.51-2.06,12.65a1.33,1.33,0,0,1-.13.88c-3.07,4-4.43,8.74-4.27,14.86.25,9.84-.85,17.17-3.59,23.77a23.94,23.94,0,0,1-9.93,11.73,12,12,0,0,1-11.26,1,83.53,83.53,0,0,0-9.74-3.43,8.44,8.44,0,0,0-2.2-.25c-.58,0-1.19,0-1.83.07Zm1.43,5.24c-.08-1.29.1-2.12.54-2.46a1.41,1.41,0,0,1,.91-.25,5.42,5.42,0,0,1,1.48.25c3.7,1.08,7.3,2.44,10,3.5a14.72,14.72,0,0,0,13.53-1.08,27.16,27.16,0,0,0,11.84-14.52c3.25-8.82,3.48-17.87,3.28-25.56a17.32,17.32,0,0,1,3.71-11.08,1.69,1.69,0,0,1,.22-.26c7.05,4.34,14.89,6.17,22.48,8l3.36.79q6.92,1.66,13.83,3.29c9.1,2.15,18.5,4.37,27.71,6.73a72.64,72.64,0,0,1,19.24,8.23c11,6.6,15.32,16.66,12.62,29.11-2.26,10.47-7.55,19.69-16.17,28.18-17.22,17-37.5,24-60.29,20.87-6.13-.83-12.31-2.22-18.28-3.56-2-.45-4-.9-6-1.33-11-2.36-19.49-4.26-27.46-6.15a40.37,40.37,0,0,1-7.18-2.72c-3.2-1.44-4.83-4-4.59-7.25.61-8.29-1.34-16.25-3.23-23.95l-.57-2.35A37,37,0,0,1,236.11,152.82Zm1.54,25.05c-.38-2.78-.75-5.56-1.13-8.34a47.83,47.83,0,0,1,1.5,11.05ZM427.9,141.21c-2.73,10.59-8.2,20.64-16.73,30.74A126.3,126.3,0,0,1,361,208.36a73.91,73.91,0,0,1-30.95,5.08c-24.56-1.14-46.44-4.36-66.87-9.85a149.46,149.46,0,0,1-14.72-5.08c-1.08-.42-2.14-.83-3.22-1.23a8.73,8.73,0,0,1-5.53-5.49,10,10,0,0,0,5.17,3.88,176.73,176.73,0,0,0,19.18,5.52l4.67,1c11.5,2.59,23.39,5.26,35.22,7.13a66.72,66.72,0,0,0,10.53.83c27.28,0,53.82-16.32,65.74-41.53a43,43,0,0,0,4.3-17.07c.33-10.82-4.44-19.37-14.19-25.41-7.81-4.83-16.75-8.33-29-11.32-6.46-1.59-13.06-3.07-19.44-4.5-6.57-1.48-13.36-3-20-4.64A116.79,116.79,0,0,1,290,101.87l-4-1.42a9.14,9.14,0,0,1-2-1.09l-.59-.39,1.37-1.34c1.32-1.29,2.56-2.51,3.89-3.63a68.35,68.35,0,0,1,16.2-10.1,5,5,0,0,1,2.58-.14c1.24.17,2.48.39,3.71.61,1.43.25,2.92.52,4.4.7,2.74.34,3.7-.95,4-2.08.57-1.95-.73-3.16-1.86-3.91.25-.1.48-.18.72-.25,9.87-2.88,20.65-3.52,33-2,18.15,2.28,33.81,6.87,47.9,14a71.81,71.81,0,0,1,18.13,12.71C428.15,114,431.64,126.69,427.9,141.21ZM429.67,116l-.61-1.19c-.61-1.23-1.25-2.49-2-3.69-4.9-8.26-12.4-15-23.6-21.32a120.41,120.41,0,0,0-22.64-9.57h24.53c-2.28,6-1.73,7.8,3.37,11.63a38.88,38.88,0,0,0,7.6,4.22c2.19,1,4.31.35,6-1.78,9.47-12.17,16.37-22.66,21.72-33l.22-.41,11.44,19c-.3.25-.64.53-1,.8-6.12,4.71-13.82,11.27-19.07,20.25a31.61,31.61,0,0,0-2.25,5.22q-.36,1-.75,2c-.77,2-1.51,3.93-2.25,5.9Zm31.79-25c-1.15.85-2.27,1.66-3.41,2.45-6.2,4.3-11.18,10.2-15.67,18.56a97.06,97.06,0,0,1-5.53,8.71l-.15.23c-.24.35-1,1.41-1.71,1.52a1.22,1.22,0,0,1-1-.34c-2.12-1.67-2.75-3.1-2.05-4.64s1.26-3.16,1.8-4.72a47.35,47.35,0,0,1,2.21-5.54,69.6,69.6,0,0,1,6.71-11.07c3.6-4.75,8.32-9.15,14.81-13.81l5.14,7.79Zm1.09-6.34c-.75-1.12-1.5-2.24-2.26-3.35-.35-.51-.31-.67-.31-.67s.06-.1.36-.21l4.28,7.32C463.92,86.67,463.23,85.63,462.55,84.6Zm.11-6.08,13.95-6.93,4.8,9.13L467.57,86.9Zm11.69,20.57c-1.2-2.33-2.5-4.63-3.87-7L469,89.48l13.84-6.21q.35,1.13.69,2.19c.73,2.35,1.43,4.57,2,6.79a2.41,2.41,0,0,1-.62,1.9c-2.92,2.12-6,4.06-8.64,5.68a1.32,1.32,0,0,1-1,.24A1.78,1.78,0,0,1,474.35,99.09Zm30.32,6.49a38.11,38.11,0,0,0,7.23,1.06c14.44.86,25.34,8.07,33.31,22A167.77,167.77,0,0,1,553,144.77l1.28,2.91c2.81,6.38,2.55,13.2-.8,20.87-6,13.71-16.62,23.58-31.59,29.35-8.08,3.12-15.5,4.27-22.67,3.55C488,200.32,478.3,195,470.32,185.76a63.26,63.26,0,0,1-15.48-38.62c-.55-10.37,3.09-19.32,10.82-26.61a56.8,56.8,0,0,0,5.45-5.7,6.45,6.45,0,0,0,1.08-2.6c.1-.38.2-.76.32-1.12l.13-.36-.1-.09,3.95-1.61,13.27,24.68c-3.84-.88-6.07,1.52-7.62,3.81-3.55,5.23-4.19,11.37-2,19.29,2.37,8.64,8.27,14.65,19.11,19.52,7.3,3.27,14,3.72,20.46,1.38a25.13,25.13,0,0,0,14.72-13.68,26.41,26.41,0,0,0-.22-21.09c-3.83-8.91-9.15-14-16.73-15.94-5-1.3-9.58-1-15.14,1.1-.12-.22-.23-.45-.35-.68-.43-.83-.88-1.69-1.26-2.56q-2.94-6.64-5.86-13.3l-2.58-5.88a2.93,2.93,0,0,1-.28-2.2,2.34,2.34,0,0,1,1.38-1.18c3-1.25,6.36-2.62,9.79-3.87a5.73,5.73,0,0,0-.39.45c-.9,1.15-1.91,2.78-1.57,4S503.46,105.27,504.67,105.58Zm-5.21,30.94c1.61,3.47,3.44,6.9,5.21,10.21l2,3.69c.25.49.52,1,.78,1.47.45.83.9,1.66,1.32,2.51,1.17,2.38,1.24,2.53-1.09,4-.37-.53-.73-1-1.11-1.57a48,48,0,0,1-2.93-4.49c-6.59-11.91-13.24-24.06-19.68-35.81l-4.54-8.3a1.65,1.65,0,0,1-.11-.32l9.52-3.82c2.07,7.11,5.26,13.67,8.34,20q1.1,2.27,2.18,4.53a3.22,3.22,0,0,1,.06,2.76A7.67,7.67,0,0,0,499.46,136.52Zm-2.93,19.35c2.31,5.54,6.71,8.19,13,7.83,2.87-.15,4.93-1.14,6-2.86s.92-3.87-.24-6.35c-1.83-3.93-3.8-7.87-5.71-11.68q-1.23-2.46-2.45-4.93l-3.45-6.95a13.46,13.46,0,0,1,6.78-1.77c9.29-.28,16.07,4.29,20.67,14a23.71,23.71,0,0,1,.82,19.32A22.35,22.35,0,0,1,518.69,175c-6.17,2.26-12.76,1.61-19.57-1.94A53.5,53.5,0,0,1,488.78,166c-6.12-5.32-8.73-16.28-5.7-23.94a13.47,13.47,0,0,1,3-4.48,3.46,3.46,0,0,1,2.11-1.18,1,1,0,0,1,.24,0c.83.15,1.45,1.14,1.82,1.95A44.82,44.82,0,0,1,492,143.1c.24.71.47,1.41.71,2.11.39,1.11.77,2.24,1.14,3.36C494.69,151,495.53,153.48,496.53,155.87Zm-1-11.36,9.74,15.93a5,5,0,0,1-3.34-1.8,18,18,0,0,1-3.12-4.77c-1.16-3-2.18-6.05-3.17-9C495.63,144.73,495.59,144.62,495.56,144.51Zm11.2-.72c.5,1,1,2,1.52,3,1.49,3,3,6,4.35,9.12a4.91,4.91,0,0,1,0,3.66c-.43.81-1.33,1.18-2.88,1.14a5.45,5.45,0,0,1,1.26-1.09c1.79-1,2.23-2.45,1.31-4.41s-2-4.07-3-6.08c-.82-1.57-1.65-3.13-2.47-4.69-1.52-2.86-3.09-5.81-4.56-8.75a6.19,6.19,0,0,1-.46-2l1.09,2.18Q504.82,139.86,506.76,143.79Zm9.1-53.69Q504.72,94.6,493.54,99l-13.23,5.28c-1.32.54-2.2.89-2.54.75s-.58-.73-1-1.7l2.61-1.71c2.3-1.51,4.48-2.94,6.65-4.44s3-3.95,2.19-6.87c-.54-1.87-1.17-3.71-1.84-5.65l-.7-2.08,1.15-.34c1.24-.38,2.52-.76,3.79-1.09a79.52,79.52,0,0,1,36-1.05,25.8,25.8,0,0,1,4.75,1.56,2,2,0,0,1,.94,1,2.66,2.66,0,0,1-.95.76l-.82.36C525.74,86,520.79,88.11,515.86,90.1Zm7.79,128-2.82,1.77a2.91,2.91,0,0,1-1.25.37c-19.43,1.56-37.24-2.42-52.92-11.81-5.58-3.34-9.74-8.51-13.76-13.52l-.35-.44c-8-10-12.77-19.06-14.86-28.51a99.29,99.29,0,0,1-1.48-34.35,11.75,11.75,0,0,1,.46-1.91l.12-.43.18.52a3.51,3.51,0,0,1,.37,1.84c-1.76,5.57-.61,11,.75,15.54,6,20.2,14.37,36.42,25.53,49.58,8.07,9.51,16.07,15.59,25.2,19.12,7.2,2.79,13.79,3.24,20.14,1.38,5.7-1.68,11.45-3.51,17-5.28,3.09-1,6.18-2,9.28-2.93,1-.32,2.11-.57,3.16-.8l1.12-.26-.37.51a5.28,5.28,0,0,1-1.35,1.48C536,211,534.07,212,532.23,213c-1.5.81-3,1.62-4.46,2.46S525,217.19,523.65,218.05Z"/></g></g></svg>