<svg xmlns="http://www.w3.org/2000/svg" viewBox="0 0 204.33 204.33"><defs><style>.cls-1{fill:#ffbe2e;}.cls-2{fill:#2b2b2b;}</style></defs><g id="Calque_2" data-name="Calque 2"><g id="Calque_1-2" data-name="Calque 1"><circle class="cls-1" cx="102.17" cy="102.17" r="102.17"/><path class="cls-2" d="M170,80.44a16.31,16.31,0,0,0-16,11.74,9,9,0,0,0-2.39-.32h-9.13a37.86,37.86,0,0,0-19.87-7.25V78.68h5a3.4,3.4,0,0,0,0-6.79H110.69a3.4,3.4,0,0,0,0,6.79h5.09v6.08a39.41,39.41,0,0,0-19.47,8.1l-16,0L44.82,80.38H24.5v7.39l17.35.09L67,107.74a45.92,45.92,0,0,1,5.17,6.86c4.77,7.31,11.3,17.32,21.69,17.84h.08l58.15-.05a8.86,8.86,0,0,0,8.84-9V110.92a16,16,0,0,0,9.11,2.84,16.66,16.66,0,0,0,0-33.32Zm-16,42.92a2.52,2.52,0,0,1-2.49,2.27l-57.7-.07c-6.92-.34-11.82-8.34-16-14.76-3.06-4.68-4.76-7.81-7.6-9.51L58,91.78l22.35,7.84,18.51,0a31.26,31.26,0,0,1,21.17-8.23c13.2,0,19.67,7.33,19.67,7.33l12.12,0a2.19,2.19,0,0,1,2.2,2.19ZM170,107a9.9,9.9,0,1,1,9.91-9.9A9.9,9.9,0,0,1,170,107ZM30.8,102.88c4,5.05-.36,11.11-5.79,11.11s-9.78-6.06-5.79-11.11A42.32,42.32,0,0,0,25,91.64,42.32,42.32,0,0,0,30.8,102.88Z"/></g></g></svg>