<svg xmlns="http://www.w3.org/2000/svg" xmlns:xlink="http://www.w3.org/1999/xlink" viewBox="0 0 8217.21 410.79"><defs><style>.cls-1{fill:none;}.cls-2{opacity:0.18;}.cls-3{clip-path:url(#clip-path);}.cls-4{fill:url(#Dégradé_sans_nom_9);}.cls-5{fill:url(#Dégradé_sans_nom_9-2);}.cls-6{fill:url(#Dégradé_sans_nom_9-3);}.cls-7{fill:url(#Dégradé_sans_nom_9-4);}.cls-8{fill:url(#Dégradé_sans_nom_9-5);}.cls-9{fill:url(#Dégradé_sans_nom_9-6);}.cls-10{fill:url(#Dégradé_sans_nom_9-7);}.cls-11{fill:url(#Dégradé_sans_nom_9-8);}.cls-12{fill:url(#Dégradé_sans_nom_9-9);}.cls-13{fill:url(#Dégradé_sans_nom_9-10);}.cls-14{fill:url(#Dégradé_sans_nom_9-11);}.cls-15{fill:url(#Dégradé_sans_nom_9-12);}.cls-16{fill:url(#Dégradé_sans_nom_9-13);}.cls-17{fill:url(#Dégradé_sans_nom_9-14);}.cls-18{fill:url(#Dégradé_sans_nom_9-15);}.cls-19{fill:url(#Dégradé_sans_nom_9-16);}.cls-20{fill:url(#Dégradé_sans_nom_9-17);}.cls-21{fill:url(#Dégradé_sans_nom_9-18);}.cls-22{fill:url(#Dégradé_sans_nom_9-19);}.cls-23{fill:url(#Dégradé_sans_nom_9-20);}.cls-24{fill:url(#Dégradé_sans_nom_9-21);}.cls-25{fill:url(#Dégradé_sans_nom_9-22);}.cls-26{fill:url(#Dégradé_sans_nom_9-23);}.cls-27{fill:url(#Dégradé_sans_nom_9-24);}.cls-28{fill:url(#Dégradé_sans_nom_9-25);}.cls-29{fill:url(#Dégradé_sans_nom_9-26);}.cls-30{fill:url(#Dégradé_sans_nom_9-27);}.cls-31{fill:url(#Dégradé_sans_nom_9-28);}.cls-32{fill:url(#Dégradé_sans_nom_9-29);}.cls-33{fill:url(#Dégradé_sans_nom_9-30);}.cls-34{fill:url(#Dégradé_sans_nom_9-31);}.cls-35{fill:url(#Dégradé_sans_nom_9-32);}.cls-36{fill:url(#Dégradé_sans_nom_9-33);}.cls-37{fill:url(#Dégradé_sans_nom_9-34);}.cls-38{fill:url(#Dégradé_sans_nom_9-35);}.cls-39{fill:url(#Dégradé_sans_nom_9-36);}.cls-40{fill:url(#Dégradé_sans_nom_9-37);}.cls-41{fill:url(#Dégradé_sans_nom_9-38);}.cls-42{fill:url(#Dégradé_sans_nom_9-39);}.cls-43{fill:url(#Dégradé_sans_nom_9-40);}.cls-44{fill:url(#Dégradé_sans_nom_9-41);}.cls-45{fill:url(#Dégradé_sans_nom_9-42);}.cls-46{fill:url(#Dégradé_sans_nom_9-43);}.cls-47{fill:url(#Dégradé_sans_nom_9-44);}.cls-48{fill:url(#Dégradé_sans_nom_9-45);}.cls-49{fill:url(#Dégradé_sans_nom_9-46);}.cls-50{fill:url(#Dégradé_sans_nom_9-47);}.cls-51{fill:url(#Dégradé_sans_nom_9-48);}.cls-52{fill:url(#Dégradé_sans_nom_9-49);}.cls-53{fill:url(#Dégradé_sans_nom_9-50);}.cls-54{fill:url(#Dégradé_sans_nom_9-51);}.cls-55{fill:url(#Dégradé_sans_nom_9-52);}.cls-56{fill:url(#Dégradé_sans_nom_9-53);}.cls-57{fill:url(#Dégradé_sans_nom_9-54);}.cls-58{fill:url(#Dégradé_sans_nom_9-55);}.cls-59{fill:url(#Dégradé_sans_nom_9-56);}.cls-60{fill:url(#Dégradé_sans_nom_9-57);}.cls-61{fill:url(#Dégradé_sans_nom_9-58);}.cls-62{fill:url(#Dégradé_sans_nom_9-59);}.cls-63{fill:url(#Dégradé_sans_nom_9-60);}.cls-64{fill:url(#Dégradé_sans_nom_9-61);}.cls-65{fill:url(#Dégradé_sans_nom_9-62);}.cls-66{fill:url(#Dégradé_sans_nom_9-63);}.cls-67{fill:url(#Dégradé_sans_nom_9-64);}.cls-68{fill:url(#Dégradé_sans_nom_9-65);}.cls-69{fill:url(#Dégradé_sans_nom_9-66);}.cls-70{fill:url(#Dégradé_sans_nom_9-67);}.cls-71{fill:url(#Dégradé_sans_nom_9-68);}.cls-72{fill:url(#Dégradé_sans_nom_9-69);}.cls-73{fill:url(#Dégradé_sans_nom_9-70);}.cls-74{fill:url(#Dégradé_sans_nom_9-71);}.cls-75{fill:url(#Dégradé_sans_nom_9-72);}.cls-76{fill:url(#Dégradé_sans_nom_9-73);}.cls-77{fill:url(#Dégradé_sans_nom_9-74);}.cls-78{fill:url(#Dégradé_sans_nom_9-75);}.cls-79{fill:url(#Dégradé_sans_nom_9-76);}.cls-80{fill:url(#Dégradé_sans_nom_9-77);}.cls-81{fill:url(#Dégradé_sans_nom_9-78);}.cls-82{fill:url(#Dégradé_sans_nom_9-79);}.cls-83{fill:url(#Dégradé_sans_nom_9-80);}.cls-84{fill:url(#Dégradé_sans_nom_9-81);}.cls-85{fill:url(#Dégradé_sans_nom_9-82);}.cls-86{fill:url(#Dégradé_sans_nom_9-83);}.cls-87{fill:url(#Dégradé_sans_nom_9-84);}.cls-88{fill:url(#Dégradé_sans_nom_9-85);}.cls-89{fill:url(#Dégradé_sans_nom_9-86);}.cls-90{fill:url(#Dégradé_sans_nom_9-87);}.cls-91{fill:url(#Dégradé_sans_nom_9-88);}.cls-92{fill:url(#Dégradé_sans_nom_9-89);}.cls-93{fill:url(#Dégradé_sans_nom_9-90);}.cls-94{fill:url(#Dégradé_sans_nom_9-91);}.cls-95{fill:url(#Dégradé_sans_nom_9-92);}.cls-96{fill:url(#Dégradé_sans_nom_9-93);}.cls-97{fill:url(#Dégradé_sans_nom_9-94);}.cls-98{fill:url(#Dégradé_sans_nom_9-95);}.cls-99{fill:url(#Dégradé_sans_nom_9-96);}.cls-100{fill:url(#Dégradé_sans_nom_9-97);}.cls-101{fill:url(#Dégradé_sans_nom_9-98);}.cls-102{fill:url(#Dégradé_sans_nom_9-99);}.cls-103{fill:url(#Dégradé_sans_nom_9-100);}.cls-104{fill:url(#Dégradé_sans_nom_9-101);}</style><clipPath id="clip-path" transform="translate(3142.35 -467.86)"><rect class="cls-1" width="1930.85" height="865.87"/></clipPath><linearGradient id="Dégradé_sans_nom_9" x1="966.26" y1="458.6" x2="966.26" y2="882.04" gradientUnits="userSpaceOnUse"><stop offset="0" stop-color="#f49523"/><stop offset="0.43" stop-color="#f49323"/><stop offset="0.59" stop-color="#f28c25"/><stop offset="0.71" stop-color="#f08028"/><stop offset="0.8" stop-color="#ed6f2c"/><stop offset="0.88" stop-color="#ea5931"/><stop offset="0.94" stop-color="#e53f37"/><stop offset="1" stop-color="#e0233e"/></linearGradient><linearGradient id="Dégradé_sans_nom_9-2" x1="4108.6" y1="-9.26" x2="4108.6" y2="414.18" xlink:href="#Dégradé_sans_nom_9"/><linearGradient id="Dégradé_sans_nom_9-3" x1="4108.6" y1="-9.26" x2="4108.6" y2="414.18" xlink:href="#Dégradé_sans_nom_9"/><linearGradient id="Dégradé_sans_nom_9-4" x1="4108.6" y1="-9.26" x2="4108.6" y2="414.18" xlink:href="#Dégradé_sans_nom_9"/><linearGradient id="Dégradé_sans_nom_9-5" x1="4108.6" y1="-9.26" x2="4108.6" y2="414.18" xlink:href="#Dégradé_sans_nom_9"/><linearGradient id="Dégradé_sans_nom_9-6" x1="4108.6" y1="-9.26" x2="4108.6" y2="414.18" xlink:href="#Dégradé_sans_nom_9"/><linearGradient id="Dégradé_sans_nom_9-7" x1="4108.6" y1="-9.26" x2="4108.6" y2="414.18" xlink:href="#Dégradé_sans_nom_9"/><linearGradient id="Dégradé_sans_nom_9-8" x1="4108.6" y1="-9.26" x2="4108.6" y2="414.18" xlink:href="#Dégradé_sans_nom_9"/><linearGradient id="Dégradé_sans_nom_9-9" x1="4108.6" y1="-9.26" x2="4108.6" y2="414.18" xlink:href="#Dégradé_sans_nom_9"/><linearGradient id="Dégradé_sans_nom_9-10" x1="4108.6" y1="-9.25" x2="4108.6" y2="414.17" xlink:href="#Dégradé_sans_nom_9"/><linearGradient id="Dégradé_sans_nom_9-11" x1="4108.6" y1="-9.26" x2="4108.6" y2="414.17" xlink:href="#Dégradé_sans_nom_9"/><linearGradient id="Dégradé_sans_nom_9-12" x1="4108.6" y1="-9.26" x2="4108.6" y2="414.18" xlink:href="#Dégradé_sans_nom_9"/><linearGradient id="Dégradé_sans_nom_9-13" x1="4108.6" y1="-9.26" x2="4108.6" y2="414.18" xlink:href="#Dégradé_sans_nom_9"/><linearGradient id="Dégradé_sans_nom_9-14" x1="4108.6" y1="-9.25" x2="4108.6" y2="414.16" xlink:href="#Dégradé_sans_nom_9"/><linearGradient id="Dégradé_sans_nom_9-15" x1="4108.6" y1="-9.26" x2="4108.6" y2="414.17" xlink:href="#Dégradé_sans_nom_9"/><linearGradient id="Dégradé_sans_nom_9-16" x1="4108.6" y1="-9.26" x2="4108.6" y2="414.19" xlink:href="#Dégradé_sans_nom_9"/><linearGradient id="Dégradé_sans_nom_9-17" x1="4108.6" y1="-9.26" x2="4108.6" y2="414.17" xlink:href="#Dégradé_sans_nom_9"/><linearGradient id="Dégradé_sans_nom_9-18" x1="4108.6" y1="-9.26" x2="4108.6" y2="414.16" xlink:href="#Dégradé_sans_nom_9"/><linearGradient id="Dégradé_sans_nom_9-19" x1="4108.6" y1="-9.26" x2="4108.6" y2="414.18" xlink:href="#Dégradé_sans_nom_9"/><linearGradient id="Dégradé_sans_nom_9-20" x1="4108.6" y1="-9.26" x2="4108.6" y2="414.19" xlink:href="#Dégradé_sans_nom_9"/><linearGradient id="Dégradé_sans_nom_9-21" x1="4108.6" y1="-9.26" x2="4108.6" y2="414.19" xlink:href="#Dégradé_sans_nom_9"/><linearGradient id="Dégradé_sans_nom_9-22" x1="6876.45" y1="-9.26" x2="6876.45" y2="414.18" xlink:href="#Dégradé_sans_nom_9"/><linearGradient id="Dégradé_sans_nom_9-23" x1="6806.42" y1="-9.26" x2="6806.42" y2="414.18" xlink:href="#Dégradé_sans_nom_9"/><linearGradient id="Dégradé_sans_nom_9-24" x1="6736.38" y1="-9.26" x2="6736.38" y2="414.18" xlink:href="#Dégradé_sans_nom_9"/><linearGradient id="Dégradé_sans_nom_9-25" x1="6666.35" y1="-9.26" x2="6666.35" y2="414.18" xlink:href="#Dégradé_sans_nom_9"/><linearGradient id="Dégradé_sans_nom_9-26" x1="6596.31" y1="-9.26" x2="6596.31" y2="414.18" xlink:href="#Dégradé_sans_nom_9"/><linearGradient id="Dégradé_sans_nom_9-27" x1="6526.27" y1="-9.26" x2="6526.27" y2="414.18" xlink:href="#Dégradé_sans_nom_9"/><linearGradient id="Dégradé_sans_nom_9-28" x1="6456.24" y1="-9.26" x2="6456.24" y2="414.18" xlink:href="#Dégradé_sans_nom_9"/><linearGradient id="Dégradé_sans_nom_9-29" x1="6386.2" y1="-9.26" x2="6386.2" y2="414.18" xlink:href="#Dégradé_sans_nom_9"/><linearGradient id="Dégradé_sans_nom_9-30" x1="6316.16" y1="-9.26" x2="6316.16" y2="414.18" xlink:href="#Dégradé_sans_nom_9"/><linearGradient id="Dégradé_sans_nom_9-31" x1="6246.13" y1="-9.26" x2="6246.13" y2="414.18" xlink:href="#Dégradé_sans_nom_9"/><linearGradient id="Dégradé_sans_nom_9-32" x1="6176.09" y1="-9.26" x2="6176.09" y2="414.18" xlink:href="#Dégradé_sans_nom_9"/><linearGradient id="Dégradé_sans_nom_9-33" x1="6106.06" y1="-9.26" x2="6106.06" y2="414.18" xlink:href="#Dégradé_sans_nom_9"/><linearGradient id="Dégradé_sans_nom_9-34" x1="6036.02" y1="-9.26" x2="6036.02" y2="414.18" xlink:href="#Dégradé_sans_nom_9"/><linearGradient id="Dégradé_sans_nom_9-35" x1="5965.98" y1="-9.26" x2="5965.98" y2="414.18" xlink:href="#Dégradé_sans_nom_9"/><linearGradient id="Dégradé_sans_nom_9-36" x1="5895.95" y1="-9.26" x2="5895.95" y2="414.18" xlink:href="#Dégradé_sans_nom_9"/><linearGradient id="Dégradé_sans_nom_9-37" x1="5825.91" y1="-9.26" x2="5825.91" y2="414.18" xlink:href="#Dégradé_sans_nom_9"/><linearGradient id="Dégradé_sans_nom_9-38" x1="5755.88" y1="-9.26" x2="5755.88" y2="414.18" xlink:href="#Dégradé_sans_nom_9"/><linearGradient id="Dégradé_sans_nom_9-39" x1="5685.84" y1="-9.26" x2="5685.84" y2="414.18" xlink:href="#Dégradé_sans_nom_9"/><linearGradient id="Dégradé_sans_nom_9-40" x1="5615.8" y1="-9.26" x2="5615.8" y2="414.18" xlink:href="#Dégradé_sans_nom_9"/><linearGradient id="Dégradé_sans_nom_9-41" x1="5545.77" y1="-9.26" x2="5545.77" y2="414.18" xlink:href="#Dégradé_sans_nom_9"/><linearGradient id="Dégradé_sans_nom_9-42" x1="5475.73" y1="-9.26" x2="5475.73" y2="414.18" xlink:href="#Dégradé_sans_nom_9"/><linearGradient id="Dégradé_sans_nom_9-43" x1="5405.7" y1="-9.26" x2="5405.7" y2="414.18" xlink:href="#Dégradé_sans_nom_9"/><linearGradient id="Dégradé_sans_nom_9-44" x1="5335.66" y1="-9.26" x2="5335.66" y2="414.18" xlink:href="#Dégradé_sans_nom_9"/><linearGradient id="Dégradé_sans_nom_9-45" x1="5265.62" y1="-9.26" x2="5265.62" y2="414.18" xlink:href="#Dégradé_sans_nom_9"/><linearGradient id="Dégradé_sans_nom_9-46" x1="5195.59" y1="-9.26" x2="5195.59" y2="414.18" xlink:href="#Dégradé_sans_nom_9"/><linearGradient id="Dégradé_sans_nom_9-47" x1="5125.55" y1="-9.26" x2="5125.55" y2="414.18" xlink:href="#Dégradé_sans_nom_9"/><linearGradient id="Dégradé_sans_nom_9-48" x1="5055.52" y1="-9.26" x2="5055.52" y2="414.18" xlink:href="#Dégradé_sans_nom_9"/><linearGradient id="Dégradé_sans_nom_9-49" x1="4985.48" y1="-9.26" x2="4985.48" y2="414.18" xlink:href="#Dégradé_sans_nom_9"/><linearGradient id="Dégradé_sans_nom_9-50" x1="4915.44" y1="-9.26" x2="4915.44" y2="414.18" xlink:href="#Dégradé_sans_nom_9"/><linearGradient id="Dégradé_sans_nom_9-51" x1="4845.41" y1="-9.26" x2="4845.41" y2="414.18" xlink:href="#Dégradé_sans_nom_9"/><linearGradient id="Dégradé_sans_nom_9-52" x1="4775.37" y1="-9.26" x2="4775.37" y2="414.18" xlink:href="#Dégradé_sans_nom_9"/><linearGradient id="Dégradé_sans_nom_9-53" x1="4705.33" y1="-9.26" x2="4705.33" y2="414.18" xlink:href="#Dégradé_sans_nom_9"/><linearGradient id="Dégradé_sans_nom_9-54" x1="4635.3" y1="-9.26" x2="4635.3" y2="414.18" xlink:href="#Dégradé_sans_nom_9"/><linearGradient id="Dégradé_sans_nom_9-55" x1="4565.26" y1="-9.26" x2="4565.26" y2="414.18" xlink:href="#Dégradé_sans_nom_9"/><linearGradient id="Dégradé_sans_nom_9-56" x1="4495.23" y1="-9.26" x2="4495.23" y2="414.18" xlink:href="#Dégradé_sans_nom_9"/><linearGradient id="Dégradé_sans_nom_9-57" x1="4425.19" y1="-9.26" x2="4425.19" y2="414.18" xlink:href="#Dégradé_sans_nom_9"/><linearGradient id="Dégradé_sans_nom_9-58" x1="4355.15" y1="-9.26" x2="4355.15" y2="414.18" xlink:href="#Dégradé_sans_nom_9"/><linearGradient id="Dégradé_sans_nom_9-59" x1="4285.12" y1="-9.26" x2="4285.12" y2="414.18" xlink:href="#Dégradé_sans_nom_9"/><linearGradient id="Dégradé_sans_nom_9-60" x1="4215.08" y1="-9.26" x2="4215.08" y2="414.18" xlink:href="#Dégradé_sans_nom_9"/><linearGradient id="Dégradé_sans_nom_9-61" x1="4145.04" y1="-9.26" x2="4145.04" y2="414.18" xlink:href="#Dégradé_sans_nom_9"/><linearGradient id="Dégradé_sans_nom_9-62" x1="4072.17" y1="-9.26" x2="4072.17" y2="414.18" xlink:href="#Dégradé_sans_nom_9"/><linearGradient id="Dégradé_sans_nom_9-63" x1="4002.13" y1="-9.26" x2="4002.13" y2="414.18" xlink:href="#Dégradé_sans_nom_9"/><linearGradient id="Dégradé_sans_nom_9-64" x1="3932.09" y1="-9.26" x2="3932.09" y2="414.18" xlink:href="#Dégradé_sans_nom_9"/><linearGradient id="Dégradé_sans_nom_9-65" x1="3862.06" y1="-9.26" x2="3862.06" y2="414.18" xlink:href="#Dégradé_sans_nom_9"/><linearGradient id="Dégradé_sans_nom_9-66" x1="3792.02" y1="-9.26" x2="3792.02" y2="414.18" xlink:href="#Dégradé_sans_nom_9"/><linearGradient id="Dégradé_sans_nom_9-67" x1="3721.99" y1="-9.26" x2="3721.99" y2="414.18" xlink:href="#Dégradé_sans_nom_9"/><linearGradient id="Dégradé_sans_nom_9-68" x1="3651.95" y1="-9.26" x2="3651.95" y2="414.18" xlink:href="#Dégradé_sans_nom_9"/><linearGradient id="Dégradé_sans_nom_9-69" x1="3581.91" y1="-9.26" x2="3581.91" y2="414.18" xlink:href="#Dégradé_sans_nom_9"/><linearGradient id="Dégradé_sans_nom_9-70" x1="3511.88" y1="-9.26" x2="3511.88" y2="414.18" xlink:href="#Dégradé_sans_nom_9"/><linearGradient id="Dégradé_sans_nom_9-71" x1="3441.84" y1="-9.26" x2="3441.84" y2="414.18" xlink:href="#Dégradé_sans_nom_9"/><linearGradient id="Dégradé_sans_nom_9-72" x1="3371.8" y1="-9.26" x2="3371.8" y2="414.18" xlink:href="#Dégradé_sans_nom_9"/><linearGradient id="Dégradé_sans_nom_9-73" x1="3301.77" y1="-9.26" x2="3301.77" y2="414.18" xlink:href="#Dégradé_sans_nom_9"/><linearGradient id="Dégradé_sans_nom_9-74" x1="3231.73" y1="-9.26" x2="3231.73" y2="414.18" xlink:href="#Dégradé_sans_nom_9"/><linearGradient id="Dégradé_sans_nom_9-75" x1="3161.7" y1="-9.26" x2="3161.7" y2="414.18" xlink:href="#Dégradé_sans_nom_9"/><linearGradient id="Dégradé_sans_nom_9-76" x1="3091.66" y1="-9.26" x2="3091.66" y2="414.18" xlink:href="#Dégradé_sans_nom_9"/><linearGradient id="Dégradé_sans_nom_9-77" x1="3021.62" y1="-9.26" x2="3021.62" y2="414.18" xlink:href="#Dégradé_sans_nom_9"/><linearGradient id="Dégradé_sans_nom_9-78" x1="2951.59" y1="-9.26" x2="2951.59" y2="414.18" xlink:href="#Dégradé_sans_nom_9"/><linearGradient id="Dégradé_sans_nom_9-79" x1="2881.55" y1="-9.26" x2="2881.55" y2="414.18" xlink:href="#Dégradé_sans_nom_9"/><linearGradient id="Dégradé_sans_nom_9-80" x1="2811.52" y1="-9.26" x2="2811.52" y2="414.18" xlink:href="#Dégradé_sans_nom_9"/><linearGradient id="Dégradé_sans_nom_9-81" x1="2741.48" y1="-9.26" x2="2741.48" y2="414.18" xlink:href="#Dégradé_sans_nom_9"/><linearGradient id="Dégradé_sans_nom_9-82" x1="2671.44" y1="-9.26" x2="2671.44" y2="414.18" xlink:href="#Dégradé_sans_nom_9"/><linearGradient id="Dégradé_sans_nom_9-83" x1="2601.41" y1="-9.26" x2="2601.41" y2="414.18" xlink:href="#Dégradé_sans_nom_9"/><linearGradient id="Dégradé_sans_nom_9-84" x1="2531.37" y1="-9.26" x2="2531.37" y2="414.18" xlink:href="#Dégradé_sans_nom_9"/><linearGradient id="Dégradé_sans_nom_9-85" x1="2461.34" y1="-9.26" x2="2461.34" y2="414.18" xlink:href="#Dégradé_sans_nom_9"/><linearGradient id="Dégradé_sans_nom_9-86" x1="2391.3" y1="-9.26" x2="2391.3" y2="414.18" xlink:href="#Dégradé_sans_nom_9"/><linearGradient id="Dégradé_sans_nom_9-87" x1="2321.26" y1="-9.26" x2="2321.26" y2="414.18" xlink:href="#Dégradé_sans_nom_9"/><linearGradient id="Dégradé_sans_nom_9-88" x1="2251.23" y1="-9.26" x2="2251.23" y2="414.18" xlink:href="#Dégradé_sans_nom_9"/><linearGradient id="Dégradé_sans_nom_9-89" x1="2181.19" y1="-9.26" x2="2181.19" y2="414.18" xlink:href="#Dégradé_sans_nom_9"/><linearGradient id="Dégradé_sans_nom_9-90" x1="2111.15" y1="-9.26" x2="2111.15" y2="414.18" xlink:href="#Dégradé_sans_nom_9"/><linearGradient id="Dégradé_sans_nom_9-91" x1="2041.12" y1="-9.26" x2="2041.12" y2="414.18" xlink:href="#Dégradé_sans_nom_9"/><linearGradient id="Dégradé_sans_nom_9-92" x1="1971.08" y1="-9.26" x2="1971.08" y2="414.18" xlink:href="#Dégradé_sans_nom_9"/><linearGradient id="Dégradé_sans_nom_9-93" x1="1901.05" y1="-9.26" x2="1901.05" y2="414.18" xlink:href="#Dégradé_sans_nom_9"/><linearGradient id="Dégradé_sans_nom_9-94" x1="1831.01" y1="-9.26" x2="1831.01" y2="414.18" xlink:href="#Dégradé_sans_nom_9"/><linearGradient id="Dégradé_sans_nom_9-95" x1="1760.97" y1="-9.26" x2="1760.97" y2="414.18" xlink:href="#Dégradé_sans_nom_9"/><linearGradient id="Dégradé_sans_nom_9-96" x1="1690.94" y1="-9.26" x2="1690.94" y2="414.18" xlink:href="#Dégradé_sans_nom_9"/><linearGradient id="Dégradé_sans_nom_9-97" x1="1620.9" y1="-9.26" x2="1620.9" y2="414.18" xlink:href="#Dégradé_sans_nom_9"/><linearGradient id="Dégradé_sans_nom_9-98" x1="1550.87" y1="-9.26" x2="1550.87" y2="414.18" xlink:href="#Dégradé_sans_nom_9"/><linearGradient id="Dégradé_sans_nom_9-99" x1="1480.83" y1="-9.26" x2="1480.83" y2="414.18" xlink:href="#Dégradé_sans_nom_9"/><linearGradient id="Dégradé_sans_nom_9-100" x1="1410.79" y1="-9.26" x2="1410.79" y2="414.18" xlink:href="#Dégradé_sans_nom_9"/><linearGradient id="Dégradé_sans_nom_9-101" x1="1340.76" y1="-9.26" x2="1340.76" y2="414.18" xlink:href="#Dégradé_sans_nom_9"/></defs><g id="Calque_2" data-name="Calque 2"><g id="Calque_1-2" data-name="Calque 1"><g class="cls-2"><g class="cls-3"><path class="cls-4" d="M5074.86,878.65H-3142.35l2528-410.79H2546.83Zm-8184.95-3.75H5042.6L2546.68,468.42H-614.16Z" transform="translate(3142.35 -467.86)"/><polygon class="cls-5" points="7923.06 363.69 294.15 363.69 314.03 360.46 7903.18 360.46 7923.06 363.69"/><polygon class="cls-6" points="7671.71 322.8 545.5 322.8 562.85 319.98 7654.36 319.98 7671.71 322.8"/><polygon class="cls-7" points="7451.44 286.97 765.76 286.97 781.04 284.49 7436.17 284.49 7451.44 286.97"/><polygon class="cls-8" points="7256.82 255.31 960.39 255.31 973.94 253.1 7243.27 253.1 7256.82 255.31"/><polygon class="cls-9" points="7083.61 227.13 1133.6 227.13 1145.7 225.16 7071.51 225.16 7083.61 227.13"/><polygon class="cls-10" points="6928.47 201.9 1288.74 201.9 1299.62 200.13 6917.59 200.13 6928.47 201.9"/><polygon class="cls-11" points="6788.7 179.16 1428.5 179.16 1438.33 177.56 6778.88 177.56 6788.7 179.16"/><polygon class="cls-12" points="6662.14 158.57 1555.07 158.57 1563.99 157.12 6653.22 157.12 6662.14 158.57"/><polygon class="cls-13" points="6546.99 139.84 1670.21 139.84 1678.35 138.51 6538.86 138.51 6546.99 139.84"/><polygon class="cls-14" points="6441.78 122.72 1775.43 122.72 1782.88 121.51 6434.33 121.51 6441.78 122.72"/><polygon class="cls-15" points="6345.27 107.02 1871.93 107.02 1878.78 105.91 6338.43 105.91 6345.27 107.02"/><polygon class="cls-16" points="6256.43 92.57 1960.78 92.57 1967.09 91.54 6250.12 91.54 6256.43 92.57"/><polygon class="cls-17" points="6174.38 79.22 2042.83 79.22 2048.67 78.27 6168.54 78.27 6174.38 79.22"/><polygon class="cls-18" points="6098.36 66.86 2118.84 66.86 2124.27 65.97 6092.94 65.97 6098.36 66.86"/><polygon class="cls-19" points="6027.75 55.37 2189.46 55.37 2194.51 54.55 6022.7 54.55 6027.75 55.37"/><polygon class="cls-20" points="5961.97 44.67 2255.24 44.67 2259.95 43.9 5957.26 43.9 5961.97 44.67"/><polygon class="cls-21" points="5900.55 34.68 2316.66 34.68 2321.06 33.96 5896.15 33.96 5900.55 34.68"/><polygon class="cls-22" points="5843.07 25.33 2374.14 25.33 2378.26 24.66 5838.95 24.66 5843.07 25.33"/><polygon class="cls-23" points="5789.16 16.56 2428.05 16.56 2431.91 15.93 5785.3 15.93 5789.16 16.56"/><polygon class="cls-24" points="5738.51 8.32 2478.7 8.32 2482.34 7.72 5734.87 7.72 5738.51 8.32"/><polygon class="cls-25" points="8104.62 408.91 8095.35 408.91 5648.29 0.28 5651.87 0.28 8104.62 408.91"/><polygon class="cls-26" points="8003.57 408.91 7994.31 408.91 5609.26 0.28 5612.84 0.28 8003.57 408.91"/><polygon class="cls-27" points="7902.52 408.91 7893.26 408.91 5570.24 0.28 5573.82 0.28 7902.52 408.91"/><polygon class="cls-28" points="7801.48 408.91 7792.21 408.91 5531.22 0.28 5534.79 0.28 7801.48 408.91"/><polygon class="cls-29" points="7700.43 408.91 7691.16 408.91 5492.19 0.28 5495.77 0.28 7700.43 408.91"/><polygon class="cls-30" points="7599.38 408.91 7590.11 408.91 5453.16 0.28 5456.74 0.28 7599.38 408.91"/><polygon class="cls-31" points="7498.34 408.91 7489.07 408.91 5414.14 0.28 5417.72 0.28 7498.34 408.91"/><polygon class="cls-32" points="7397.29 408.91 7388.02 408.91 5375.12 0.28 5378.69 0.28 7397.29 408.91"/><polygon class="cls-33" points="7296.24 408.91 7286.97 408.91 5336.09 0.28 5339.67 0.28 7296.24 408.91"/><polygon class="cls-34" points="7195.19 408.91 7185.92 408.91 5297.07 0.28 5300.64 0.28 7195.19 408.91"/><polygon class="cls-35" points="7094.14 408.91 7084.88 408.91 5258.04 0.28 5261.62 0.28 7094.14 408.91"/><polygon class="cls-36" points="6993.1 408.91 6983.83 408.91 5219.02 0.28 5222.6 0.28 6993.1 408.91"/><polygon class="cls-37" points="6892.05 408.91 6882.78 408.91 5179.99 0.28 5183.57 0.28 6892.05 408.91"/><polygon class="cls-38" points="6791 408.91 6781.74 408.91 5140.97 0.28 5144.55 0.28 6791 408.91"/><polygon class="cls-39" points="6689.95 408.91 6680.69 408.91 5101.94 0.28 5105.52 0.28 6689.95 408.91"/><polygon class="cls-40" points="6588.9 408.91 6579.64 408.91 5062.92 0.28 5066.5 0.28 6588.9 408.91"/><polygon class="cls-41" points="6487.86 408.91 6478.59 408.91 5023.9 0.28 5027.47 0.28 6487.86 408.91"/><polygon class="cls-42" points="6386.81 408.91 6377.55 408.91 4984.87 0.28 4988.45 0.28 6386.81 408.91"/><polygon class="cls-43" points="6285.76 408.91 6276.5 408.91 4945.85 0.28 4949.42 0.28 6285.76 408.91"/><polygon class="cls-44" points="6184.71 408.91 6175.45 408.91 4906.82 0.28 4910.4 0.28 6184.71 408.91"/><polygon class="cls-45" points="6083.67 408.91 6074.4 408.91 4867.8 0.28 4871.37 0.28 6083.67 408.91"/><polygon class="cls-46" points="5982.62 408.91 5973.35 408.91 4828.77 0.28 4832.35 0.28 5982.62 408.91"/><polygon class="cls-47" points="5881.57 408.91 5872.31 408.91 4789.75 0.28 4793.32 0.28 5881.57 408.91"/><polygon class="cls-48" points="5780.52 408.91 5771.26 408.91 4750.72 0.28 4754.3 0.28 5780.52 408.91"/><polygon class="cls-49" points="5679.48 408.91 5670.21 408.91 4711.7 0.28 4715.28 0.28 5679.48 408.91"/><polygon class="cls-50" points="5578.43 408.91 5569.16 408.91 4672.67 0.28 4676.25 0.28 5578.43 408.91"/><polygon class="cls-51" points="5477.38 408.91 5468.12 408.91 4633.65 0.28 4637.23 0.28 5477.38 408.91"/><polygon class="cls-52" points="5376.33 408.91 5367.07 408.91 4594.62 0.28 4598.2 0.28 5376.33 408.91"/><polygon class="cls-53" points="5275.28 408.91 5266.02 408.91 4555.6 0.28 4559.18 0.28 5275.28 408.91"/><polygon class="cls-54" points="5174.24 408.91 5164.97 408.91 4516.57 0.28 4520.15 0.28 5174.24 408.91"/><polygon class="cls-55" points="5073.19 408.91 5063.93 408.91 4477.55 0.28 4481.13 0.28 5073.19 408.91"/><polygon class="cls-56" points="4972.14 408.91 4962.88 408.91 4438.52 0.28 4442.1 0.28 4972.14 408.91"/><polygon class="cls-57" points="4871.09 408.91 4861.83 408.91 4399.5 0.28 4403.08 0.28 4871.09 408.91"/><polygon class="cls-58" points="4770.05 408.91 4760.78 408.91 4360.48 0.28 4364.06 0.28 4770.05 408.91"/><polygon class="cls-59" points="4669 408.91 4659.73 408.91 4321.45 0.28 4325.03 0.28 4669 408.91"/><polygon class="cls-60" points="4567.95 408.91 4558.69 408.91 4282.43 0.28 4286.01 0.28 4567.95 408.91"/><polygon class="cls-61" points="4466.91 408.91 4457.64 408.91 4243.4 0.28 4246.98 0.28 4466.91 408.91"/><polygon class="cls-62" points="4365.86 408.91 4356.59 408.91 4204.38 0.28 4207.96 0.28 4365.86 408.91"/><polygon class="cls-63" points="4264.81 408.91 4255.54 408.91 4165.35 0.28 4168.93 0.28 4264.81 408.91"/><polygon class="cls-64" points="4163.76 408.91 4154.49 408.91 4126.33 0.28 4129.91 0.28 4163.76 408.91"/><polygon class="cls-65" points="4062.71 408.91 4053.45 408.91 4087.3 0.28 4090.88 0.28 4062.71 408.91"/><polygon class="cls-66" points="3961.66 408.91 3952.4 408.91 4048.28 0.28 4051.86 0.28 3961.66 408.91"/><polygon class="cls-67" points="3860.62 408.91 3851.36 408.91 4009.26 0.28 4012.83 0.28 3860.62 408.91"/><polygon class="cls-68" points="3759.57 408.91 3750.31 408.91 3970.23 0.28 3973.81 0.28 3759.57 408.91"/><polygon class="cls-69" points="3658.52 408.91 3649.26 408.91 3931.21 0.28 3934.78 0.28 3658.52 408.91"/><polygon class="cls-70" points="3557.47 408.91 3548.21 408.91 3892.18 0.28 3895.76 0.28 3557.47 408.91"/><polygon class="cls-71" points="3456.43 408.91 3447.16 408.91 3853.16 0.28 3856.73 0.28 3456.43 408.91"/><polygon class="cls-72" points="3355.38 408.91 3346.12 408.91 3814.13 0.28 3817.71 0.28 3355.38 408.91"/><polygon class="cls-73" points="3254.33 408.91 3245.07 408.91 3775.11 0.28 3778.68 0.28 3254.33 408.91"/><polygon class="cls-74" points="3153.28 408.91 3144.02 408.91 3736.08 0.28 3739.66 0.28 3153.28 408.91"/><polygon class="cls-75" points="3052.24 408.91 3042.97 408.91 3697.06 0.28 3700.64 0.28 3052.24 408.91"/><polygon class="cls-76" points="2951.19 408.91 2941.93 408.91 3658.03 0.28 3661.61 0.28 2951.19 408.91"/><polygon class="cls-77" points="2850.14 408.91 2840.88 408.91 3619.01 0.28 3622.59 0.28 2850.14 408.91"/><polygon class="cls-78" points="2749.09 408.91 2739.83 408.91 3579.99 0.28 3583.56 0.28 2749.09 408.91"/><polygon class="cls-79" points="2648.05 408.91 2638.78 408.91 3540.96 0.28 3544.54 0.28 2648.05 408.91"/><polygon class="cls-80" points="2547 408.91 2537.74 408.91 3501.93 0.28 3505.51 0.28 2547 408.91"/><polygon class="cls-81" points="2445.95 408.91 2436.69 408.91 3462.91 0.28 3466.49 0.28 2445.95 408.91"/><polygon class="cls-82" points="2344.9 408.91 2335.64 408.91 3423.89 0.28 3427.46 0.28 2344.9 408.91"/><polygon class="cls-83" points="2243.86 408.91 2234.59 408.91 3384.86 0.28 3388.44 0.28 2243.86 408.91"/><polygon class="cls-84" points="2142.81 408.91 2133.55 408.91 3345.84 0.28 3349.41 0.28 2142.81 408.91"/><polygon class="cls-85" points="2041.76 408.91 2032.5 408.91 3306.81 0.28 3310.39 0.28 2041.76 408.91"/><polygon class="cls-86" points="1940.71 408.91 1931.45 408.91 3267.79 0.28 3271.36 0.28 1940.71 408.91"/><polygon class="cls-87" points="1839.66 408.91 1830.4 408.91 3228.76 0.28 3232.34 0.28 1839.66 408.91"/><polygon class="cls-88" points="1738.62 408.91 1729.36 408.91 3189.74 0.28 3193.32 0.28 1738.62 408.91"/><polygon class="cls-89" points="1637.57 408.91 1628.31 408.91 3150.71 0.28 3154.29 0.28 1637.57 408.91"/><polygon class="cls-90" points="1536.52 408.91 1527.26 408.91 3111.69 0.28 3115.27 0.28 1536.52 408.91"/><polygon class="cls-91" points="1435.47 408.91 1426.21 408.91 3072.66 0.28 3076.24 0.28 1435.47 408.91"/><polygon class="cls-92" points="1334.43 408.91 1325.16 408.91 3033.64 0.28 3037.22 0.28 1334.43 408.91"/><polygon class="cls-93" points="1233.38 408.91 1224.12 408.91 2994.62 0.28 2998.19 0.28 1233.38 408.91"/><polygon class="cls-94" points="1132.33 408.91 1123.07 408.91 2955.59 0.28 2959.17 0.28 1132.33 408.91"/><polygon class="cls-95" points="1031.28 408.91 1022.02 408.91 2916.57 0.28 2920.14 0.28 1031.28 408.91"/><polygon class="cls-96" points="930.24 408.91 920.97 408.91 2877.54 0.28 2881.12 0.28 930.24 408.91"/><polygon class="cls-97" points="829.19 408.91 819.93 408.91 2838.52 0.28 2842.09 0.28 829.19 408.91"/><polygon class="cls-98" points="728.14 408.91 718.88 408.91 2799.49 0.28 2803.07 0.28 728.14 408.91"/><polygon class="cls-99" points="627.09 408.91 617.83 408.91 2760.47 0.28 2764.05 0.28 627.09 408.91"/><polygon class="cls-100" points="526.04 408.91 516.78 408.91 2721.44 0.28 2725.02 0.28 526.04 408.91"/><polygon class="cls-101" points="425 408.91 415.74 408.91 2682.42 0.28 2686 0.28 425 408.91"/><polygon class="cls-102" points="323.95 408.91 314.69 408.91 2643.39 0.28 2646.97 0.28 323.95 408.91"/><polygon class="cls-103" points="222.9 408.91 213.64 408.91 2604.37 0.28 2607.95 0.28 222.9 408.91"/><polygon class="cls-104" points="121.86 408.91 112.59 408.91 2565.34 0.28 2568.92 0.28 121.86 408.91"/></g></g></g></g></svg>